<svg xmlns="http://www.w3.org/2000/svg" width="17" height="19" viewBox="0 0 17 19">
    <path fill="#C1C8D6" fill-rule="evenodd" d="M9.707 16.571c-2.121 2.121-5.657 2.121-7.778 0-2.121-2.121-2.121-5.657 0-7.778l7.425-7.425a4.012 4.012 0 0 1 5.656 0 4.012 4.012 0 0 1 0 5.657L9 13.035c-.99.99-2.546.99-3.536 0a2.476 2.476 0 0 1 0-3.535l5.304-5.303 1.06 1.06-5.303 5.304c-.424.424-.424.99 0 1.414.424.424.99.424 1.414 0l6.01-6.01c.99-.99.99-2.546 0-3.536a2.476 2.476 0 0 0-3.535 0L2.99 9.854a4.012 4.012 0 0 0 0 5.656 4.012 4.012 0 0 0 5.656 0l6.718-6.717 1.06 1.06-6.717 6.718z"/>
</svg>
