<svg xmlns="http://www.w3.org/2000/svg" width="24" height="24" viewBox="-1 -1 24 24">
    <path fill="none" fill-rule="evenodd" stroke-linejoin="bevel" stroke-width="2" d="M10.5 19v.5V2v17c0 2-4.5 1.5-4.5 0 0-1 .167-2.167.5-3.5C6.167 17.167 5.667 18 5 18c-1 0-2.5 0-2.5-2v-3c-1-.667-1.5-1.5-1.5-2.5 0-1.5 2-3 2-3s-1-3 .5-4S6 3 6 3s1 1 1 2.5C7 4.5 6 1 8.5 1c1 0 1.667.333 2 1 .333-.667 1-1 2-1C15 1 14 4.5 14 5.5 14 4 15 3 15 3s1-.5 2.5.5.5 4 .5 4 2 1.5 2 3c0 1-.5 1.833-1.5 2.5v3c0 2-1.5 2-2.5 2-.667 0-1.167-.833-1.5-2.5.333 1.333.5 2.5.5 3.5 0 1.5-4.5 2-4.5 0zm0-9.5c.333-.333.833-.5 1.5-.5 1 0 2 .5 2 1.5m-3.5 2c-.667.333-1.333.5-2 .5-1 0-1.5-1.5-1.5-2.5"/>
</svg>
