<svg xmlns="http://www.w3.org/2000/svg" width="13" height="11" viewBox="0 0 13 11">
    <g fill="none" fill-rule="evenodd">        
        <g fill="#39B8AB">
            <path d="M9.718 3.714h2.107c.64 0 1.162.537 1.162 1.196 0 .309-.113.6-.318.823.189.212.304.495.304.805 0 .432-.223.81-.557 1.02.102.179.161.387.161.608 0 .432-.223.81-.557 1.021.103.178.162.386.162.608 0 .659-.522 1.195-1.163 1.195H9.847c-.284 0-.554.003-.816.005-.237.003-.467.005-.692.005-1.452 0-2.698-.093-4.197-.864a.369.369 0 0 1-.007-.004c.021-.107.033-.22.033-.337v-5.24c.095-.048.198-.1.307-.153.34-.17.764-.38 1.184-.635 1.398-.85 2.124-1.84 2.22-3.03A.806.806 0 0 1 8.674 0c.414.007.801.178 1.092.48.29.304.45.706.45 1.132v.129c0 .792-.173 1.365-.499 1.973zM2.913 4.26H.306c-.17 0-.306.159-.306.353v6.024c0 .195.137.353.306.357H2.26c.375-.004.7-.254.857-.617.065-.148.101-.316.101-.493v-5.27c0-.195-.137-.354-.306-.354z"/>
        </g>
    </g>
</svg>
