<svg xmlns="http://www.w3.org/2000/svg" width="15" height="17" viewBox="0 0 15 17">
    <g fill="none" fill-rule="evenodd">        
        <g fill="#CDD3DE" fill-rule="nonzero">
            <path d="M7.059 14C3.42 14 .47 10.866.47 7s2.95-7 6.588-7 6.588 3.134 6.588 7-2.95 7-6.588 7zm0-1.867c2.668 0 4.831-2.298 4.831-5.133S9.727 1.867 7.06 1.867C4.39 1.867 2.227 4.165 2.227 7s2.164 5.133 4.832 5.133z"/>
            <path d="M10.092 11.8l3.432 4.233a.444.444 0 0 0 .646.048l.59-.541a.444.444 0 0 0 .044-.608l-3.432-4.234a.444.444 0 0 0-.645-.047l-.59.541a.444.444 0 0 0-.045.607z"/>
        </g>
    </g>
</svg>
