<svg xmlns="http://www.w3.org/2000/svg" width="13" height="15" viewBox="0 0 13 15">
    <g fill="none" fill-rule="evenodd">        
        <g fill="#3ED380" fill-rule="nonzero">
            <path d="M6.176 12.353c-3.183 0-5.764-2.765-5.764-6.177C.412 2.766 2.992 0 6.176 0s5.765 2.765 5.765 6.176c0 3.412-2.58 6.177-5.765 6.177zm0-1.647c2.335 0 4.228-2.028 4.228-4.53 0-2.501-1.893-4.529-4.228-4.529-2.334 0-4.227 2.028-4.227 4.53 0 2.501 1.893 4.529 4.227 4.529z"/>
            <path d="M8.83 10.41l3 3.733a.392.392 0 0 0 .573.042l.513-.475a.392.392 0 0 0 .039-.533L9.954 9.443a.392.392 0 0 0-.572-.042l-.513.475a.392.392 0 0 0-.04.534z"/>
        </g>
    </g>
</svg>
