<svg xmlns="http://www.w3.org/2000/svg" width="18" height="13" viewBox="0 0 18 13">
    <g fill="none" fill-rule="evenodd">        
        <g fill="#C1C8D6">
            <path d="M12.316 13v-2.003c0-.863-.387-1.627-1.022-2.261a7.102 7.102 0 0 1 1.97-.308c1.841 0 4.736 1.013 4.736 2.855V13h-5.684zm.947-5.617c-1.566 0-2.763-1.198-2.763-2.763 0-1.566 1.197-2.763 2.763-2.763 1.566 0 2.763 1.197 2.763 2.763 0 1.565-1.197 2.763-2.763 2.763zM5.684 6.446c-1.879 0-3.316-1.396-3.316-3.223C2.368 1.397 3.805 0 5.684 0 7.564 0 9 1.397 9 3.223 9 5.05 7.563 6.446 5.684 6.446zm0 1.22c2.21 0 5.684 1.182 5.684 3.331V13H0v-2.003c0-2.149 3.474-3.33 5.684-3.33z"/>
        </g>
    </g>
</svg>
