<svg xmlns="http://www.w3.org/2000/svg" width="40" height="40" viewBox="0 0 40 40">
    <path fill="#959EB0" fill-rule="evenodd" d="M39.275 4.563l-4.687 2.344-1.049-2.096 4.688-2.344 1.048 2.096zm-1.048 18.752l-4.688-2.344 1.048-2.096 4.688 2.344-1.048 2.096zm-2.993-11.596H40v2.344h-4.766v-2.344zM1.774 2.467l4.687 2.344-1.048 2.096L.726 4.564l1.048-2.097zm0 20.847L.724 21.218l4.688-2.344L6.46 20.97l-4.688 2.344zM0 11.719h4.766v2.344H0v-2.344zm16.484 25.937h7.032V40h-7.032v-2.344zm16.407-24.765c0 4.846-2.736 9.266-7.032 11.465v3.769h2.344v2.344H25.86v4.843H14.141V30.47h-2.344v-2.344h2.344v-3.769c-4.296-2.199-7.032-6.619-7.032-11.465C7.11 5.783 12.892 0 20 0s12.89 5.783 12.89 12.89zm-9.375 20.078v-2.5h-7.032v2.5h7.032zm-4.688-17.735c0 .646.526 1.172 1.172 1.172.646 0 1.172-.526 1.172-1.172 0-.646-.526-1.171-1.172-1.171-.646 0-1.172.525-1.172 1.171zm2.344 12.891h2.344v-5.274l.7-.308c3.846-1.688 6.33-5.477 6.33-9.652 0-5.816-4.73-10.547-10.546-10.547-5.815 0-10.547 4.731-10.547 10.547 0 4.175 2.485 7.964 6.33 9.652l.701.308v5.274h2.344v-9.576a3.521 3.521 0 0 1-2.344-3.315A3.52 3.52 0 0 1 20 11.72a3.52 3.52 0 0 1 3.516 3.515c0 1.528-.98 2.83-2.344 3.315v9.576z"/>
</svg>
