<svg xmlns="http://www.w3.org/2000/svg" width="20" height="20" viewBox="0 0 20 20">
    <path fill="none" fill-rule="evenodd" stroke="#C1C8D6" stroke-linecap="round" stroke-linejoin="round" stroke-width="1.5" d="M14.399 15.273a6.993 6.993 0 0 1-2.341 1.353L11.794 19h-4l-.264-2.374a6.993 6.993 0 0 1-2.34-1.353l-2.19.96-2-3.465 1.925-1.416a7.035 7.035 0 0 1 0-2.704L1 7.232l2-3.464 2.19.96a6.993 6.993 0 0 1 2.34-1.354L7.794 1h4l.264 2.374c.87.297 1.663.761 2.34 1.353l2.19-.96 2 3.465-1.924 1.416a7.035 7.035 0 0 1 0 2.704l1.924 1.416-2 3.464-2.19-.96zM9.794 13a3 3 0 1 0 0-6 3 3 0 0 0 0 6z"/>
</svg>
