<svg xmlns="http://www.w3.org/2000/svg" width="24" height="24" viewBox="0 -4 24 24">
    <path fill="#000" fill-rule="nonzero" d="M1.163 7.295c.373-.131 1.397-.704 4.072-3.064A4.927 4.927 0 0 1 12 4.469a4.926 4.926 0 0 1 6.765-.238c2.675 2.36 3.7 2.933 4.072 3.064L24 7.706l-5.016 4.583A10.331 10.331 0 0 1 12 15c-2.59 0-5.07-.963-6.984-2.71L0 7.705l1.163-.41zm4.85 3.902A8.857 8.857 0 0 0 12 13.52c2.22 0 4.347-.825 5.988-2.324l2.039-1.863a31.516 31.516 0 0 1-1.544-.06c-2.163-.119-4.4-.242-5.994 1.167l-.489.432-.489-.432C9.917 9.032 7.68 9.155 5.517 9.274c-.528.029-1.046.057-1.544.06l2.04 1.863zm-.577-3.4c2.057-.113 4.577-.251 6.564 1.149 1.986-1.4 4.507-1.262 6.564-1.149.821.045 1.617.089 2.277.03-.684-.487-1.659-1.256-3.053-2.487a3.449 3.449 0 0 0-5.112.62L12 6.93l-.676-.97a3.448 3.448 0 0 0-5.111-.62c-1.395 1.23-2.37 2-3.054 2.486.66.06 1.456.016 2.277-.029zM22 2a1 1 0 1 0 0-2 1 1 0 0 0 0 2z"/>
</svg>
