<svg xmlns="http://www.w3.org/2000/svg" width="24" height="24" viewBox="0 -1 24 24">
    <g fill="none" fill-rule="evenodd">
        <path stroke-width="2" d="M13 3S5 6 7.5 14s12.5 9 16 2.5c0 0-7.5.5-9.5-4S13 3 13 3z"/>
        <path d="M21.488 9.704l-.896.471.725.528.171-.999zm-.316-.973l-.725-.707-.277.853 1.002-.146zM22 8.13l.448-.909h-.896L22 8.13zm.828.601l1.002.146-.277-.853-.725.707zm-.316.973l.17.999.726-.528-.896-.471zM20.148 1.386l-.726-.708-.277.853 1.003-.145zm.352-.256l.448-.909h-.896l.448.909zm.352.256l1.003.145-.277-.853-.726.708zm-.134.414l.17.998.726-.527-.896-.471zm-.436 0l-.896.471.725.527.171-.998zM1.323 5.105l.497.261-.725.528L1 5.34l-.095.554-.725-.528.497-.261-.556.08.277-.852.402.392-.248-.504h.896l-.248.504.402-.392.277.853-.556-.081zM3.323 19.105l.497.261-.725.528L3 19.34l-.095.554-.725-.528.497-.261-.556.08.277-.852.402.392-.248-.504h.896l-.248.504.402-.392.277.853-.556-.081z"/>
    </g>
</svg>
