<svg xmlns="http://www.w3.org/2000/svg" width="84" height="15" viewBox="0 0 84 15">
    <g fill="#DFE4EC" fill-rule="evenodd">
        <path d="M76 12.438L71.056 15 72 9.573l-4-3.844 5.528-.791L76 0l2.472 4.938L84 5.729l-4 3.844.944 5.427L76 12.438zm0-1.529l3.122 1.618-.596-3.426 2.525-2.427-3.49-.5L76 3.057l-1.56 3.117-3.491.5 2.525 2.427-.596 3.426L76 10.91zM59 12.438L54.056 15 55 9.573l-4-3.844 5.528-.791L59 0l2.472 4.938L67 5.729l-4 3.844.944 5.427L59 12.438zm0-1.529l3.122 1.618-.596-3.426 2.525-2.427-3.49-.5L59 3.057l-1.56 3.117-3.491.5 2.525 2.427-.596 3.426L59 10.91zm-17 1.529L37.056 15 38 9.573l-4-3.844 5.528-.791L42 0l2.472 4.938L50 5.729l-4 3.844.944 5.427L42 12.438zm0-1.529l3.122 1.618-.596-3.426 2.525-2.427-3.49-.5L42 3.057l-1.56 3.117-3.491.5 2.525 2.427-.596 3.426L42 10.91zm-17 1.529L20.056 15 21 9.573l-4-3.844 5.528-.791L25 0l2.472 4.938L33 5.729l-4 3.844.944 5.427L25 12.438zm0-1.529l3.122 1.618-.596-3.426 2.525-2.427-3.49-.5L25 3.057l-1.56 3.117-3.491.5 2.525 2.427-.596 3.426L25 10.91zM8 12.438L3.056 15 4 9.573 0 5.729l5.528-.791L8 0l2.472 4.938L16 5.729l-4 3.844.944 5.427L8 12.438zm0-1.529l3.122 1.618-.596-3.426 2.525-2.427-3.49-.5L8 3.057 6.44 6.174l-3.491.5 2.525 2.427-.596 3.426L8 10.91z"/>
    </g>
</svg>
