<svg xmlns="http://www.w3.org/2000/svg" width="84" height="15" viewBox="0 0 84 15">
    <g fill="#EEB707" fill-rule="evenodd">
        <path d="M8 12.438L3.056 15 4 9.573 0 5.729l5.528-.791L8 0l2.472 4.938L16 5.729l-4 3.844.944 5.427zM25 12.438L20.056 15 21 9.573l-4-3.844 5.528-.791L25 0l2.472 4.938L33 5.729l-4 3.844.944 5.427zM42 12.438L37.056 15 38 9.573l-4-3.844 5.528-.791L42 0l2.472 4.938L50 5.729l-4 3.844.944 5.427zM59 12.438L54.056 15 55 9.573l-4-3.844 5.528-.791L59 0l2.472 4.938L67 5.729l-4 3.844.944 5.427zM76 12.438L71.056 15 72 9.573l-4-3.844 5.528-.791L76 0l2.472 4.938L84 5.729l-4 3.844.944 5.427z"/>
    </g>
</svg>
