<svg xmlns="http://www.w3.org/2000/svg" xmlns:xlink="http://www.w3.org/1999/xlink" width="680" height="622" viewBox="0 0 680 622">
    <defs>
        <linearGradient id="a" x1="102.62%" x2="18.388%" y1="43.604%" y2="65.481%">
            <stop offset="0%" stop-color="#FFF"/>
            <stop offset="100%" stop-color="#F2F5FE"/>
        </linearGradient>
        <path id="b" d="M19.302 27.563c0 1.83-1.73 3.617-5.115 4.448-3.384.83-8.296.211-10.002-1.826C3.048 28.827 1.653 28.163 0 28.192L1.892 0l20.814.605c-2.27 16.753-3.404 25.74-3.404 26.958z"/>
        <linearGradient id="c" x1="104.216%" x2="8.122%" y1="-1.788%" y2="102.813%">
            <stop offset="0%" stop-color="#FCCBCB"/>
            <stop offset="100%" stop-color="#E77575"/>
        </linearGradient>
        <path id="e" d="M63.49 25.793c-17.124 59.069-26.076 90.625-26.857 94.67-.781 4.045-5.16 31.103-13.139 81.175-2.508 4.241-6.6 6.193-12.277 5.856-5.677-.337-9.268-2.289-10.774-5.856 1.204-55.601 2.356-86.591 3.456-92.97C4.999 102.29 11.2 66.068 22.507 0L63.49 25.793z"/>
        <path id="g" d="M19.302 27.563c0 1.83-1.73 3.617-5.115 4.448-3.384.83-8.296.211-10.002-1.826C3.048 28.827 1.653 28.163 0 28.192L1.892 0l20.814.605c-2.27 16.753-3.404 25.74-3.404 26.958z"/>
        <path id="i" d="M63.49 25.793c-17.124 59.069-26.076 90.625-26.857 94.67-.781 4.045-5.16 31.103-13.139 81.175-2.508 4.241-6.6 6.193-12.277 5.856-5.677-.337-9.268-2.289-10.774-5.856 1.204-55.601 2.356-86.591 3.456-92.97C4.999 102.29 11.2 66.068 22.507 0L63.49 25.793z"/>
        <linearGradient id="l" x1="-2.555%" x2="54.681%" y1="-5.088%" y2="63.392%">
            <stop offset="0%" stop-color="#FEE7E7"/>
            <stop offset="100%" stop-color="#FCCBCB"/>
        </linearGradient>
        <path id="k" d="M29.85 8.65c-2.328 1.855-3.795 3.684-4.399 5.487-.212.633-.11 4.14-.617 6.604-.243 1.179-.852 3.019-1.828 5.52-1.124-.118-1.867-.716-2.23-1.795-.545-1.62-.17-2.898-.033-3.223.41-.976.453-2.317.133-4.024-5.412 3.473-8.703 6.929-9.874 10.367-.784 2.303-2.363 2.606-3.903 2.426.195-1.47.343-2.67.443-3.604-.2.49-.6.933-1.201 1.33-.762.505-2.122.682-2.76-.074.09-.529.306-1.575.644-3.137-.762.349-1.385.553-1.87.612-.726.09-1.49-.205-1.346-.676.39-1.272 1.493-3.366 1.8-4.832-.92.087-1.596-.374-1.567-.914 4.285-5.998 7.063-8.125 12.814-11.619 1.67-1.68 4.086-3.863 7.248-6.546L29.85 8.65z"/>
        <linearGradient id="n" x1="104.216%" x2="8.122%" y1="20.643%" y2="79.938%">
            <stop offset="0%" stop-color="#FCCBCB"/>
            <stop offset="100%" stop-color="#E77575"/>
        </linearGradient>
        <linearGradient id="p" x1="50%" x2="50%" y1="100%" y2="0%">
            <stop offset="0%" stop-color="#E5EDFF"/>
            <stop offset="100%" stop-color="#FFF"/>
        </linearGradient>
        <path id="o" d="M79.194 1.1c-3.305 0-16.417 25.813-39.336 77.44L1.047 118.91c2.53-.907 5.003-.465 7.418 1.326 2.416 1.791 4.315 3.805 5.698 6.042 23.371-19.79 36.916-31.39 40.633-34.804 5.576-5.12 31.093-58.873 31.093-68.939C85.89 12.47 84.152 1.1 79.194 1.1z"/>
        <linearGradient id="s" x1="50%" x2="60.306%" y1="7.446%" y2="91.806%">
            <stop offset="0%" stop-color="#3ED380"/>
            <stop offset="100%" stop-color="#0F9F4D"/>
        </linearGradient>
        <path id="r" d="M51.313 10.92c10.51 7.353 28.794 22.094 31.984 27.236 3.19 5.142-5.245 26.951-11.42 36.76-6.176 9.81-4.933 38.553-2.553 46.528.647 2.17-6.7 1.507-10.896 3.008-6.232 2.227-3.372 15.447-12.32 13.444-7.17-1.604-8.612 1.667-14.571 0-23.473-6.565-23.865-8.56-28.84-13.446-4.975-4.887-.914-23.473 1.65-31.92 1.71-5.63 2.565-12.711 2.565-21.242-.065-22.986.57-37.048 1.902-42.184 2-7.706-.303-25.52 3.518-27.55 3.821-2.031 28.471 2.011 38.981 9.365z"/>
        <linearGradient id="t" x1="48.209%" x2="52.495%" y1="105.911%" y2="33.418%">
            <stop offset="0%" stop-color="#1B4A7A"/>
            <stop offset="100%" stop-color="#0041AE"/>
        </linearGradient>
        <linearGradient id="v" x1="24.618%" x2="67.844%" y1="84.225%" y2="39.165%">
            <stop offset="0%" stop-color="#006EDB" stop-opacity="0"/>
            <stop offset="100%" stop-color="#007D79"/>
        </linearGradient>
        <linearGradient id="w" x1="41.168%" x2="47.857%" y1="33.608%" y2="48.138%">
            <stop offset="0%" stop-color="#F3A6A6"/>
            <stop offset="100%" stop-color="#FCCBCB"/>
        </linearGradient>
        <linearGradient id="y" x1="50%" x2="50%" y1="100%" y2="0%">
            <stop offset="0%" stop-color="#E5EDFF"/>
            <stop offset="100%" stop-color="#FFF"/>
        </linearGradient>
        <path id="x" d="M36.441.522c1.645 3.812-12.586 29.952-17.255 45.414-4.67 15.461-8.42 42.646-10.824 58.216-.838 5.427-3.36 13.778-7.567 25.055 36.512 9.643 54.76 11.537 54.743 5.684-5.763-5.275-3.346-28.109-4.543-39.27-1.198-11.162-.215-32.8 9.802-51.077 3.144-11.887 4.93-18.106 5.36-18.658C61.482 19.613 51.576 11.16 36.44.522z"/>
        <linearGradient id="A" x1="51.509%" x2="51.509%" y1="0%" y2="91.221%">
            <stop offset="0%" stop-color="#ABBEE7"/>
            <stop offset="100%" stop-color="#A5B6DC" stop-opacity="0"/>
        </linearGradient>
        <linearGradient id="B" x1="50%" x2="50%" y1="100%" y2="0%">
            <stop offset="0%" stop-color="#E5EDFF"/>
            <stop offset="100%" stop-color="#FFF"/>
        </linearGradient>
        <linearGradient id="C" x1="50%" x2="50%" y1="100%" y2="0%">
            <stop offset="0%" stop-color="#E5EDFF"/>
            <stop offset="100%" stop-color="#FFF"/>
        </linearGradient>
        <linearGradient id="D" x1="50%" x2="50%" y1="100%" y2="0%">
            <stop offset="0%" stop-color="#E5EDFF"/>
            <stop offset="100%" stop-color="#FFF"/>
        </linearGradient>
        <linearGradient id="E" x1="50%" x2="50%" y1="100%" y2="0%">
            <stop offset="0%" stop-color="#E5EDFF"/>
            <stop offset="100%" stop-color="#FFF"/>
        </linearGradient>
        <path id="F" d="M26.39 1.587a139.052 139.052 0 0 1-2.51 12.027c-1.053 4.153-1.412 7.66-1.078 10.524-1.448 4.59-5.09 7.579-10.926 8.964-5.836 1.386-9.522-.02-11.058-4.216l3.041-16.1 22.53-11.2z"/>
        <linearGradient id="G" x1="104.216%" x2="8.122%" y1="-.184%" y2="101.177%">
            <stop offset="0%" stop-color="#FCCBCB"/>
            <stop offset="100%" stop-color="#E77575"/>
        </linearGradient>
        <linearGradient id="I" x1="131.935%" x2="50%" y1="156.006%" y2="0%">
            <stop offset="0%" stop-color="#E5EDFF"/>
            <stop offset="100%" stop-color="#FFF"/>
        </linearGradient>
        <linearGradient id="J" x1="32.761%" x2="57.647%" y1="-17.014%" y2="97.884%">
            <stop offset="0%" stop-color="#FCFCFD"/>
            <stop offset="100%" stop-color="#61BA32"/>
        </linearGradient>
        <linearGradient id="K" x1="59.387%" x2="59.387%" y1="15.643%" y2="97.935%">
            <stop offset="0%" stop-color="#FFF"/>
            <stop offset="100%" stop-color="#F7F9FF" stop-opacity="0"/>
        </linearGradient>
        <linearGradient id="L" x1="81.554%" x2="81.554%" y1="32.571%" y2="98.172%">
            <stop offset="0%" stop-color="#E0E9FF"/>
            <stop offset="100%" stop-color="#E9EFFF"/>
        </linearGradient>
        <linearGradient id="M" x1="50%" x2="77.784%" y1="34.635%" y2="65.095%">
            <stop offset="0%" stop-color="#3ED380"/>
            <stop offset="100%" stop-color="#0F9F4D"/>
        </linearGradient>
        <linearGradient id="N" x1="50%" x2="26.823%" y1="34.635%" y2="194.295%">
            <stop offset="0%" stop-color="#5C9527"/>
            <stop offset="29.108%" stop-color="#69BD2F"/>
            <stop offset="100%" stop-color="#0F9F4D"/>
        </linearGradient>
        <linearGradient id="P" x1="50%" x2="50%" y1="100%" y2="0%">
            <stop offset="0%" stop-color="#E5EDFF"/>
            <stop offset="100%" stop-color="#FFF"/>
        </linearGradient>
        <path id="O" d="M53.311 2.698c4.943-3.222 8.324-2.374 12.1 4.67 3.776 7.042 7.409 52.208 7.409 60.267 0 5.107-2.193 12.497-9.604 15.644C43.892 91.484 5.79 49.453 1.51 44.964c-2.854-2.992.616-7.926 10.41-14.803l39.768 32.85c-3.247-26.906-4.87-42.316-4.87-46.23 0-5.87 1.55-10.861 6.493-14.083z"/>
        <linearGradient id="Q" x1="51.509%" x2="51.509%" y1="0%" y2="91.221%">
            <stop offset="0%" stop-color="#ABBEE7"/>
            <stop offset="100%" stop-color="#A5B6DC" stop-opacity="0"/>
        </linearGradient>
        <path id="S" d="M3.612 12.552C2.67 15.672 1.933 21.428 1.4 29.82c-.8 12.588-.906 21.417 0 23.466.905 2.05 8.145 5.087 15.424 2.777 7.278-2.311 11.155-5.662 12.67-8.447 1.514-2.784 3.354-7.065 6.019-12.752 2.665-5.686 9.25-14.323 7.628-21.476C41.52 6.236 34.674-.583 23.002.413c-7.78.663-14.244 4.71-19.39 12.14z"/>
        <path id="U" d="M27.91 19.784C22.4 22.41 16.747 23.44 10.952 22.87c-8.692-.855-12.01-4.915-10.351-10.59C2.262 6.606 10.565-.316 24.867.1c9.535.278 15.091 4.09 16.669 11.438 2.71.501 4.123 2.271 4.24 5.309.177 4.557-5.3 18.69-8.151 21.525-1.901 1.89-2.936 2.973-3.104 3.249l-5.027-.414c.558-1.956 1.063-4.217 1.515-6.783.678-3.848.27-6.298-1.515-6.48-1.784-.183-3.607-3.508-3.01-5.581.4-1.383.874-2.242 1.425-2.578z"/>
        <linearGradient id="V" x1="46.632%" x2="29.544%" y1="-22.237%" y2="80.943%">
            <stop offset="0%" stop-color="#0C3564"/>
            <stop offset="100%" stop-color="#BFA5B1"/>
        </linearGradient>
        <linearGradient id="X" x1="43.819%" x2="79.078%" y1="12.238%" y2="0%">
            <stop offset="0%" stop-color="#FCCBCB"/>
            <stop offset="100%" stop-color="#E77575"/>
        </linearGradient>
        <linearGradient id="Y" x1="34.218%" x2="116.96%" y1="63.91%" y2="51.501%">
            <stop offset="0%" stop-color="#6D7FE7"/>
            <stop offset="100%" stop-color="#7E9EEF"/>
        </linearGradient>
        <linearGradient id="Z" x1="34.218%" x2="116.96%" y1="66.87%" y2="51.821%">
            <stop offset="0%" stop-color="#6D7FE7"/>
            <stop offset="100%" stop-color="#7E9EEF"/>
        </linearGradient>
        <linearGradient id="aa" x1="44.847%" x2="71.865%" y1="80.156%" y2="53.255%">
            <stop offset="0%" stop-color="#6D7FE7"/>
            <stop offset="100%" stop-color="#7E9EEF"/>
        </linearGradient>
        <linearGradient id="ab" x1="103.36%" x2="40.441%" y1="40.287%" y2="57.152%">
            <stop offset="0%" stop-color="#364D83" stop-opacity=".602"/>
            <stop offset="100%" stop-color="#B2C4FF"/>
        </linearGradient>
        <filter id="ac" width="105%" height="108.6%" x="-2.5%" y="-4.3%" filterUnits="objectBoundingBox">
            <feGaussianBlur in="SourceGraphic" stdDeviation="3"/>
        </filter>
        <linearGradient id="ad" x1="42.163%" x2="59.334%" y1="79.929%" y2="5.51%">
            <stop offset="0%" stop-color="#6E72CC"/>
            <stop offset="100%" stop-color="#7E9EEF"/>
        </linearGradient>
        <linearGradient id="ae" x1="54.313%" x2="52.32%" y1="15.694%" y2="120.645%">
            <stop offset="0%" stop-color="#3C44A0"/>
            <stop offset="100%" stop-color="#7077D0"/>
        </linearGradient>
        <linearGradient id="ag" x1="37.562%" x2="64.814%" y1="79.929%" y2="5.51%">
            <stop offset="0%" stop-color="#6E72CC"/>
            <stop offset="100%" stop-color="#7E9EEF"/>
        </linearGradient>
        <path id="af" d="M40.5 0c33.566 15.824 51.246 28.565 53.041 38.22 2.693 14.485 2.693 91.263 2.693 101.19 0 9.927-4.045 27.864-34.221 35.863C41.895 180.606 21.224 171.96 0 149.337L40.5 0z"/>
        <linearGradient id="ah" x1="37.562%" x2="64.814%" y1="79.929%" y2="5.51%">
            <stop offset="0%" stop-color="#6E72CC"/>
            <stop offset="100%" stop-color="#5D85E8"/>
        </linearGradient>
        <path id="aj" d="M16.65 27.758c0 1.572-1.483 3.108-4.384 3.822-2.901.713-7.111.182-8.573-1.569-.975-1.167-2.17-1.738-3.588-1.713L2.128.474l17.84.52C17.757 17.789 16.65 26.71 16.65 27.758z"/>
        <linearGradient id="ak" x1="104.216%" x2="8.122%" y1="34.279%" y2="66.032%">
            <stop offset="0%" stop-color="#FCCBCB"/>
            <stop offset="100%" stop-color="#E77575"/>
        </linearGradient>
        <path id="am" d="M119.532 0c2.991 32.715-2.612 52.57-16.808 59.566-14.197 6.995-27.985 18.715-41.365 35.16l-41.434 74.602c-4.341 1.548-8.607 1.548-12.796 0C2.94 167.779.564 165.165 0 161.485l34.314-90.651L83.858 6.767 119.532 0z"/>
        <linearGradient id="ap" x1="50%" x2="50%" y1="0%" y2="100%">
            <stop offset="0%" stop-color="#D9E4EE"/>
            <stop offset="100%" stop-color="#B1C5D8"/>
        </linearGradient>
        <path id="ao" d="M0 33.44l11.396 6.49c3.876-6.02 11.519-12.15 22.928-18.393 9.27-5.071 17.149-9.61 23.637-13.615A9 9 0 0 0 62.234.264V0L8.915 24.12 0 33.44z"/>
        <linearGradient id="as" x1="8.019%" y1="59.305%" y2="36.168%">
            <stop offset="0%" stop-color="#6E72CC"/>
            <stop offset="100%" stop-color="#7E9EEF"/>
        </linearGradient>
        <path id="ar" d="M0 31.934c0 5.463 6.378 6.65 15.114 4.434 8.735-2.217 44.225-23.434 50.048-27.434C70.986 4.934 62.611 0 55.377 0S0 26.471 0 31.934z"/>
        <linearGradient id="at" x1="8.019%" y1="56.301%" y2="40.633%">
            <stop offset="0%" stop-color="#6E72CC"/>
            <stop offset="100%" stop-color="#5D85E8"/>
        </linearGradient>
        <path id="av" d="M16.544 23.687c0 1.572-1.483 3.109-4.384 3.822-2.9.714-7.11.182-8.573-1.568-.975-1.167-2.17-1.738-3.587-1.713L1.622 0l17.84.52c-1.945 14.397-2.918 22.12-2.918 23.167z"/>
        <linearGradient id="aw" x1="104.216%" x2="8.122%" y1="-2.058%" y2="103.089%">
            <stop offset="0%" stop-color="#FCCBCB"/>
            <stop offset="100%" stop-color="#E77575"/>
        </linearGradient>
        <path id="ay" d="M128.134 13.143c2.766 27.587-2.949 44.878-17.145 51.873-14.197 6.995-29.72 19.778-46.568 38.348l4.964 85.017c-6.032 2.87-10.987 4.058-14.865 3.563-3.878-.494-6.431-2.485-7.658-5.972L32.22 89.03l39.722-51.614 8.776-25.526 47.416 1.252z"/>
        <linearGradient id="aB" x1="50%" x2="58.386%" y1="7.446%" y2="91.806%">
            <stop offset="0%" stop-color="#3ED380"/>
            <stop offset="100%" stop-color="#0F9F4D"/>
        </linearGradient>
        <path id="aA" d="M36.755.36c-2.93.852-10.991 20.576-24.187 59.17L.667 72.575C3.076 86.94 6.715 91.902 11.585 87.458c9.03-8.24 13.035-14.041 14.957-15.809 5.216-4.797 22.92-46.425 22.92-55.856 0-9.43-8.314-16.713-12.707-15.434z"/>
        <linearGradient id="aC" x1="45.588%" x2="48.712%" y1="83.478%" y2="8.312%">
            <stop offset="0%" stop-color="#056461" stop-opacity="0"/>
            <stop offset="100%" stop-color="#144269"/>
        </linearGradient>
        <linearGradient id="aF" x1="50%" x2="64.454%" y1="7.446%" y2="91.806%">
            <stop offset="0%" stop-color="#3ED380"/>
            <stop offset="100%" stop-color="#0F9F4D"/>
        </linearGradient>
        <path id="aE" d="M50.574 6.204c9.831 6.89 26.936 20.7 29.92 25.518 2.984 4.817-.257 18.07-10.684 34.44-10.427 16.372-.27 29.54 1.955 37.012.606 2.034-23.261 15.066-43.779 8.198-7.36-2.464-16.548-9.02-16.4-11.08.517-7.152 1.924-14.041-1.215-25.938C8.86 68.627 1.118 60.331.239 53.17c-1.202-9.786 4.226-17.99 4.245-26.764.018-8.774.764-22.948 4.339-24.85 3.574-1.903 31.92-2.242 41.751 4.648z"/>
        <linearGradient id="aG" x1="43.303%" x2="59.327%" y1="105.911%" y2="33.418%">
            <stop offset="0%" stop-color="#1B4A7A"/>
            <stop offset="100%" stop-color="#0041AE"/>
        </linearGradient>
        <linearGradient id="aI" x1="45.584%" x2="56.15%" y1="105.911%" y2="33.418%">
            <stop offset="0%" stop-color="#1B4A7A"/>
            <stop offset="100%" stop-color="#0041AE"/>
        </linearGradient>
        <linearGradient id="aJ" x1="40.918%" x2="47.349%" y1="83.478%" y2="8.312%">
            <stop offset="0%" stop-color="#056461" stop-opacity="0"/>
            <stop offset="100%" stop-color="#144269"/>
        </linearGradient>
        <linearGradient id="aL" x1="50%" x2="61.989%" y1="7.446%" y2="91.806%">
            <stop offset="0%" stop-color="#FAFCFF"/>
            <stop offset="100%" stop-color="#EEF5FF"/>
        </linearGradient>
        <path id="aK" d="M30.488 5.268c.517 9.707-2.195 17.246-8.135 22.618-8.91 8.058-11.78 12.544-13.191 12.09-1.412-.455-3.473-18.459-4.27-24.96-.797-6.501 3.466-13.42 9.23-14.129 3.841-.472 9.297.988 16.366 4.381z"/>
        <linearGradient id="aN" x1="104.216%" x2="8.122%" y1="-2.968%" y2="104.016%">
            <stop offset="0%" stop-color="#FCCBCB"/>
            <stop offset="100%" stop-color="#E77575"/>
        </linearGradient>
        <path id="aO" d="M21.771.403c-.764 6.044-.856 10.4-.275 13.071.581 2.671 1.744 4.774 3.488 6.309-1.821 3.46-3.321 5.741-4.5 6.844-4.483 4.195-9.434 5.577-12.653 6.28C1.098 34.374.377 24.832.503 21.343c2.555-.739 3.613-4.168 3.173-10.288L21.771.403z"/>
        <linearGradient id="aP" x1="99.337%" x2="11.891%" y1="-8.65%" y2="109.811%">
            <stop offset="0%" stop-color="#FCCBCB"/>
            <stop offset="100%" stop-color="#E77575"/>
        </linearGradient>
        <linearGradient id="aR" x1="104.216%" x2="8.122%" y1="32.716%" y2="67.626%">
            <stop offset="0%" stop-color="#FCCBCB"/>
            <stop offset="100%" stop-color="#E77575"/>
        </linearGradient>
        <linearGradient id="aS" x1="45.529%" x2="62.69%" y1="46.174%" y2="39.656%">
            <stop offset="0%" stop-color="#FAFCFF"/>
            <stop offset="100%" stop-color="#C7D5EF"/>
        </linearGradient>
        <linearGradient id="aT" x1="50%" x2="60.613%" y1="7.446%" y2="91.806%">
            <stop offset="0%" stop-color="#FAFCFF"/>
            <stop offset="100%" stop-color="#EEF5FF"/>
        </linearGradient>
        <linearGradient id="aU" x1="50%" x2="51.508%" y1="7.446%" y2="91.806%">
            <stop offset="0%" stop-color="#FAFCFF"/>
            <stop offset="100%" stop-color="#EEF5FF"/>
        </linearGradient>
        <path id="aV" d="M2.283 11.567c-.855 2.875-1.525 8.18-2.01 15.912-.256 4.088.087 9.258 0 12.364-.16 5.706 1.885 8.852 2.886 9.376 3.882 2.034 7.255.807 13.872-1.322 6.618-2.13 8.195-4.643 9.572-7.209 1.377-2.565 2.26-3.32 4.683-8.56 2.422-5.241 8.41-13.2 6.935-19.79C36.746 5.745 30.522-.538 19.911.38 12.839.992 6.962 4.72 2.284 11.567z"/>
        <path id="aX" d="M.195 8.678C3.177 3.968 6.385 1.21 9.82.407c5.154-1.205 12.47 1.924 13.658 11.396.792 6.315-3.436 9.906-12.684 10.773L.195 8.678z"/>
        <path id="aZ" d="M9.958 21.073c-7.902-.787-10.92-4.529-9.41-9.757C2.055 6.086 9.604-.292 22.607.09 35.608.475 42 4.038 41.615 15.523c-.384 11.486-10.317 28.824-6.694 14.793-2.592 2.613-4.991 1.014-6.024 0-2.17-2.131-2.671-8.948-5.346-9.9-3.122-1.113-9.338 1.082-13.594.657z"/>
        <path id="bb" d="M.195 8.678C3.177 3.968 6.385 1.21 9.82.407c5.154-1.205 12.47 1.924 13.658 11.396.792 6.315-3.436 9.906-12.684 10.773L.195 8.678z"/>
        <linearGradient id="bd" x1="43.984%" x2="78.302%" y1="12.238%" y2="0%">
            <stop offset="0%" stop-color="#FCCBCB"/>
            <stop offset="100%" stop-color="#E77575"/>
        </linearGradient>
        <linearGradient id="be" x1="40.927%" x2="60.04%" y1="24.202%" y2="120.645%">
            <stop offset="0%" stop-color="#5244BB"/>
            <stop offset="100%" stop-color="#19197F"/>
        </linearGradient>
        <linearGradient id="bf" x1="8.019%" y1="79.909%" y2="5.541%">
            <stop offset="0%" stop-color="#6E72CC"/>
            <stop offset="100%" stop-color="#7E9EEF"/>
        </linearGradient>
        <path id="bg" d="M0 33.44l11.396 6.49c3.876-6.02 11.519-12.15 22.928-18.393 9.27-5.071 17.149-9.61 23.637-13.615A9 9 0 0 0 62.234.264V0L8.915 24.12 0 33.44z"/>
        <path id="bi" d="M0 31.934c0 5.463 6.378 6.65 15.114 4.434 8.735-2.217 44.225-23.434 50.048-27.434C70.986 4.934 62.611 0 55.377 0S0 26.471 0 31.934z"/>
        <linearGradient id="bl" x1="49.276%" x2="50.863%" y1="79.929%" y2="5.51%">
            <stop offset="0%" stop-color="#6E72CC"/>
            <stop offset="100%" stop-color="#7E9EEF"/>
        </linearGradient>
        <path id="bk" d="M0 1.73l2.72 142.437c0 2.363 1.748 3.544 5.245 3.544 3.496 0 5.129-1.181 4.897-3.544L19.403 0 0 1.73z"/>
        <linearGradient id="bm" x1="49.276%" x2="50.863%" y1="79.929%" y2="5.51%">
            <stop offset="0%" stop-color="#CED0FF"/>
            <stop offset="100%" stop-color="#FFF"/>
        </linearGradient>
        <path id="bo" d="M0 4.775L27.24.52l1.356 1.851L3.373 13.103z"/>
        <linearGradient id="bp" x1="8.019%" y1="52.132%" y2="46.831%">
            <stop offset="0%" stop-color="#CED0FF"/>
            <stop offset="100%" stop-color="#FFF"/>
        </linearGradient>
        <path id="br" d="M6.446 11.992c2.576-1.147 3.344-3.42 1.703-7.104-1.64-3.685-3.19-4.857-5.56-3.802C.22 2.141-.014 4.631 1 7.5c1.015 2.869 2.87 5.639 5.446 4.492z"/>
        <path id="bt" d="M34.567.207H.471L0 2.137l33.714 7.537z"/>
        <linearGradient id="bu" x1="8.019%" y1="50.141%" y2="49.79%">
            <stop offset="0%" stop-color="#CED0FF"/>
            <stop offset="100%" stop-color="#FFF"/>
        </linearGradient>
        <linearGradient id="bw" x1="8.019%" y1="57.936%" y2="38.203%">
            <stop offset="0%" stop-color="#6E72CC"/>
            <stop offset="100%" stop-color="#7E9EEF"/>
        </linearGradient>
        <path id="bx" d="M0 8.328l12.988 36.82 2.92-.655L12.26 8.328 12.081 0c-.614 1.838-2.588 2.757-5.921 2.757C2.826 2.757.773 1.837 0 0v8.328z"/>
        <linearGradient id="by" x1="44.969%" x2="55.992%" y1="79.929%" y2="5.51%">
            <stop offset="0%" stop-color="#CED0FF"/>
            <stop offset="100%" stop-color="#FFF"/>
        </linearGradient>
        <linearGradient id="bA" x1="51.234%" x2="50.663%" y1="15.694%" y2="120.645%">
            <stop offset="0%" stop-color="#3C44A0"/>
            <stop offset="100%" stop-color="#7077D0"/>
        </linearGradient>
        <linearGradient id="bB" x1="49.12%" x2="51.048%" y1="79.929%" y2="5.51%">
            <stop offset="0%" stop-color="#6E72CC"/>
            <stop offset="100%" stop-color="#7E9EEF"/>
        </linearGradient>
        <linearGradient id="bD" x1="50%" x2="81.904%" y1="47.668%" y2="67.375%">
            <stop offset="0%" stop-color="#D5E3FF"/>
            <stop offset="100%" stop-color="#B8CDFF"/>
        </linearGradient>
        <path id="bC" d="M30 0l232 134v9l-109.305 64.5L0 26z"/>
        <linearGradient id="bF" x1="81.554%" x2="81.554%" y1="32.571%" y2="98.172%">
            <stop offset="0%" stop-color="#E0E9FF"/>
            <stop offset="100%" stop-color="#E9EFFF"/>
        </linearGradient>
        <linearGradient id="bH" x1="15.179%" x2="102.463%" y1="50%" y2="34.94%">
            <stop offset="0%" stop-color="#FCFCFD"/>
            <stop offset="100%" stop-color="#E4ECFF"/>
        </linearGradient>
        <path id="bG" d="M110 0l232 134-109.305 64.5-232-134z"/>
        <linearGradient id="bK" x1="50%" x2="81.904%" y1="49.426%" y2="54.275%">
            <stop offset="0%" stop-color="#D5E3FF"/>
            <stop offset="100%" stop-color="#B8CDFF"/>
        </linearGradient>
        <ellipse id="bJ" cx="16" cy="11.5" rx="14" ry="5.5"/>
        <linearGradient id="bN" x1="8.019%" y1="54.619%" y2="43.134%">
            <stop offset="0%" stop-color="#6E72CC"/>
            <stop offset="100%" stop-color="#7E9EEF"/>
        </linearGradient>
        <ellipse id="bM" cx="16" cy="11.5" rx="14" ry="5.5"/>
        <linearGradient id="bO" x1="57.501%" x2="54.034%" y1="15.694%" y2="120.645%">
            <stop offset="0%" stop-color="#3C44A0"/>
            <stop offset="100%" stop-color="#7077D0"/>
        </linearGradient>
        <linearGradient id="bQ" x1="8.019%" y1="54.822%" y2="42.832%">
            <stop offset="0%" stop-color="#CED0FF"/>
            <stop offset="100%" stop-color="#FFF"/>
        </linearGradient>
        <linearGradient id="bR" x1="23.684%" x2="46.031%" y1="170.285%" y2="8.312%">
            <stop offset="0%" stop-color="#056461" stop-opacity="0"/>
            <stop offset="100%" stop-color="#144269"/>
        </linearGradient>
        <linearGradient id="bT" x1="50%" x2="69.518%" y1="7.446%" y2="91.806%">
            <stop offset="0%" stop-color="#3ED380"/>
            <stop offset="100%" stop-color="#0F9F4D"/>
        </linearGradient>
        <path id="bS" d="M50.205 2.74C55.23-.532 58.668.329 62.507 7.48c3.84 7.153 7.533 53.02 7.533 61.204 0 2.269-2.425 11.088-9.96 14.284C46.98 88.524 26.955 78.77 0 53.71c3.19.192 5.282-1.883 6.277-6.225.994-4.342.464-8.46-1.592-12.354l43.938 27.811c-3.347-26.626-5.02-41.926-5.02-45.9 0-5.962 1.576-11.03 6.602-14.302z"/>
        <linearGradient id="bU" x1="20.444%" x2="41.373%" y1="69.921%" y2="25.194%">
            <stop offset="0%" stop-color="#056461" stop-opacity="0"/>
            <stop offset="100%" stop-color="#144269"/>
        </linearGradient>
        <linearGradient id="bX" x1="29.631%" x2="74.259%" y1="79.929%" y2="5.51%">
            <stop offset="0%" stop-color="#6E72CC"/>
            <stop offset="100%" stop-color="#7E9EEF"/>
        </linearGradient>
        <path id="bW" d="M2.998 1.725l94.995 54.676A6 6 0 0 1 101 61.6v79.882a2 2 0 0 1-3.023 1.718L2.932 86.643A6 6 0 0 1 0 81.487V3.459a2 2 0 0 1 2.998-1.734z"/>
        <linearGradient id="bY" x1="29.678%" x2="74.203%" y1="79.929%" y2="5.51%">
            <stop offset="0%" stop-color="#6E72CC"/>
            <stop offset="100%" stop-color="#5D85E8"/>
        </linearGradient>
        <linearGradient id="ca" x1="8.019%" y1="57.291%" y2="39.162%">
            <stop offset="0%" stop-color="#6E72CC"/>
            <stop offset="100%" stop-color="#7E9EEF"/>
        </linearGradient>
        <linearGradient id="cb" x1="33.852%" x2="69.233%" y1="79.929%" y2="5.51%">
            <stop offset="0%" stop-color="#6E72CC"/>
            <stop offset="100%" stop-color="#7E9EEF"/>
        </linearGradient>
        <linearGradient id="cc" x1="8.019%" y1="78.425%" y2="7.746%">
            <stop offset="0%" stop-color="#6E72CC"/>
            <stop offset="100%" stop-color="#7E9EEF"/>
        </linearGradient>
        <linearGradient id="cd" x1="9.609%" x2="98.106%" y1="79.929%" y2="5.51%">
            <stop offset="0%" stop-color="#6E72CC"/>
            <stop offset="100%" stop-color="#7E9EEF"/>
        </linearGradient>
    </defs>
    <g fill="none" fill-rule="evenodd">
        <path fill="#F2F5FE" d="M690.54 309.416c115.624 71.364 108.827 187.233-15.183 258.8-124.01 71.568-318.271 71.733-433.896.368-115.625-71.364-108.828-187.233 15.182-258.8 124.01-71.568 318.271-71.733 433.896-.368z"/>
        <path fill="url(#a)" d="M227.679 387.913c49.526 30.613 46.615 80.316-6.503 111.016-53.118 30.7-136.328 30.77-185.855.158-49.526-30.613-46.615-80.316 6.503-111.016 53.118-30.7 136.328-30.77 185.855-.158z" opacity=".8" transform="translate(0 -5)"/>
        <path fill="#B59272" d="M285 374.043c0 2.408 3.277 8.087 17.254 4.47 8.853-2.29 18.321-7.855 28.405-16.697 1.063-.931 1.595-1.747 1.595-2.447v-3.533c-21.416 2.223-34.675 4.798-39.777 7.724-4.009 2.3-7.477 3.751-7.477 5.924v4.56z"/>
        <path fill="#471E0D" d="M285 369.484c0 2.407 3.277 8.086 17.254 4.47 9.318-2.41 19.318-8.45 30-18.118l-.45-1.225v-7.525c0-1.161-1.927-3.475-4.207-3.475s-6.553 2.921-10.308 3.475c-3.756.554-6.255-1.8-9.38 0-3.124 1.8-7.778 7.525-15.432 11.915-7.654 4.39-7.477 8.075-7.477 10.483z"/>
        <path fill="#884E36" d="M302.427 372.826c9.874-2.555 19.666-8.626 29.376-18.215v-7.525c0-1.161-1.926-3.475-4.206-3.475-2.28 0-6.553 2.921-10.308 3.475-3.756.554-6.255-1.8-9.38 0-3.124 1.8-7.778 7.525-15.432 11.915-6.208 3.56-7.264 6.657-7.442 8.985-.14 1.844 2.58 8.672 17.392 4.84z"/>
        <path stroke="#471E0D" stroke-linecap="round" stroke-linejoin="round" stroke-width="1.1" d="M311.25 348.777c-3.83 4.663-7.977 8.51-12.44 11.541"/>
        <g transform="translate(310.057 318.33)">
            <mask id="d" fill="#fff">
                <use xlink:href="#b"/>
            </mask>
            <use fill="#FCCBCB" xlink:href="#b"/>
            <path fill="url(#c)" d="M24.447 22.036c-9.533 4.541-18.229 3.571-26.087-2.91-7.858-6.482-4.919-14.09 8.817-22.827l17.27 25.737z" mask="url(#d)"/>
        </g>
        <path stroke="#B59272" stroke-linecap="round" stroke-linejoin="round" stroke-width="1.1" d="M297.695 351c2.107 1.205 7.221 1.43 9.459-.43 1.492-1.241 2.806-1.919 3.944-2.033a20.44 20.44 0 0 1 8.461-1.827c2.059 0 4.563 1.601 4.111 4.623-.44 2.943-3.84 4.66-5.885 2.943-3.848-3.23-3.848-4.99-7.089-5.477-3.24-.486-5.154 1.601-8.74.34-3.587-1.26-4.518-6.27-2.26-8.28 2.26-2.011 6.986-1.233 8.993 2.993 2.007 4.227 3.376 5.15 3.376 7.148 0 1.997-2.451 8.916 2.882 9.883"/>
        <g transform="translate(309 133)">
            <mask id="f" fill="#fff">
                <use xlink:href="#e"/>
            </mask>
            <use fill="#103A86" xlink:href="#e"/>
            <path fill="#083263" d="M95.74 77.462l-27.709-30.5c-26.369.233-45.34-7.308-56.91-22.622C-.452 9.025 6.372-1.405 31.592-6.95l104.584 30.043-40.438 54.37z" mask="url(#f)"/>
            <path fill="#083263" d="M40.715 94.807c-2.605-24.54-1.74-47.3 2.598-68.274C47.65 5.557 55.889 11.51 68.03 44.39L40.715 94.807z" mask="url(#f)"/>
        </g>
        <g>
            <path fill="#B59272" d="M363.623 399.211c.582 2.336 5.136 7.054 17.822.164 8.036-4.364 15.877-12.055 23.522-23.073.806-1.162 1.125-2.082.956-2.76l-.855-3.429c-20.242 7.338-32.484 13.044-36.727 17.118-3.333 3.2-6.347 5.448-5.821 7.556l1.103 4.424z"/>
            <path fill="#471E0D" d="M362.52 394.787c.582 2.336 5.136 7.054 17.822.164 8.458-4.594 16.7-12.873 24.726-24.838l-.734-1.08-1.82-7.301c-.281-1.127-2.71-2.906-4.922-2.354-2.212.551-5.651 4.42-9.162 5.865-3.51 1.446-6.504-.233-9.1 2.27-2.597 2.502-5.728 9.183-12.092 15.294-6.364 6.11-5.3 9.644-4.718 11.98z"/>
            <path fill="#884E36" d="M380.237 393.814c8.963-4.867 16.995-13.127 24.097-24.78l-1.82-7.302c-.281-1.127-2.71-2.906-4.922-2.354-2.212.551-5.651 4.42-9.162 5.865-3.51 1.446-6.504-.233-9.1 2.27-2.597 2.502-5.728 9.183-12.092 15.294-5.162 4.956-5.438 8.217-5.047 10.519.31 1.822 4.602 7.79 18.046.488z"/>
            <path stroke="#471E0D" stroke-linecap="round" stroke-linejoin="round" stroke-width="1.1" d="M382.98 368.345c-2.588 5.451-5.68 10.187-9.278 14.208"/>
            <g transform="rotate(-14 1568.068 -1355.307)">
                <mask id="h" fill="#fff">
                    <use xlink:href="#g"/>
                </mask>
                <use fill="#FCCBCB" xlink:href="#g"/>
                <path fill="url(#c)" d="M24.447 22.036c-9.533 4.541-18.229 3.571-26.087-2.91-7.858-6.482-4.919-14.09 8.817-22.827l17.27 25.737z" mask="url(#h)"/>
            </g>
            <path stroke="#B59272" stroke-linecap="round" stroke-linejoin="round" stroke-width="1.1" d="M370.366 373.78c2.335.66 7.352-.358 9.073-2.705 1.147-1.565 2.26-2.54 3.335-2.926a20.44 20.44 0 0 1 7.769-3.82c1.997-.498 4.814.45 5.107 3.491.285 2.962-2.6 5.45-4.999 4.28-4.515-2.204-4.941-3.912-8.203-3.6-3.262.313-4.614 2.8-8.399 2.445-3.785-.355-5.9-4.99-4.195-7.488s6.48-2.886 9.45.729c2.97 3.615 4.521 4.18 5.005 6.118.483 1.938-.222 9.245 5.187 8.893"/>
            <g transform="rotate(-14 813.898 -1258.338)">
                <mask id="j" fill="#fff">
                    <use xlink:href="#i"/>
                </mask>
                <use fill="#103A86" xlink:href="#i"/>
                <path fill="#083263" d="M95.74 77.462l-27.709-30.5c-26.369.233-45.34-7.308-56.91-22.622C-.452 9.025 6.372-1.405 31.592-6.95l104.584 30.043-40.438 54.37z" mask="url(#j)"/>
                <path fill="#083263" d="M40.715 94.807c-2.605-24.54-1.74-47.3 2.598-68.274C47.65 5.557 55.889 11.51 68.03 44.39L40.715 94.807z" mask="url(#j)"/>
            </g>
        </g>
        <g>
            <g transform="rotate(-6 1808.4 -2263.148)">
                <mask id="m" fill="#fff">
                    <use xlink:href="#k"/>
                </mask>
                <use fill="url(#l)" xlink:href="#k"/>
                <path fill="#DB8686" d="M7.39 26.77c1.686-3.898 2.74-6.173 3.163-6.822.423-.65 1.755-1.647 3.996-2.993-2.645 1.135-4.193 2.051-4.645 2.75-.678 1.048-3.165 7.868-5.113 8.73-1.3.575-1.434 1.272-.403 2.092l3.001-3.756zM4.208 24.578c.303-1.18 1.699-5.236 2.32-6.075.414-.56 1.759-1.675 4.033-3.347-2.63 1.644-4.153 2.753-4.572 3.325-.629.858-2.217 6.494-4.194 6.736-1.318.162-1.263.607.164 1.336 1.297-.53 2.046-1.189 2.249-1.975zM2.787 19.655c.632-1.533 1.671-3.313 2.575-4.355.603-.694 1.37-1.311 2.299-1.851-1.84.97-3.003 1.723-3.487 2.262-.725.808-1.526 3.387-2.722 3.534l-1.85.227 1.05 1.103c1.002.409 1.714.102 2.135-.92z" mask="url(#m)"/>
                <path fill="url(#n)" d="M26.488 12.498c-1.72-3.946-3.668-6.358-5.844-7.236-2.175-.878-3.906-.897-5.193-.057L21.208.542l11.142 9.26-5.862 2.696z" mask="url(#m)"/>
            </g>
            <g transform="rotate(-6 713.581 -2345.522)">
                <mask id="q" fill="#fff">
                    <use xlink:href="#o"/>
                </mask>
                <use fill="url(#p)" stroke="#CAD4EF" stroke-width=".88" xlink:href="#o"/>
                <path fill="#CAD5EF" d="M72.461 86.655c-8.577-16.113-11.343-28.244-8.3-36.394 4.567-12.225 12.46-29.744 12.46-36.217 0-4.316 5.376-2.168 16.13 6.442L72.46 86.655z" mask="url(#q)"/>
            </g>
            <g transform="rotate(-6 680.707 -2972.796)">
                <mask id="u" fill="#fff">
                    <use xlink:href="#r"/>
                </mask>
                <use fill="url(#s)" xlink:href="#r"/>
                <path fill="url(#t)" fill-opacity=".2" d="M38.794 5.049c-8.08 1.921-16.3 17.103-22.554 35.019-6.254 17.915-5.861 29.848-4.046 44.613.889 7.232 2.19 14.918 1.851 20.842-.354 6.17-1.008 11.858-2.673 14.42-2.176 3.348-7.445 7.898-15.805 13.651 7.416-7.584 11.191-14.785 11.326-21.603.203-10.227-7.92-45.35-6.476-56.842C1.86 43.656 7.768 32.98 8.97 23.81c1.201-9.17-.458-19.782 3.248-22.215 3.706-2.433 15.618.193 26.576 3.454z" mask="url(#u)"/>
                <path fill="url(#v)" fill-opacity=".2" d="M71.263 44.47c-3.44 3.843-6.082 8.807-7.925 14.893-2.764 9.128 0 23.204-11.064 25.974-11.065 2.77-20.567-5.328-26.742-6.462-4.117-.756-12.286-4.217-24.508-10.384 1.545-.927 8.351 5.415 20.419 19.025 6.682 7.537 14.378 13.43 22.225 19.723.479.384.527 1.787 1.01 2.167 3.932 3.087 14.619 10.124 32.061 21.111l24.424-63.712-29.9-22.336z" mask="url(#u)"/>
                <g fill="url(#w)" mask="url(#u)">
                    <path d="M59.163 11.376c6.27 4.467-.71 12.824-11.256 14.736-10.547 1.912-20.271 8.33-16.968-5.039 2.202-8.912 7.019-15.83 14.45-20.754 5.003 4.393 9.594 8.078 13.774 11.057z"/>
                </g>
            </g>
            <g transform="rotate(-6 799.945 -3163.11)">
                <mask id="z" fill="#fff">
                    <use xlink:href="#x"/>
                </mask>
                <use fill="url(#y)" stroke="#CAD4EF" stroke-width=".88" xlink:href="#x"/>
                <path fill="#CAD5EF" d="M53.528 26.086c-5.046 7.787-7.676 15.969-7.89 24.546-.321 12.866-.396 26.658 1.817 39.477.037.249-36.054 16.581-34.92 19.644.582 1.576-2.25 9.14 6.343 10.418 4.945.735 18.033-2.21 39.266-8.835l23.78-58.037-28.396-27.213z" mask="url(#z)"/>
                <path fill="url(#A)" d="M12.508 88.766c2.893-17.398 10.73-28.661 23.51-33.79l-5.134-15.868 9.91-2.323C39.749 23.999 39.342 15.35 39.57 10.84c.23-4.51.219-7.313-.033-8.406l-2.342-4.99c-3.344-2.578-6.284-4.117-8.82-4.62-2.535-.502-.921 1.485 4.84 5.962.963.07 1.755.484 2.375 1.244.62.76-7.344 16.934-23.892 48.521-2.354 44.208-2.084 57.613.81 40.215z" mask="url(#z)"/>
            </g>
            <path fill="url(#B)" d="M139.312 37.159c-.23 4.51.385 11.484 1.844 20.92l-10.83 4.91 4.833 13.431c-9.015 13.282-22.491 25.083-25.386 42.469 2.612-17.27 4.706-31.904 9.154-46.635 4.669-15.461 18.902-41.544 17.257-45.356-.827-2.473-2.025-4.063-3.592-4.77-.27-.597-.06-.692.634-.284 1.039.612 2.924 1.707 4.129 3.025 1.148 1.256 1.803 2.332 1.985 4.214.19 1.273.182 3.965-.028 8.076z" transform="rotate(-6 598.72 -2198.367)"/>
            <path fill="url(#C)" stroke="#CAD4EF" stroke-width=".88" d="M119.295 17.861c-8.08 1.922-18.47 16.647-23.604 34.223-5.133 17.575-4.811 30.645-2.996 45.41 1.815 14.763-5.483 26.75-8.748 31.773-2.176 3.348-1.601 5.33 1.725 5.944-5.956-1.648-8.607-5.911-7.953-12.79.98-10.317 6.51-31.026 7.953-42.519 1.444-11.492 2.597-34.109 3.799-43.279 1.201-9.17-.458-19.782 3.248-22.215 3.705-2.434 15.618.192 26.576 3.453z" transform="rotate(-6 598.72 -2198.367)"/>
            <path fill="#CAD5EF" d="M350.663 55.31c.975.168 1.95.343 2.917.524-7.836 2.755-16.629 18.486-19.897 36.502-3.268 18.016-1.582 30.98 1.766 45.474a129.816 129.816 0 0 1 1.978 10.481c-1.076 3.466-1.776 4.974-1.88 3.674-.444-5.553-4.31-18.846-11.597-39.879l6.202-19.303-2.853-3.247c10.215-19.314 18.003-30.722 23.364-34.225z"/>
            <path fill="url(#D)" stroke="#CAD4EF" stroke-width=".88" d="M116.269 16.985c1.012.285 2.023.578 3.026.876-8.08 1.922-12.736 20.603-17.87 38.179-5.133 17.576-4.733 27.343-6.755 41.17a150.529 150.529 0 0 1-2.85 14.371c-.697-7.677-3.571-23.333-8.622-46.967l8.785-13.673-2.948-7.185c12.396-15.26 21.473-24.184 27.234-26.77z" transform="rotate(-6 598.72 -2198.367)"/>
            <path fill="url(#E)" stroke="#CAD4EF" stroke-width=".88" d="M139.312 37.159c-.23 4.51.385 11.484 1.844 20.92l-10.83 4.91 4.833 13.431c-9.015 13.282-23.524 28.923-26.178 46.083 1.803-18.184 5.498-35.518 9.946-50.249 4.669-15.461 18.902-41.544 17.257-45.356-.827-2.473-2.025-4.063-3.592-4.77-.27-.597-.06-.692.634-.284 1.039.612 2.924 1.707 4.129 3.025 1.148 1.256 1.803 2.332 1.985 4.214.19 1.273.182 3.965-.028 8.076z" transform="rotate(-6 598.72 -2198.367)"/>
            <g transform="rotate(-6 555.842 -3283.22)">
                <mask id="H" fill="#fff">
                    <use xlink:href="#F"/>
                </mask>
                <use fill="#FCCBCB" xlink:href="#F"/>
                <path fill="url(#G)" d="M1.598 25.59c6.397.288 11.383-1.21 14.958-4.494 3.575-3.284 5.514-8.18 5.819-14.69L3.037 8.311l-1.439 17.28z" mask="url(#H)"/>
            </g>
            <path fill="url(#I)" stroke="#CAD4EF" stroke-width=".88" d="M160.13 78.133c.284.891.375 2.317.707 4.314.331 1.996.953 4.361 1.522 7.734l-9.212-3.982" transform="rotate(-42 271.655 -224.381)"/>
            <g>
                <path fill="#FAC2C2" d="M342.597 109.103c-2.115-3.733-6.717-10.222-7.565-11.763-.848-1.54-3.458-.023-1.845 3.961 1.075 2.657 3.696 6.645 7.862 11.964 2.441-.286 2.957-1.673 1.548-4.162z"/>
                <path fill="url(#J)" d="M.007 25.997H0V10.31C0 5.844 1.01 2.48 3.032.212h14.934c1.874 2.267 2.81 5.632 2.81 10.097v15.688h-.006c-.195 3.362-4.768 6.051-10.382 6.051-5.613 0-10.186-2.689-10.381-6.05z" transform="scale(-1 1) rotate(12 -605.163 -1541.756)"/>
                <path fill="url(#K)" d="M5.709.212h4.133V32.04c-2.032-.064-3.91-.48-5.468-1.15V9.374c0-3.032.445-6.086 1.335-9.162z" transform="scale(-1 1) rotate(12 -605.163 -1541.756)"/>
                <g>
                    <g transform="scale(-1 1) rotate(12 -577.814 -1524.297)">
                        <path fill="url(#L)" d="M.005 6.28H0V4.433h.56C1.68 2.825 4.35 1.692 7.465 1.692c3.116 0 5.786 1.133 6.904 2.742h.56V6.28h-.004c-.14 2.373-3.426 4.271-7.46 4.271-4.033 0-7.319-1.898-7.46-4.27z"/>
                        <ellipse cx="7.464" cy="4.434" fill="#D8D8D8" stroke="#979797" stroke-width=".8" rx="7.464" ry="4.434"/>
                    </g>
                    <path fill="url(#M)" d="M.005 8.309H0V5.007h1.82c1.526-1.148 3.876-1.884 6.512-1.884 2.636 0 4.986.736 6.513 1.884h1.82v3.302h-.006c-.156 2.682-3.824 4.828-8.327 4.828-4.502 0-8.17-2.146-8.327-4.828z" transform="scale(-1 1) rotate(12 -558.268 -1526.417)"/>
                    <path fill="url(#N)" d="M8.332 10.014c4.602 0 8.333-2.242 8.333-5.007C16.665 2.242 12.935 0 8.332 0 3.731 0 0 2.242 0 5.007c0 2.765 3.73 5.007 8.332 5.007z" transform="scale(-1 1) rotate(12 -558.268 -1526.417)"/>
                </g>
                <path fill="#FCCBCB" d="M380.527 139.992c-13.03-10.214-21.645-16.821-25.845-19.824-6.3-4.503-13.996-13.465-16.487-15.235-2.491-1.77-7.447-4.814-8.984-5.284-1.537-.47-8.975 1.14-10.746 1.446-1.772.305-2.47 3.481.454 3.397 2.924-.085 8.532-.91 9.325-.598.529.208 2.361 1.276 5.498 3.204-3.334-1.112-5.42-1.754-6.26-1.927-1.26-.259-7.998.473-9.783.684-1.785.21-2.628 3.682 1.163 3.538 3.791-.145 6.898-.15 8.067-.034.779.078 2.675.797 5.688 2.156-3.006-.632-4.974-.995-5.903-1.09-1.393-.143-4.78.341-6.785.65-2.006.307-2.131 3.702.833 3.451 2.964-.251 7.216.369 8.074.436.573.045 1.82.587 3.74 1.627-1.88-.42-3.274-.692-4.184-.814-1.365-.183-5.291.177-6.104.275-.813.097-2.198 2.707 1.041 2.723 3.24.016 5.825.554 6.645.876.819.322 8.142 4.738 10.141 5.318 1.333.386 11.207 8.635 29.624 24.747l10.788-9.722z"/>
                <g transform="rotate(-6 997.938 -3195.48)">
                    <mask id="R" fill="#fff">
                        <use xlink:href="#O"/>
                    </mask>
                    <use fill="url(#P)" stroke="#CAD4EF" stroke-width=".88" xlink:href="#O"/>
                    <path fill="url(#Q)" d="M46.693 62.627c3.405 1.011 5.72 1.777 6.943 2.297 1.224.52 3.83 1.63 7.818 3.334-4.708-5.91-8.345-9.537-10.91-10.882-2.565-1.344-3.849.406-3.85 5.251z" mask="url(#R)" transform="rotate(24 54.074 62.598)"/>
                </g>
            </g>
            <g>
                <path stroke="#8CBAE1" stroke-width="1.232" d="M382.884 132.417c-5.554.584-10.534-3.49-11.124-9.099a10.311 10.311 0 0 1-.042-1.622l1.106-20.932.473-8.947c.22-4.152 3.393-7.523 7.489-7.953 4.095-.43 7.9 2.206 8.979 6.222l2.324 8.66 5.432 20.238c1.462 5.446-1.723 11.048-7.113 12.513-.518.14-1.046.24-1.58.295"/>
                <path stroke="#4385FF" stroke-linecap="round" stroke-width="2.464" d="M372.824 100.764l.473-8.947c.22-4.152 3.393-7.523 7.489-7.953 4.095-.43 7.9 2.206 8.979 6.222l2.324 8.66"/>
                <path fill="#1D60DC" fill-rule="nonzero" d="M388.035 129.967l1.914.074a1.273 1.273 0 0 1 1.212 1.144l.035.336a1.273 1.273 0 0 1-.947 1.37l-1.857.47a1.266 1.266 0 0 1-1.567-1.105l-.092-.881a1.27 1.27 0 0 1 1.302-1.408zM383.28 130.467l-1.857.47a1.273 1.273 0 0 0-.947 1.37l.035.337c.067.632.583 1.12 1.212 1.144l1.914.074a1.266 1.266 0 0 0 1.303-1.408l-.093-.88a1.27 1.27 0 0 0-1.567-1.107z"/>
                <path fill="#4385FF" fill-rule="nonzero" d="M382.108 83.824l-2.443.3c-.748-6.082-2.048-10.772-3.863-14.083a109.737 109.737 0 0 0-.654-5.023c3.569 3.57 5.858 9.851 6.96 18.806z"/>
            </g>
            <g transform="rotate(-6 193.921 -3172.515)">
                <g transform="translate(0 4.066)">
                    <mask id="T" fill="#fff">
                        <use xlink:href="#S"/>
                    </mask>
                    <use fill="#FCCBCB" xlink:href="#S"/>
                    <path fill="#BFA5B1" d="M29.494 37.14c.783-2.95 2.5-2.95 5.154 0l-2.576 14.61-20.828 8.548c-5.509-2.956-8.802-5.095-9.88-6.416C-.25 51.899.19 44.535.19 42.704c0-1.83.572-4.099 2.165-4.099.951 0 2.334.736 4.078 1.032 1.179.2 3.086.278 4.45.278 3.383 0 4.606 2.493 5.366 4.811.76 2.319 5.421 2.065 7.925 1.502 2.503-.562 4.148-4.663 5.321-9.088zM5.881 41.703c-1.338-.418-2.527-1.502-3.385-.705-.858.797-.55 3.333.32 4.227.87.893 2.271.232 3.338 1.212 1.067.98 4.82 2.443 5.88.94 1.06-1.502.917-4.506-.61-4.8-1.525-.293-4.205-.456-5.543-.874z" mask="url(#T)"/>
                </g>
                <ellipse cx="15.349" cy="36.079" fill="#031120" rx="1" ry="1.223"/>
                <ellipse cx="3.792" cy="32.899" fill="#031120" rx="1" ry="1.101"/>
                <mask id="W" fill="#fff">
                    <use xlink:href="#U"/>
                </mask>
                <use fill="#0C3564" xlink:href="#U"/>
                <path fill="url(#V)" d="M30.041 28.857c5.172-2.785 9.096-3.904 11.773-3.359 2.677.546 4.016 1.984 4.016 4.314-5.903 9.978-9.105 14.967-9.604 14.967-.5 0-3.383-.55-8.65-1.649l2.465-14.273z" mask="url(#W)"/>
                <path fill="#031120" d="M40.566 12.424l-11.615 7.021c2.957-1.203 5.546-2.373 7.768-3.51 2.222-1.138 3.505-2.308 3.847-3.51zM23.103 17.132c-8.865 2.591-15.105 1.399-18.718-3.578 4.463 3.927 10.703 5.12 18.718 3.578z" mask="url(#W)"/>
                <path fill="#FCCBCB" d="M34.075 32.753c.386-1.057 1.368-1.826 2.944-2.31 2.365-.724 4.117 3.042 2.246 6.485-1.156 2.125-2.091 3.594-3.808 4.75-.284.19-.687.19-1.21 0-.277.61-.499 1.083-.663 1.418-.215-1.913-.1-4.936 0-6.168.13-1.594.294-2.986.491-4.175z"/>
                <path fill="url(#X)" d="M2.135 4.006c.893-.783 1.655-1.047 2.287-.792.949.381 1.304 2.548-.198 4.377-1.001 1.219-1.765 1.856-2.29 1.912l.201-5.497z" transform="translate(33.25 29.48)"/>
                <path stroke="#031120" stroke-linecap="round" stroke-width="1.004" d="M13.67 30.806c2.3.303 4.354 1.123 6.164 2.459M5.881 28.857c-1.477-.687-2.982-.916-4.516-.687"/>
                <path stroke="#E77575" stroke-linecap="round" stroke-width="1.004" d="M7.825 31.798c-1.694 3.01-3.098 5.045-4.213 6.106-1.673 1.59-2.33 4.467 2.269 4.767M3.01 46.425c.417.542 1.374 1.04 2.871 1.494 1.497.455 3.255.455 5.275 0"/>
            </g>
        </g>
        <g>
            <path fill="#FFF" stroke="#6E81E7" stroke-width=".54" d="M277.561 219.825l-.115-58.442a1.53 1.53 0 0 0-.767-1.324l-53.425-30.705a.63.63 0 0 0-.944.546l-.038 55.753a4.73 4.73 0 0 0 2.393 4.115l52.896 30.057z" opacity=".6"/>
            <path fill="url(#Y)" d="M0 0l17.962 9.85V12.2L0 2.432z" opacity=".5" transform="translate(235.04 148.146)"/>
            <path fill="url(#Z)" d="M7 9l10.962 5.85V17.2L7 11.432z" opacity=".3" transform="translate(235.04 148.146)"/>
            <path fill="url(#aa)" d="M21.211 11.225l7.644 4.702a.27.27 0 0 1 .128.23L29 25.198l-8-4.865.006-8.994a.135.135 0 0 1 .205-.115z" opacity=".3" transform="translate(235.04 148.146)"/>
            <path fill="url(#Y)" d="M0 0l17.962 9.85V12.2L0 2.432z" opacity=".5" transform="translate(235.04 163.146)"/>
            <path fill="url(#Z)" d="M7 9l10.962 5.85V17.2L7 11.432z" opacity=".3" transform="translate(235.04 163.146)"/>
            <path fill="url(#aa)" d="M21.211 11.225l7.644 4.702a.27.27 0 0 1 .128.23L29 25.198l-8-4.865.006-8.994a.135.135 0 0 1 .205-.115z" opacity=".3" transform="translate(235.04 163.146)"/>
            <path fill="url(#Y)" d="M0 0l17.962 9.85V12.2L0 2.432z" opacity=".5" transform="translate(235.04 177.146)"/>
            <path fill="url(#Z)" d="M7 9l10.962 5.85V17.2L7 11.432z" opacity=".3" transform="translate(235.04 177.146)"/>
            <path fill="url(#aa)" d="M21.211 11.225l7.644 4.702a.27.27 0 0 1 .128.23L29 25.198l-8-4.865.006-8.994a.135.135 0 0 1 .205-.115z" opacity=".3" transform="translate(235.04 177.146)"/>
            <g>
                <path fill="#FFF" stroke="#6E81E7" stroke-width=".54" d="M207.561 181.825l-.115-58.442a1.53 1.53 0 0 0-.767-1.324l-53.425-30.705a.63.63 0 0 0-.944.546l-.038 55.753a4.73 4.73 0 0 0 2.393 4.115l52.896 30.057z" opacity=".6"/>
                <path fill="url(#Y)" d="M0 0l17.962 9.85V12.2L0 2.432z" opacity=".5" transform="translate(165.04 110.146)"/>
                <path fill="url(#Z)" d="M7 9l10.962 5.85V17.2L7 11.432z" opacity=".3" transform="translate(165.04 110.146)"/>
                <path fill="url(#aa)" d="M21.211 11.225l7.644 4.702a.27.27 0 0 1 .128.23L29 25.198l-8-4.865.006-8.994a.135.135 0 0 1 .205-.115z" opacity=".3" transform="translate(165.04 110.146)"/>
                <g>
                    <path fill="url(#Y)" d="M0 0l17.962 9.85V12.2L0 2.432z" opacity=".5" transform="translate(165.04 125.146)"/>
                    <path fill="url(#Z)" d="M7 9l10.962 5.85V17.2L7 11.432z" opacity=".3" transform="translate(165.04 125.146)"/>
                    <path fill="url(#aa)" d="M21.211 11.225l7.644 4.702a.27.27 0 0 1 .128.23L29 25.198l-8-4.865.006-8.994a.135.135 0 0 1 .205-.115z" opacity=".3" transform="translate(165.04 125.146)"/>
                </g>
                <g>
                    <path fill="url(#Y)" d="M0 0l17.962 9.85V12.2L0 2.432z" opacity=".5" transform="translate(165.04 139.146)"/>
                    <path fill="url(#Z)" d="M7 9l10.962 5.85V17.2L7 11.432z" opacity=".3" transform="translate(165.04 139.146)"/>
                    <path fill="url(#aa)" d="M21.211 11.225l7.644 4.702a.27.27 0 0 1 .128.23L29 25.198l-8-4.865.006-8.994a.135.135 0 0 1 .205-.115z" opacity=".3" transform="translate(165.04 139.146)"/>
                </g>
            </g>
            <g>
                <path fill="#FFF" stroke="#6E81E7" stroke-width=".54" d="M292.27 228.407l55.291 31.418-.115-58.442a1.53 1.53 0 0 0-.767-1.324l-53.425-30.705a.63.63 0 0 0-.944.546l-.04 58.507z" opacity=".6"/>
                <path fill="url(#Y)" d="M0 0l17.962 9.85V12.2L0 2.432z" opacity=".5" transform="translate(305.04 188.146)"/>
                <path fill="url(#Z)" d="M7 9l10.962 5.85V17.2L7 11.432z" opacity=".3" transform="translate(305.04 188.146)"/>
                <path fill="url(#aa)" d="M21.211 11.225l7.644 4.702a.27.27 0 0 1 .128.23L29 25.198l-8-4.865.006-8.994a.135.135 0 0 1 .205-.115z" opacity=".3" transform="translate(305.04 188.146)"/>
                <g>
                    <path fill="url(#Y)" d="M0 0l17.962 9.85V12.2L0 2.432z" opacity=".5" transform="translate(305.04 203.146)"/>
                    <path fill="url(#Z)" d="M7 9l10.962 5.85V17.2L7 11.432z" opacity=".3" transform="translate(305.04 203.146)"/>
                    <path fill="url(#aa)" d="M21.211 11.225l7.644 4.702a.27.27 0 0 1 .128.23L29 25.198l-8-4.865.006-8.994a.135.135 0 0 1 .205-.115z" opacity=".3" transform="translate(305.04 203.146)"/>
                </g>
                <g>
                    <path fill="url(#Y)" d="M0 0l17.962 9.85V12.2L0 2.432z" opacity=".5" transform="translate(305.04 217.146)"/>
                    <path fill="url(#Z)" d="M7 9l10.962 5.85V17.2L7 11.432z" opacity=".3" transform="translate(305.04 217.146)"/>
                    <path fill="url(#aa)" d="M21.211 11.225l7.644 4.702a.27.27 0 0 1 .128.23L29 25.198l-8-4.865.006-8.994a.135.135 0 0 1 .205-.115z" opacity=".3" transform="translate(305.04 217.146)"/>
                </g>
            </g>
            <g>
                <path fill="url(#ab)" d="M266.188 301.905L347.233 299l-22.398 40.343 36.791 22.506-116.85 73.236L0 286.043l27.925-18.026L137.91 225z" filter="url(#ac)" opacity=".211" transform="translate(161.844 143)"/>
                <path fill="url(#ad)" d="M30.442 140v142.204l82.182 48.009V188.426z" transform="translate(161.844 143)"/>
                <path fill="url(#ae)" d="M112.646 330.213l88.59-51.712.853-75.307 1.544-62.964-90.987 48.7z" transform="translate(161.844 143)"/>
                <g transform="translate(427.844 187)">
                    <mask id="ai" fill="#fff">
                        <use xlink:href="#af"/>
                    </mask>
                    <use fill="url(#ag)" xlink:href="#af"/>
                    <path fill="url(#ah)" d="M25.5-4c33.566 15.824 51.246 28.565 53.041 38.22 2.693 14.485 2.693 91.263 2.693 101.19 0 9.927-4.045 27.864-34.221 35.863C26.895 176.606 6.224 167.96-15 145.337L25.5-4z" mask="url(#ai)"/>
                </g>
                <path fill="#B59272" d="M333.54 492.195c-.394 2.031 1.432 7.358 13.785 6.593 7.824-.484 16.704-3.63 26.638-9.44 1.047-.612 1.628-1.213 1.743-1.803l.58-2.98c-18.384-1.628-29.962-1.624-34.735.01-3.75 1.284-6.906 1.941-7.262 3.774l-.748 3.846z"/>
                <path fill="#471E0D" d="M334.289 488.349c-.395 2.03 1.43 7.358 13.784 6.593 8.235-.51 17.64-3.969 28.212-10.378l-.178-1.107 1.234-6.348c.19-.98-1.05-3.246-2.969-3.619-1.918-.373-5.993 1.392-9.243 1.245-3.251-.147-4.968-2.542-7.892-1.534-2.924 1.008-7.78 5.076-14.939 7.527-7.16 2.452-7.615 5.59-8.01 7.62z"/>
                <path fill="#884E36" d="M348.403 494.019c8.727-.54 17.961-4.061 27.704-10.562l1.234-6.348c.19-.98-1.05-3.246-2.969-3.619-1.918-.373-5.993 1.392-9.243 1.245-3.251-.147-4.968-2.542-7.892-1.534-2.924 1.008-7.78 5.076-14.939 7.527-5.807 1.989-7.203 4.429-7.734 6.363-.421 1.532.748 7.738 13.839 6.928z"/>
                <path stroke="#471E0D" stroke-linecap="round" stroke-linejoin="round" stroke-width="1.1" d="M359.77 475.174c-3.987 3.307-8.107 5.875-12.359 7.702"/>
                <g transform="rotate(11 -2129.983 2115.024)">
                    <mask id="al" fill="#fff">
                        <use xlink:href="#aj"/>
                    </mask>
                    <use fill="#FCCBCB" xlink:href="#aj"/>
                    <path fill="url(#ak)" d="M16.681 21.602c-2.392 5.168-9.78 6.641-22.163 4.42-12.383-2.222-11.027-8.81 4.07-19.766l27.672 7.065-9.579 8.281z" mask="url(#al)"/>
                </g>
                <path stroke="#B59272" stroke-linecap="round" stroke-linejoin="round" stroke-width="1.1" d="M348.001 474.832c1.575 1.361 5.841 2.388 8.029 1.184 1.458-.803 2.676-1.16 3.652-1.07a17.481 17.481 0 0 1 7.419-.157c1.732.337 3.576 2.097 2.7 4.572-.852 2.411-3.995 3.303-5.434 1.52-2.708-3.354-2.42-4.839-5.066-5.779-2.647-.94-4.6.508-7.41-1.142-2.812-1.65-2.774-6.028-.543-7.355 2.23-1.327 6.08.102 7.075 3.996.996 3.893 1.996 4.896 1.669 6.581-.328 1.685-3.525 7.12.804 8.809"/>
                <g transform="translate(360.778 300.233)">
                    <mask id="an" fill="#fff">
                        <use xlink:href="#am"/>
                    </mask>
                    <use fill="#103A86" xlink:href="#am"/>
                    <path fill="#083263" d="M44.066 94.725L19.415 170.49l43.88-65.433z" mask="url(#an)"/>
                </g>
                <g transform="translate(389.844 263)">
                    <mask id="aq" fill="#fff">
                        <use xlink:href="#ao"/>
                    </mask>
                    <use fill="url(#ap)" xlink:href="#ao"/>
                    <path fill="#ABC1DF" fill-rule="nonzero" d="M-3 32.44l11.396 6.49c3.876-6.02 11.519-12.15 22.928-18.393 9.27-5.071 17.149-9.61 23.637-13.615a9 9 0 0 0 4.273-7.658V-1L5.915 23.12-3 32.44z" mask="url(#aq)" opacity=".517"/>
                </g>
                <g transform="translate(389.844 254)">
                    <mask id="au" fill="#fff">
                        <use xlink:href="#ar"/>
                    </mask>
                    <use fill="url(#as)" xlink:href="#ar"/>
                    <path fill="url(#at)" d="M15.902 32C2.085 33.858 2.787 30.341 1.543 21.88c-4.631 3.417-5.361 22.733 1.693 22.9 23.737.561 73.488-27.195 77.348-29.846 5.823-4-2.552-8.934-9.786-8.934-7.233 0-41.08 24.142-54.896 26z" mask="url(#au)"/>
                </g>
                <path fill="#B59272" d="M306.008 465.344c-.43 2.025 1.302 7.382 13.666 6.833 7.832-.347 16.765-3.339 26.8-8.973 1.057-.594 1.648-1.185 1.773-1.773l.632-2.97c-18.353-1.948-29.93-2.146-34.73-.596-3.771 1.218-6.939 1.82-7.327 3.647l-.814 3.832z"/>
                <path fill="#471E0D" d="M306.822 461.512c-.43 2.024 1.303 7.381 13.667 6.833 8.243-.366 17.706-3.661 28.39-9.884l-.16-1.11 1.345-6.326c.208-.976-.994-3.264-2.905-3.67-1.912-.406-6.016 1.287-9.264 1.084-3.248-.204-4.923-2.629-7.864-1.672-2.941.957-7.866 4.94-15.067 7.265-7.201 2.326-7.712 5.456-8.142 7.48z"/>
                <path fill="#884E36" d="M320.835 467.427c8.735-.388 18.03-3.746 27.885-10.076l1.344-6.326c.208-.976-.994-3.264-2.905-3.67-1.912-.406-6.016 1.287-9.264 1.084-3.248-.204-4.923-2.629-7.864-1.672-2.941.957-7.866 4.94-15.067 7.265-5.841 1.887-7.28 4.302-7.845 6.227-.447 1.525.614 7.75 13.716 7.168z"/>
                <path stroke="#471E0D" stroke-linecap="round" stroke-linejoin="round" stroke-width="1.1" d="M332.53 448.784c-4.044 3.237-8.208 5.732-12.491 7.485"/>
                <g transform="rotate(12 -1843.7 1814.515)">
                    <mask id="ax" fill="#fff">
                        <use xlink:href="#av"/>
                    </mask>
                    <use fill="#FCCBCB" xlink:href="#av"/>
                    <path fill="url(#aw)" d="M20.954 18.937c-8.17 3.903-15.624 3.07-22.36-2.5-6.735-5.57-4.216-12.11 7.558-19.618l14.802 22.118z" mask="url(#ax)"/>
                </g>
                <path stroke="#B59272" stroke-linecap="round" stroke-linejoin="round" stroke-width="1.1" d="M320.768 448.236c1.551 1.389 5.799 2.49 8.007 1.324 1.473-.777 2.696-1.112 3.67-1.005 2.492-.54 4.966-.55 7.421-.028 1.726.367 3.54 2.16 2.62 4.619-.894 2.395-4.051 3.232-5.46 1.425-2.649-3.401-2.334-4.881-4.964-5.867-2.63-.986-4.608.427-7.39-1.272-2.781-1.699-2.667-6.075-.414-7.363 2.253-1.288 6.077.208 7.005 4.119.927 3.91 1.91 4.93 1.553 6.61-.357 1.678-3.648 7.057.65 8.82"/>
                <g transform="translate(317.943 262.833)">
                    <mask id="az" fill="#fff">
                        <use xlink:href="#ay"/>
                    </mask>
                    <use fill="#103A86" transform="rotate(23 80.515 101.972)" xlink:href="#ay"/>
                    <path fill="#083263" d="M26.51 98.965L-16 160.396l53.883-54.344z" mask="url(#az)"/>
                </g>
                <g>
                    <g transform="rotate(7 -1340.71 3339.311)">
                        <mask id="aD" fill="#fff">
                            <use xlink:href="#aA"/>
                        </mask>
                        <use fill="url(#aB)" xlink:href="#aA"/>
                        <path fill="url(#aC)" d="M35.832 76.193c-6.139 3.503-9.135 4.892-8.988 4.168 2.23-10.967 4.51-24.31 3.872-36.177-1.069-19.912 4.174-27.648 4.174-33.713 0-4.043 6.64-2.8 19.921 3.729L35.832 76.193z" mask="url(#aD)" opacity=".5"/>
                    </g>
                    <g transform="rotate(7 -1344.15 3569.25)">
                        <mask id="aH" fill="#fff">
                            <use xlink:href="#aE"/>
                        </mask>
                        <use fill="url(#aF)" xlink:href="#aE"/>
                        <path fill="url(#aG)" fill-opacity=".2" d="M35.705 22.682c2.715-.939 9.912-1.884 13.74-6.066 2.553-2.789 2.888-6.245 1.005-10.37.646.088 1.099.394 1.36.916.39.784 4.887 9.446-.775 17.824-3.776 5.585-7.835 9.473-12.178 11.665a82.481 82.481 0 0 1-2.72-7.568c-1.163-3.813.668-4.826-.432-6.4z" mask="url(#aH)" opacity=".5"/>
                        <path fill="url(#aI)" fill-opacity=".2" d="M28.772 25.405l-3.6 5.356-1.113-10.978 5.391-.131z" mask="url(#aH)" opacity=".5"/>
                        <path fill="url(#aJ)" d="M69.954 33.68c-6.321 8.987-9.24 28.514-8.004 46.64.824 12.084 14.285 20.69 40.382 25.817C84.961 51.842 74.168 27.69 69.954 33.681z" mask="url(#aH)" opacity=".5"/>
                        <g mask="url(#aH)">
                            <g transform="translate(20.8 1.514)">
                                <path stroke="#F2F7FF" stroke-width=".8" d="M32.42 4.103c3.336 8.557 1.279 17.171-6.172 25.843-11.176 13.007-16.91 16.703-18.322 16.25-1.412-.455-6.814-16.02-7.267-29.79C.206 2.64 8.359 1.597 14.121.888c3.842-.472 9.942.6 18.3 3.216z" opacity=".2"/>
                                <mask id="aM" fill="#fff">
                                    <use xlink:href="#aK"/>
                                </mask>
                                <use fill="url(#aL)" xlink:href="#aK"/>
                                <path fill="#C6D5EF" d="M10.771 26.982c-.022 2.093-.415 7.593-1.18 16.5l-8.843-8.79L-.8 9.924l10.453-4.9c.767 12.546 1.14 19.865 1.117 21.958z" mask="url(#aM)" opacity=".5"/>
                                <path fill="#C6D5EF" d="M10.771 26.982l-2.17-2.063-2.127 1.039-3.512-6.815L4.756 6.464l12.395 6.103z" mask="url(#aM)"/>
                                <path fill="#C6D5EF" d="M14.006 26.021l3.485 7.399 15.707-14.168-5.642-5.271z" mask="url(#aM)" opacity=".5"/>
                            </g>
                        </g>
                    </g>
                    <path fill="url(#aN)" d="M59.92 38.619c10.612-3.718 16.853-7.332 18.722-10.843 1.868-3.51 1.12-7.242-2.246-11.196l-19.944 8.945c1.795 4.752 2.843 7.66 3.144 8.725.302 1.066.41 2.522.323 4.369z" transform="rotate(7 -1245.196 3343.885)"/>
                    <g transform="rotate(2 -5101.85 13002.325)">
                        <mask id="aQ" fill="#fff">
                            <use xlink:href="#aO"/>
                        </mask>
                        <use fill="#FCCBCB" xlink:href="#aO"/>
                        <path fill="url(#aP)" d="M1.052 20.564c5.477-1.044 9.587-2.827 12.33-5.35 2.742-2.524 4.219-6.598 4.431-12.222L2.98 4.456 1.052 20.564z" mask="url(#aQ)"/>
                        <path fill="url(#aR)" d="M28.478 18.017c-1.217 5.239-5.998 8.86-14.344 10.862-8.346 2.003-12.855-.076-13.527-6.236l.341 13.831 33.659-4.562-6.129-13.895z" mask="url(#aQ)"/>
                    </g>
                    <path fill="#C6D5EF" d="M452.828 222.61c.583-2.922 1.79-4.663 3.62-5.226 2.745-.843 9.972-1.537 13.944-5.583 2.648-2.698 3.929-5.724 3.843-9.078.547.38.941.837 1.183 1.368.364.797.005 8.562-5.784 13.071-3.86 3.006-9.461 4.822-16.806 5.447z"/>
                    <path fill="url(#aS)" d="M8.436 36.475c.593-1.87.889-3.205.889-4.007 0-1.203-.088-2.496-2.445-5.122-1.571-1.75-1.611-4.873-.12-9.37l-2.117-.862c-2.075 2.673-3.33 6.438-3.762 11.294-.432 4.856-.432 7.958 0 9.306l4.474-9.052c.681 1.219 1.392 2.127 2.134 2.724.741.598 1.081 1.52 1.02 2.766l-.073 2.323z" transform="rotate(2 -5099.35 12859.1)"/>
                    <path fill="url(#aT)" d="M11.874 31.19c2.714-.938 9.912-1.883 13.74-6.066 1.567-1.711 3.168-3.905 2.95-6.58-.108-.6-1.29-2.143-1.597-3.273a98.332 98.332 0 0 1-.553-2.178c2.264 1.38 3.637 2.7 4.118 3.962.482 1.262.803 2.766.964 4.513.22 3.821-1.165 8.177-4.153 13.068-2.987 4.89-6.332 8.305-10.034 10.243a82.481 82.481 0 0 1-2.72-7.568c-1.163-3.813-1.615-4.545-2.715-6.12z" transform="rotate(2 -5099.35 12859.1)"/>
                    <path fill="url(#aU)" d="M5.616 16.892l-.754-1.701c-2.317 2.984-3.717 7.188-4.2 12.61-.483 5.422-.483 8.885 0 10.39l4.996-10.106c-.501-2.001-.751-3.582-.75-4.742 0-1.16.236-3.31.708-6.45z" transform="rotate(2 -5099.35 12859.1)"/>
                    <g transform="translate(438.96 143)">
                        <g transform="translate(5 8.747)">
                            <mask id="aW" fill="#fff">
                                <use xlink:href="#aV"/>
                            </mask>
                            <use fill="#FCCBCB" xlink:href="#aV"/>
                            <path stroke="#E77575" stroke-linecap="round" stroke-width=".933" d="M6.114 25.555c-1.54 2.773-2.817 4.649-3.83 5.626-1.521 1.466-2.119 4.116 2.062 4.393" mask="url(#aW)"/>
                        </g>
                        <ellipse cx="17.954" cy="38.246" fill="#031120" rx="1" ry="1.127"/>
                        <ellipse cx="7.447" cy="35.316" fill="#031120" rx="1" ry="1.014"/>
                        <g transform="translate(28.04)">
                            <mask id="aY" fill="#fff">
                                <use xlink:href="#aX"/>
                            </mask>
                            <use fill="#0C3564" xlink:href="#aX"/>
                            <path fill="#031120" d="M17.556 22.865c.932-5.546-.088-10.217-3.062-14.012C11.521 5.058 6.671 3.56-.057 4.356l10.796 18.116 6.817.393z" mask="url(#aY)"/>
                        </g>
                        <g transform="translate(4 5)">
                            <mask id="ba" fill="#fff">
                                <use xlink:href="#aZ"/>
                            </mask>
                            <use fill="#0C3564" xlink:href="#aZ"/>
                            <g mask="url(#ba)">
                                <g transform="translate(41.04 -5)">
                                    <mask id="bc" fill="#fff">
                                        <use xlink:href="#bb"/>
                                    </mask>
                                    <use fill="#0C3564" xlink:href="#bb"/>
                                    <path fill="#031120" d="M17.556 22.865c.932-5.546-.088-10.217-3.062-14.012C11.521 5.058 6.671 3.56-.057 4.356l10.796 18.116 6.817.393z" mask="url(#bc)"/>
                                </g>
                            </g>
                            <path fill="#031120" d="M36.88 11.449l-10.56 6.47c2.688-1.109 5.042-2.187 7.062-3.235 2.02-1.049 3.186-2.127 3.497-3.235zM21.003 15.787c-8.06 2.388-13.732 1.289-17.017-3.297 4.058 3.619 9.73 4.718 17.017 3.297z" mask="url(#ba)"/>
                        </g>
                        <path fill="#FCCBCB" d="M34.978 35.181c.35-.973 1.243-1.682 2.676-2.127 2.15-.668 3.743 2.802 2.042 5.974-1.05 1.96-1.901 3.313-3.461 4.378-.259.176-.625.176-1.1 0-.253.562-.454.998-.604 1.306-.057-.518-1.945-1.12-1.588-1.36 1.524-1.027 1.524-3.522 1.588-4.324.119-1.468.268-2.75.447-3.847z"/>
                        <path fill="url(#bd)" d="M35.729 7.691c.811-.721 1.504-.964 2.079-.73.862.352 1.185 2.349-.18 4.034-.91 1.123-1.605 1.71-2.083 1.762l.184-5.066z" transform="translate(.44 28.165)"/>
                        <g transform="translate(.714 29.163)">
                            <circle cx="35.327" cy="13.837" r="2" fill="#0C3564"/>
                            <path stroke="#031120" stroke-linecap="round" stroke-width=".933" d="M4.401 10.837C.572 10.17-.759 7.034.41 1.427l8.364 3.086-.14 1.977c1.796-.901 3.394-.412 4.795 1.466"/>
                            <path stroke="#031120" stroke-linecap="round" stroke-width=".933" d="M17.728 15.246c-3.829-.667-5.16-3.803-3.992-9.41L25.12 8.819c-1.098 4.952-3.562 7.094-7.39 6.428zM25.12 9.083l9.532-3.726M.752 1.428L5.172 0"/>
                        </g>
                        <path stroke="#031120" stroke-linecap="round" stroke-width=".933" d="M16.427 33.387c2.09.28 3.959 1.035 5.604 2.266M9.346 31.591c-1.342-.632-2.71-.843-4.105-.632"/>
                        <path stroke="#E77575" stroke-linecap="round" stroke-width=".933" d="M7.736 48.59c.38.5 1.25.958 2.61 1.377 1.361.418 2.96.418 4.796 0"/>
                    </g>
                </g>
                <g>
                    <path fill="url(#be)" d="M2.91.469l31.617 8.52a3.2 3.2 0 0 1 2.155 1.945l14.682 38.288a.8.8 0 0 1-.265.926l-1.62 1.22-29.33-8.5a3.2 3.2 0 0 1-2.029-1.764L.674 2.209 2.124.69A.8.8 0 0 1 2.91.47z" transform="translate(369.844 239.574)"/>
                    <path fill="url(#bf)" d="M1.56 1.863l31.536 8.564a3.2 3.2 0 0 1 2.149 1.941L49.842 50.39a.8.8 0 0 1-.933 1.065l-30.02-7.178a3.2 3.2 0 0 1-2.219-1.906L.61 2.937a.8.8 0 0 1 .95-1.074z" transform="translate(369.844 239.574)"/>
                    <path fill="#FFF" d="M392.64 256.254c.662.29 1.015-.2.788-1.095-.227-.895-.947-1.856-1.609-2.147-.662-.29-1.015.2-.788 1.096.226.895.947 1.856 1.609 2.146z"/>
                    <path fill="#FFF" d="M392.929 256.474c.87.359 1.335-.247 1.037-1.352-.298-1.105-1.246-2.292-2.116-2.65-.871-.359-1.335.247-1.037 1.352.298 1.105 1.245 2.292 2.116 2.65z" opacity=".5"/>
                    <path fill="#FCCBCB" d="M379.846 265.181c-2.481 3.864-3.684 6.107-3.608 6.73.115.933 7.629 3.119 9.306 2.562 1.676-.556 1.805-2.896-.448-3.652-1.502-.504-2.712-.952-3.629-1.344l-1.62-4.296z"/>
                    <path fill="#FCCBCB" d="M381.972 270.719c-2.08 3.059-3.05 5.171-2.906 6.338.214 1.75 6.927 3.51 8.604 2.954 1.676-.557 1.805-2.896-.448-3.652-1.502-.504-2.712-.952-3.629-1.344l-1.62-4.296z"/>
                    <path fill="#FCCBCB" d="M380.997 268.664c-2.178 2.903-3.195 4.944-3.05 6.123.217 1.77 7.07 3.726 8.747 3.17 1.677-.557 1.806-2.897-.447-3.653-1.503-.504-2.712-.952-3.63-1.344l-1.62-4.296z"/>
                    <path fill="#FCCBCB" d="M377.808 260.357c-2.482 3.864-3.684 6.108-3.608 6.73.114.933 7.629 3.119 9.305 2.562 1.677-.556 1.806-2.896-.447-3.652-1.503-.504-2.712-.951-3.63-1.344l-1.62-4.296z"/>
                </g>
                <g transform="translate(461.844 303)">
                    <mask id="bh" fill="#fff">
                        <use xlink:href="#bg"/>
                    </mask>
                    <use fill="#FFF" xlink:href="#bg"/>
                    <path fill="#ABC1DF" fill-rule="nonzero" d="M-2 33.44l11.396 6.49c3.876-6.02 11.519-12.15 22.928-18.393 9.27-5.071 17.149-9.61 23.637-13.615A9 9 0 0 0 60.234.264V0L6.915 24.12-2 33.44z" mask="url(#bh)" opacity=".2"/>
                </g>
                <g transform="translate(461.844 294)">
                    <mask id="bj" fill="#fff">
                        <use xlink:href="#bi"/>
                    </mask>
                    <use fill="url(#as)" xlink:href="#bi"/>
                    <path fill="url(#at)" d="M12.48 34C-1.335 35.858-.634 32.341-1.877 23.88-6.51 27.297-7.24 46.613-.186 46.78c23.737.561 73.489-27.195 77.348-29.846 5.824-4-2.551-8.934-9.785-8.934s-41.08 24.142-54.896 26z" mask="url(#bj)"/>
                </g>
                <g>
                    <g transform="translate(393.844 413)">
                        <mask id="bn" fill="#fff">
                            <use xlink:href="#bk"/>
                        </mask>
                        <use fill="url(#bl)" xlink:href="#bk"/>
                        <path fill="url(#bm)" d="M-5 4.73l2.72 142.437c0 2.363 1.748 3.544 5.245 3.544 3.496 0 5.129-1.181 4.897-3.544L14.403 3-5 4.73z" mask="url(#bn)" style="mix-blend-mode:multiply"/>
                    </g>
                    <g transform="translate(431.844 398)">
                        <path fill="#172E56" d="M5.76 46.497a4.5 4.5 0 1 0 0-9 4.5 4.5 0 0 0 0 9z"/>
                        <g transform="translate(40.627 32.468)">
                            <mask id="bq" fill="#fff">
                                <use xlink:href="#bo"/>
                            </mask>
                            <use fill="#103A86" xlink:href="#bo"/>
                            <path fill="url(#bp)" d="M2.453 6.573L32.813-2 .692 2.796z" mask="url(#bq)" style="mix-blend-mode:multiply"/>
                        </g>
                        <g transform="scale(1 -1) rotate(24 236.708 54.24)">
                            <mask id="bs" fill="#fff">
                                <use xlink:href="#br"/>
                            </mask>
                            <use fill="#103A86" xlink:href="#br"/>
                            <path fill="#083263" d="M3.736 12.536c2.412-.193 3-2.822 1.885-5.813C4.506 3.733 3.663 1.41 1.177 1.41c-2.485 0-3.431 3.624-2.15 6.501 1.281 2.878 2.297 4.818 4.71 4.625z" mask="url(#bs)"/>
                        </g>
                        <g transform="translate(3.514 36.905)">
                            <mask id="bv" fill="#fff">
                                <use xlink:href="#bt"/>
                            </mask>
                            <use fill="#103A86" xlink:href="#bt"/>
                            <path fill="url(#bu)" d="M0 .592l30.486.503V-1z" mask="url(#bv)" style="mix-blend-mode:multiply"/>
                        </g>
                        <path fill="url(#bw)" d="M39 40.224c3.314 0 5.927-1.29 5.927-3.112C44.927 35.289 42.314 34 39 34c-3.314 0-6.16 1.129-6.16 2.992s2.846 3.232 6.16 3.232z"/>
                        <g transform="translate(32.84 37.243)">
                            <mask id="bz" fill="#fff">
                                <use xlink:href="#bx"/>
                            </mask>
                            <use fill="#103A86" xlink:href="#bx"/>
                            <path fill="url(#by)" d="M0 8.328c1.434 1.708 3.807 2.277 7.119 1.708l5.893 35.881L0 8.328z" mask="url(#bz)" style="mix-blend-mode:multiply"/>
                        </g>
                        <path fill="url(#bA)" d="M34 0v36.597c.657 1.63 2.323 2.444 5 2.444s4.343-.815 5-2.444V0H34z"/>
                        <path fill="#FFF" d="M42.52 85.243c.276 0 .5-.672.5-1.5 0-.829-.224-1.5-.5-1.5s-.5.671-.5 1.5c0 .828.224 1.5.5 1.5z"/>
                        <circle cx="4.5" cy="42.5" r="4.5" fill="#103A86"/>
                        <circle cx="4.5" cy="42.5" r="1.5" fill="#FFF"/>
                    </g>
                    <path fill="#103A86" d="M455.144 358.793l8.087 56.598c2.015 1.808 5.02 2.712 9.017 2.712 3.996 0 6.423-.904 7.28-2.712L483 351.5l-27.856 7.293z"/>
                    <path fill="url(#bB)" d="M321.522 136.99l2.58 128.735c0 2.362 1.748 3.544 5.245 3.544s5.13-1.182 4.897-3.544l6.681-130.465-19.403 1.73z" transform="rotate(-6 2620.017 -1302.646)"/>
                    <g transform="translate(249.844 231)">
                        <mask id="bE" fill="#fff">
                            <use xlink:href="#bC"/>
                        </mask>
                        <use fill="url(#bD)" xlink:href="#bC"/>
                        <path stroke="#FFF" d="M238.256 319.241c-10.715-21.877-17.715-13.013-7.715-53.574s2.876-47.033-6-14.308-.784 17.772-6.369 55.983c-5.584 38.212-11.91 26.162-7.035 1.838 4.876-24.324-1.283-46.868 11.06-70.601 12.344-23.734 36.918-93.644 20.344-75.894-16.573 17.75-11.116 40.51-22.363 66.388-11.246 25.877-10.557 37.71-17.75 67.115-7.191 29.405-42.824 83.866-25.008 36.992 17.817-46.874 22.396-86.02 42.758-120 20.363-33.98 18.61-25.345 4.363-13.172-14.246 12.172-11.725 4.006-4.363-29.042 7.363-33.048.823-58.49-4.53-16.267s-8.035 76.4-20.776 101.597c-12.742 25.198-18.781 45.7-31.33 47.536-12.55 1.836 18.628-34.324 29.736-62.028 11.107-27.705 11.82-54.273 13.433-87.742 1.613-33.47 8.937-41.597 8.937-43.24 0-1.642-15.837-46.204-18.307-3.073-2.47 43.13 7.471 54.918 1.704 83.708s-9.942 51.326-35.504 58.723c-25.562 7.398 20.415-19.206 24.067-40.083 3.652-20.877-10.188-4.244-10.188-28.546 0-24.301 4.518 19.087 10.188-.45 5.67-19.536-3.39-34.843-3.39-35.382 0-.539-22.556 30.461-14.677 48.461 7.88 18 6 21.84-3 26.067-6 2.818-16.847 10.84-32.541 24.064" mask="url(#bE)" opacity=".4"/>
                    </g>
                    <path fill="url(#bF)" d="M.695 64.5l232.238 128.182-.238 14.819-232-134z" transform="translate(169.844 231)"/>
                    <g transform="translate(169.844 231)">
                        <mask id="bI" fill="#fff">
                            <use xlink:href="#bG"/>
                        </mask>
                        <use fill="url(#bH)" xlink:href="#bG"/>
                        <g mask="url(#bI)">
                            <g transform="translate(87.013 92.401)">
                                <mask id="bL" fill="#fff">
                                    <use xlink:href="#bJ"/>
                                </mask>
                                <use fill="url(#bK)" transform="rotate(25 16 11.5)" xlink:href="#bJ"/>
                                <g mask="url(#bL)">
                                    <g transform="translate(1 7)">
                                        <mask id="bP" fill="#fff">
                                            <use xlink:href="#bM"/>
                                        </mask>
                                        <use fill="url(#bN)" transform="rotate(25 16 11.5)" xlink:href="#bM"/>
                                        <path fill="url(#bO)" d="M17 2h12v19H17z" mask="url(#bP)"/>
                                    </g>
                                </g>
                            </g>
                        </g>
                        <path stroke="#C5D6FF" d="M316.113 163.22c-5-3.168-18.827-10.956-43.273-8.418-24.446 2.539-81.153 18.487-47.84 18.487s50.794-13.86 64.039-8.744c13.245 5.117 76.092 2.446 40.203-9.999-35.889-12.444-53.538-17.671-85.266-8.743-31.729 8.928-118.726-4.41-106.06-19.128 12.666-14.716 87.922 2.914 82.334-27.222-5.588-30.135-171.475-36.858-93.292-28.25 78.184 8.608 92.609 3.963 114.634 21.064 22.025 17.102-83.208 75.127-126.023 77.529-48.619 2.727-22.184-59.416 33.695-64.673 55.878-5.258 46.804-10.741-16.05-11.593-24.54-.333-71.624 6.204-94.214.97-35.275-8.173-35.92-29.046 9.409-26.613 74.359 3.99 136.349 7.62 169.345 4.525 32.996-3.094 69.677-12.553-12.612-14.196-82.288-1.643-126.103.286-146.525-2.79-20.421-3.076-47.621-19.915.714-14.691 48.335 5.224 43.313 15.796 75.55 7.75 32.239-8.046 45.676-24.645 36.742-27.812-8.934-3.168-21.68 13.388-44.757 14.782-23.077 1.395-3.47-17.16-7.789-35.358-4.32-18.2-11.303-35.694-12.265-6.119-.642 19.717-22.979 16.446-67.011-9.813-1.822.215 10.195 9.454 36.05 27.716 38.784 27.392 39.434 31.78 61.285 27.798 21.851-3.983-7.677 15.883-53.309-.611C53.407 28.07 30.02 20.273 13.67 15.67c-21.236-44.19-.508-57.658 62.183-40.402C169.888 1.152 250.16 6.673 210.43 24.896c-39.729 18.224-61.55 22.336-47.178 23.589 9.58.835 31.127-.953 64.639-5.365 45.822 26.377 61.863 44.372 48.121 53.986-20.612 14.42-2.793 16.491 27.595 17.064" mask="url(#bI)" opacity=".4"/>
                        <path fill="url(#bQ)" d="M293.658 107.156c-19.448 12.428-35.538 18.643-48.272 18.643-12.733 0-31.679-8.266-56.836-24.799l-61.027 37.47L20.937 80.354 106.85 29l70.653 7.719 116.155 70.437z" mask="url(#bI)" style="mix-blend-mode:multiply"/>
                    </g>
                </g>
                <path fill="#FFF" d="M438.189 335.578l-24.242 14.401a3 3 0 0 1-3.053.007l-59.699-35.115 25.62-15.549a3 3 0 0 1 3.029-.05l58.305 32.844a2 2 0 0 1 .04 3.462z"/>
                <path fill="#ABC1DF" fill-rule="nonzero" d="M358.833 315.726l5.85-3.253L415.065 342l-5.85 3.253zM366.844 311.253l5.85-3.253 50.382 29.527-5.85 3.253zM374.844 306.253l5.85-3.253 50.382 29.527-5.85 3.253z" opacity=".2"/>
                <path stroke="#FFF" d="M360.778 319.39l26-15.023M366.844 322.023l26-15.023M371.844 326.023l26-15.023M379.844 330.023l26-15.023M385.844 334.023l26-15.023M393.844 339.023l26-15.023M401.844 343.023l26-15.023M407.844 347.023l26-15.023"/>
                <g>
                    <path fill="#FAC2C2" d="M439.832 260.453c-2.464-3.583-7.688-9.725-8.68-11.205-.991-1.481-3.517.3-1.543 4.184 1.317 2.59 4.316 6.383 8.998 11.38 2.46-.518 2.868-1.97 1.225-4.36z"/>
                    <path fill="url(#bR)" d="M32.664 10.817c-1.664.146-3.123 1.799-4.378 4.956-1.883 4.737.437 12.947 3.702 13.651 3.265.704 7.585-3.368 8.249-7.144.442-2.518-2.082-6.339-7.573-11.463z" opacity=".5" transform="rotate(11 -1060.853 2272.217)"/>
                    <path fill="#FCCBCB" d="M480.994 288.184c-14.107-9.124-23.422-15.01-27.944-17.657-6.783-3.97-15.362-12.327-18.044-13.886-2.681-1.559-7.976-4.179-9.579-4.51-1.602-.333-9.03 1.994-10.805 2.47-1.775.474-2.219 3.756.747 3.397 2.966-.36 8.599-1.72 9.432-1.478.555.161 2.508 1.071 5.86 2.73-3.484-.814-5.66-1.269-6.528-1.365-1.302-.145-8.093 1.228-9.89 1.608-1.797.38-2.362 3.975 1.48 3.474 3.843-.502 7.001-.798 8.2-.79.798.007 2.786.557 5.964 1.651-3.11-.357-5.14-.541-6.093-.55-1.429-.015-4.832.793-6.845 1.292-2.013.5-1.856 3.95 1.137 3.418 2.993-.532 7.368-.302 8.247-.314.585-.009 1.898.424 3.939 1.298-1.947-.251-3.388-.395-4.323-.434-1.403-.057-5.365.675-6.184.85-.818.175-2.007 2.947 1.288 2.66 3.295-.287 5.97.016 6.83.266.86.25 8.677 4.036 10.758 4.436 1.388.266 12.12 7.696 32.2 22.29l10.153-10.856z"/>
                    <g transform="translate(438.825 225.226)">
                        <mask id="bV" fill="#fff">
                            <use xlink:href="#bS"/>
                        </mask>
                        <use fill="url(#bT)" xlink:href="#bS"/>
                        <path fill="url(#bU)" d="M-14.95 89.334c.127 6.144 8.274 5.486 24.44-1.975 38.696-25.506 57.826-38.658 57.388-39.456-.594-1.083-10.623-21.242-8.625-16.931 1.999 4.31 7.481 9.566-3.352 21.005-19.384 20.468-70.042 28.141-69.85 37.357z" mask="url(#bV)" opacity=".5" transform="rotate(59 25.968 61.932)"/>
                    </g>
                </g>
                <g>
                    <path fill="#FFF" d="M261.378 186.264l95.444 54.573a6 6 0 0 1 3.022 5.209v80.466a2 2 0 0 1-1.127 1.8l-3.366 1.633a2 2 0 0 1-1.951-.115l-91.95-58.831a6 6 0 0 1-2.759-4.758l-3.693-74.678a4.702 4.702 0 0 1 2.657-4.468l1.862-.897a2 2 0 0 1 1.86.066z"/>
                    <g transform="translate(254.844 186.433)">
                        <mask id="bZ" fill="#fff">
                            <use xlink:href="#bW"/>
                        </mask>
                        <use fill="url(#bX)" xlink:href="#bW"/>
                        <path fill="url(#bY)" d="M15.242 6.567C2.733 30.475 1.582 53.875 11.789 76.764c7.512 16.846 29.295 32.282 57.82 42.035 11.752 4.018 22.382 1.917 31.891-6.302l-.5 37.143L-5 90.682l1.176-94.115 19.066 10z" mask="url(#bZ)"/>
                        <path fill="#DFDFF2" d="M57.43 86.879v38.92l-22.553-15.877V77.305z" mask="url(#bZ)" style="mix-blend-mode:multiply"/>
                    </g>
                    <g>
                        <path fill="url(#ca)" d="M27.851 62.066l23.15-9.252L25.607 37.6 1.428 42.07z" transform="translate(273.454 259.933)"/>
                        <path fill="#FFF" d="M291.321 262.683l20.953 9.025v2.63c-2.503.839-4.733 4.127-6.69 9.864-1.802 5.286-3.67 16.45-5.603 33.492a2.76 2.76 0 0 0 3.724 2.89l20.6-7.841 1.767.987-21.62 8.34a7.36 7.36 0 0 1-8.43-2.314c-2.514-3.191-4.08-5.529-4.7-7.013-10.418-24.94-10.481-38.073-8.109-42.22 2.668-4.667 5.371-7.28 8.108-7.84zm.393 30.638c2.27 0 4.112-3.078 4.112-6.875s-1.841-6.875-4.112-6.875-4.112 3.078-4.112 6.875 1.84 6.875 4.112 6.875z"/>
                        <path fill="url(#cb)" d="M17.868 0L38.82 11.774c-2.721 1.304-5.324 4.967-7.81 10.991-2.308 5.597-4.44 17.631-6.395 36.104a3.37 3.37 0 0 0 3.861 3.685 13.85 13.85 0 0 1-8.022-1.898L2.258 49.886a4.6 4.6 0 0 1-2.17-4.845C4 25.112 7.223 12.83 9.758 8.195 12.428 3.317 15.131.585 17.868 0zm-.821 33.794c2.254-.277 3.732-3.354 3.302-6.871-.43-3.518-2.607-6.144-4.861-5.866-2.254.277-3.732 3.354-3.302 6.871.43 3.518 2.607 6.144 4.861 5.866z" transform="translate(273.454 259.933)"/>
                    </g>
                </g>
                <path stroke="#FFF" stroke-linecap="round" stroke-width=".92" d="M293.844 286c-10.598 5.41-17.264 24.077-20 56"/>
            </g>
            <path fill="url(#cc)" d="M117.009 71.758l75.522 44.128A7 7 0 0 1 196 121.93v24.498a2 2 0 0 1-3.009 1.727l-75.522-44.128A7 7 0 0 1 114 97.983V73.485a2 2 0 0 1 3.009-1.727z" transform="translate(152 39)"/>
            <path fill="url(#cd)" d="M76.016.778l60.993 35.961a7 7 0 0 1 3.445 6.03v24.5a2 2 0 0 1-3.016 1.723L76.445 33.031A7 7 0 0 1 73 27.001v-24.5A2 2 0 0 1 76.016.778z" transform="translate(152 39)"/>
            <path fill="#FFF" fill-rule="nonzero" d="M249.154 69.641l-3.819-2.307v5.097L242.967 71V58.203l6.571 3.972v2.382l-4.203-2.54v2.944l3.819 2.307v2.373zm5.02 3.614l-1.282-.774v4.517l-2.369-1.431V62.77l3.866 2.336c1.165.705 2.076 1.592 2.733 2.663a6.486 6.486 0 0 1 .985 3.451c0 .891-.138 1.546-.415 1.964-.277.42-.71.632-1.299.64l2.051 6.398v.132l-2.537-1.533-1.733-5.566zm-1.282-3.156l1.497.905c.45.272.789.323 1.016.152.227-.17.34-.53.34-1.081 0-.551-.114-1.053-.344-1.505a2.64 2.64 0 0 0-1.012-1.082l-1.497-.905V70.1zm12.738 9.175l-3.724-2.251v3.05l4.399 2.658v2.373l-6.768-4.09V68.219l6.781 4.098v2.381l-4.412-2.666v2.698l3.724 2.25v2.295zm7.732 4.673l-3.724-2.251v3.05l4.399 2.658v2.373l-6.768-4.09V72.891l6.781 4.098v2.381l-4.412-2.666v2.698l3.724 2.25v2.295zM288.433 144.315l-2.143-1.238-3.168-9.794v7.963L280.967 140v-12.797l2.155 1.246 3.162 9.79v-7.963l2.15 1.242v12.797zm8.934-.971c0 1.248-.161 2.26-.485 3.033-.323.774-.783 1.248-1.378 1.423-.596.174-1.274.041-2.036-.399-.761-.44-1.437-1.08-2.026-1.922-.59-.842-1.049-1.824-1.378-2.946a13.012 13.012 0 0 1-.52-3.508v-.72c0-1.255.161-2.268.483-3.04.321-.772.782-1.246 1.381-1.42.6-.176 1.283-.042 2.048.4.757.438 1.433 1.086 2.026 1.945.594.859 1.055 1.86 1.385 3.002.33 1.143.496 2.33.5 3.563v.589zm-2.192-1.803c0-1.272-.148-2.323-.445-3.153-.297-.831-.721-1.406-1.274-1.725-1.08-.625-1.652.205-1.713 2.49l-.006.937c0 1.254.145 2.302.436 3.143.29.842.722 1.429 1.295 1.76.545.315.964.226 1.259-.266.295-.492.444-1.357.448-2.597v-.589zm13.668 10.237c-.028.874-.196 1.564-.503 2.07-.307.504-.738.784-1.293.839-.554.054-1.188-.124-1.9-.536-1.175-.68-2.1-1.762-2.775-3.248-.676-1.486-1.014-3.228-1.014-5.226v-.633c0-1.254.153-2.263.458-3.027.305-.764.744-1.237 1.317-1.418.573-.182 1.236-.055 1.99.38 1.084.627 1.956 1.54 2.615 2.738.66 1.199 1.034 2.541 1.124 4.03l-2.15-1.243c-.016-.789-.153-1.428-.41-1.916-.259-.49-.651-.886-1.18-1.192-.536-.31-.929-.25-1.178.18-.25.43-.381 1.272-.393 2.524v.906c0 1.365.12 2.41.359 3.134.24.724.652 1.256 1.237 1.594.495.286.874.338 1.136.155.262-.182.401-.632.417-1.35l2.143 1.24zm8.59 3.163c0 1.248-.161 2.26-.484 3.034-.324.774-.783 1.248-1.379 1.422-.596.174-1.274.042-2.035-.399-.762-.44-1.437-1.08-2.027-1.922-.59-.842-1.049-1.824-1.378-2.946a13.012 13.012 0 0 1-.519-3.508v-.72c0-1.254.16-2.267.482-3.04.321-.772.782-1.245 1.382-1.42.6-.175 1.282-.041 2.047.4.758.439 1.433 1.087 2.027 1.945.593.86 1.055 1.86 1.384 3.002.33 1.143.497 2.33.5 3.564v.588zm-2.191-1.803c0-1.271-.149-2.322-.446-3.153-.296-.83-.721-1.406-1.274-1.725-1.08-.625-1.651.205-1.713 2.49l-.006.937c0 1.254.145 2.302.436 3.144.29.842.722 1.428 1.296 1.76.544.314.964.225 1.258-.266.295-.492.444-1.358.449-2.598v-.589zm7.914 7.844c0-.45-.111-.867-.334-1.248-.223-.38-.615-.868-1.176-1.462-.561-.593-1.02-1.119-1.376-1.577-1.158-1.484-1.737-2.938-1.737-4.362 0-.709.144-1.25.433-1.626.288-.375.697-.56 1.225-.557.528.003 1.121.195 1.78.576a6.317 6.317 0 0 1 1.729 1.491c.51.623.905 1.32 1.188 2.089.282.77.424 1.544.424 2.323l-2.15-1.242c0-.521-.111-.99-.334-1.406a2.36 2.36 0 0 0-.906-.954c-.385-.223-.689-.277-.912-.162-.223.114-.334.358-.334.733 0 .328.122.697.368 1.105.246.409.678.934 1.296 1.575.618.642 1.125 1.241 1.522 1.799.966 1.355 1.45 2.733 1.45 4.133 0 1.12-.295 1.828-.885 2.126-.59.298-1.398.15-2.425-.444a7.278 7.278 0 0 1-1.968-1.695 7.729 7.729 0 0 1-1.326-2.296 7.27 7.27 0 0 1-.445-2.494l2.16 1.249c0 .686.125 1.262.372 1.73.248.47.65.864 1.207 1.186.356.206.638.259.844.158.207-.1.31-.35.31-.748zm10.279-1.073l-2.683-1.55v10.414l-2.155-1.245v-10.415l-2.635-1.523v-2.381l7.473 4.318v2.382z"/>
        </g>
    </g>
</svg>
