<svg xmlns="http://www.w3.org/2000/svg" width="89" height="119" viewBox="0 0 89 119">
    <path fill="none" fill-rule="nonzero" stroke="#D0DBF6" stroke-linecap="round" stroke-linejoin="round" stroke-width="4" d="M86.14 116.745H3.25v-20.31l27.89-28.199c7.97-8.332 13.178-14.021 15.626-17.068 2.448-3.046 4.153-5.663 5.117-7.85a16.869 16.869 0 0 0 1.445-6.874c0-2.969-.963-5.312-2.89-7.03-1.928-1.719-4.636-2.578-8.126-2.578-3.593 0-7.226 1.028-10.898 3.085-3.672 2.057-7.825 5.09-12.46 9.1L2 19.182c5.885-5.26 10.833-9.022 14.844-11.288 4.01-2.265 8.372-3.997 13.086-5.194C34.643 1.5 39.943.902 45.828.902c7.396 0 13.997 1.302 19.805 3.906 5.807 2.604 10.312 6.314 13.515 11.13 3.204 4.818 4.805 10.22 4.805 16.21 0 4.478-.56 8.618-1.68 12.42-1.12 3.801-2.851 7.538-5.195 11.209-2.344 3.671-5.456 7.538-9.336 11.6-3.88 4.062-12.148 11.77-24.805 23.122v.78h43.204v25.466z" opacity=".4"/>
</svg>
