<svg xmlns="http://www.w3.org/2000/svg" width="86" height="121" viewBox="0 0 86 121">
    <path fill="none" fill-rule="nonzero" stroke="#D0DBF6" stroke-linecap="round" stroke-linejoin="round" stroke-width="4" d="M80.36 27.278c0 7.082-2.162 13.162-6.485 18.24-4.323 5.077-10.573 8.761-18.75 11.053v.468c19.063 2.396 28.594 11.405 28.594 27.028 0 10.623-4.206 18.981-12.617 25.074-8.412 6.093-20.092 9.14-35.04 9.14-6.145 0-11.835-.443-17.07-1.328-5.234-.886-10.898-2.5-16.992-4.843V86.488c5 2.552 10.091 4.44 15.273 5.664 5.183 1.223 9.961 1.835 14.336 1.835 6.771 0 11.706-.95 14.805-2.85 3.099-1.902 4.648-4.883 4.648-8.945 0-3.125-.807-5.533-2.421-7.226-1.615-1.692-4.22-2.968-7.813-3.827-3.594-.86-8.281-1.289-14.062-1.289h-7.032v-23.2h7.188c15.677 0 23.515-4.01 23.515-12.03 0-3.02-1.158-5.259-3.476-6.717-2.318-1.458-5.43-2.187-9.336-2.187-7.292 0-14.844 2.447-22.656 7.342L2.156 12.436C8.198 8.27 14.383 5.302 20.711 3.531 27.039 1.761 34.29.875 42.469.875c11.823 0 21.093 2.344 27.812 7.03C77 12.594 80.36 19.05 80.36 27.279z" opacity=".4"/>
</svg>
