<svg xmlns="http://www.w3.org/2000/svg" xmlns:xlink="http://www.w3.org/1999/xlink" width="598" height="612" viewBox="0 0 598 612">
    <defs>
        <linearGradient id="a" x1="102.62%" x2="18.388%" y1="43.604%" y2="65.481%">
            <stop offset="0%" stop-color="#FFF"/>
            <stop offset="100%" stop-color="#F2F5FE"/>
        </linearGradient>
        <linearGradient id="b" x1="34.218%" x2="116.96%" y1="63.91%" y2="51.501%">
            <stop offset="0%" stop-color="#6D7FE7"/>
            <stop offset="100%" stop-color="#7E9EEF"/>
        </linearGradient>
        <linearGradient id="c" x1="34.218%" x2="116.96%" y1="66.87%" y2="51.821%">
            <stop offset="0%" stop-color="#6D7FE7"/>
            <stop offset="100%" stop-color="#7E9EEF"/>
        </linearGradient>
        <linearGradient id="d" x1="44.847%" x2="71.865%" y1="80.156%" y2="53.255%">
            <stop offset="0%" stop-color="#6D7FE7"/>
            <stop offset="100%" stop-color="#7E9EEF"/>
        </linearGradient>
        <linearGradient id="e" x1="50%" x2="32.99%" y1="0%" y2="80.365%">
            <stop offset="0%" stop-color="#788FE3"/>
            <stop offset="100%" stop-color="#788EE2" stop-opacity="0"/>
        </linearGradient>
        <linearGradient id="f" x1="50%" x2="35.405%" y1="0%" y2="80.365%">
            <stop offset="0%" stop-color="#788FE3"/>
            <stop offset="100%" stop-color="#788EE2" stop-opacity="0"/>
        </linearGradient>
        <linearGradient id="g" x1="15.243%" x2="74.918%" y1="0%" y2="106.928%">
            <stop offset="0%" stop-color="#45DB76"/>
            <stop offset="100%" stop-color="#38CA89"/>
        </linearGradient>
        <linearGradient id="h" x1="103.36%" x2="40.441%" y1="40.287%" y2="57.152%">
            <stop offset="0%" stop-color="#364D83" stop-opacity=".602"/>
            <stop offset="100%" stop-color="#B2C4FF"/>
        </linearGradient>
        <filter id="i" width="105%" height="108.6%" x="-2.5%" y="-4.3%" filterUnits="objectBoundingBox">
            <feGaussianBlur in="SourceGraphic" stdDeviation="3"/>
        </filter>
        <linearGradient id="j" x1="42.163%" x2="59.334%" y1="79.929%" y2="5.51%">
            <stop offset="0%" stop-color="#6E72CC"/>
            <stop offset="100%" stop-color="#7E9EEF"/>
        </linearGradient>
        <linearGradient id="k" x1="54.313%" x2="52.32%" y1="15.694%" y2="120.645%">
            <stop offset="0%" stop-color="#3C44A0"/>
            <stop offset="100%" stop-color="#7077D0"/>
        </linearGradient>
        <linearGradient id="m" x1="37.562%" x2="64.814%" y1="79.929%" y2="5.51%">
            <stop offset="0%" stop-color="#6E72CC"/>
            <stop offset="100%" stop-color="#7E9EEF"/>
        </linearGradient>
        <path id="l" d="M40.5 0c33.566 15.824 51.246 28.565 53.041 38.22 2.693 14.485 2.693 91.263 2.693 101.19 0 9.927-4.045 27.864-34.221 35.863C41.895 180.606 21.224 171.96 0 149.337L40.5 0z"/>
        <linearGradient id="n" x1="37.562%" x2="64.814%" y1="79.929%" y2="5.51%">
            <stop offset="0%" stop-color="#6E72CC"/>
            <stop offset="100%" stop-color="#5D85E8"/>
        </linearGradient>
        <path id="p" d="M16.65 27.758c0 1.572-1.483 3.108-4.384 3.822-2.901.713-7.111.182-8.573-1.569-.975-1.167-2.17-1.738-3.588-1.713L2.128.474l17.84.52C17.757 17.789 16.65 26.71 16.65 27.758z"/>
        <linearGradient id="q" x1="104.216%" x2="8.122%" y1="34.279%" y2="66.032%">
            <stop offset="0%" stop-color="#FCCBCB"/>
            <stop offset="100%" stop-color="#E77575"/>
        </linearGradient>
        <path id="s" d="M119.532 0c2.991 32.715-2.612 52.57-16.808 59.566-14.197 6.995-27.985 18.715-41.365 35.16l-41.434 74.602c-4.341 1.548-8.607 1.548-12.796 0C2.94 167.779.564 165.165 0 161.485l34.314-90.651L83.858 6.767 119.532 0z"/>
        <linearGradient id="v" x1="50%" x2="50%" y1="0%" y2="100%">
            <stop offset="0%" stop-color="#D9E4EE"/>
            <stop offset="100%" stop-color="#B1C5D8"/>
        </linearGradient>
        <path id="u" d="M0 33.44l11.396 6.49c3.876-6.02 11.519-12.15 22.928-18.393 9.27-5.071 17.149-9.61 23.637-13.615A9 9 0 0 0 62.234.264V0L8.915 24.12 0 33.44z"/>
        <linearGradient id="y" x1="8.019%" y1="59.305%" y2="36.168%">
            <stop offset="0%" stop-color="#6E72CC"/>
            <stop offset="100%" stop-color="#7E9EEF"/>
        </linearGradient>
        <path id="x" d="M0 31.934c0 5.463 6.378 6.65 15.114 4.434 8.735-2.217 44.225-23.434 50.048-27.434C70.986 4.934 62.611 0 55.377 0S0 26.471 0 31.934z"/>
        <linearGradient id="z" x1="8.019%" y1="56.301%" y2="40.633%">
            <stop offset="0%" stop-color="#6E72CC"/>
            <stop offset="100%" stop-color="#5D85E8"/>
        </linearGradient>
        <path id="B" d="M16.544 23.687c0 1.572-1.483 3.109-4.384 3.822-2.9.714-7.11.182-8.573-1.568-.975-1.167-2.17-1.738-3.587-1.713L1.622 0l17.84.52c-1.945 14.397-2.918 22.12-2.918 23.167z"/>
        <linearGradient id="C" x1="104.216%" x2="8.122%" y1="-2.058%" y2="103.089%">
            <stop offset="0%" stop-color="#FCCBCB"/>
            <stop offset="100%" stop-color="#E77575"/>
        </linearGradient>
        <path id="E" d="M128.134 13.143c2.766 27.587-2.949 44.878-17.145 51.873-14.197 6.995-29.72 19.778-46.568 38.348l4.964 85.017c-6.032 2.87-10.987 4.058-14.865 3.563-3.878-.494-6.431-2.485-7.658-5.972L32.22 89.03l39.722-51.614 8.776-25.526 47.416 1.252z"/>
        <linearGradient id="H" x1="50%" x2="66.363%" y1="7.446%" y2="91.806%">
            <stop offset="0%" stop-color="#3ED380"/>
            <stop offset="100%" stop-color="#0F9F4D"/>
        </linearGradient>
        <path id="G" d="M63.755.36c-2.93.852-14.204 22.693-33.826 65.522L.009 93.072c7.795 7.085 14.225 8.605 19.29 4.56 11.366-9.08 23.126-17.041 25.049-18.809 5.216-4.797 32.115-53.599 32.115-63.03 0-9.43-8.315-16.713-12.708-15.434z"/>
        <linearGradient id="I" x1="44.675%" x2="48.446%" y1="83.478%" y2="8.312%">
            <stop offset="0%" stop-color="#056461" stop-opacity="0"/>
            <stop offset="100%" stop-color="#144269"/>
        </linearGradient>
        <linearGradient id="L" x1="50%" x2="64.454%" y1="7.446%" y2="91.806%">
            <stop offset="0%" stop-color="#3ED380"/>
            <stop offset="100%" stop-color="#0F9F4D"/>
        </linearGradient>
        <path id="K" d="M50.574 6.204c9.831 6.89 26.936 20.7 29.92 25.518 2.984 4.817-.257 18.07-10.684 34.44-10.427 16.372-.27 29.54 1.955 37.012.606 2.034-23.261 15.066-43.779 8.198-7.36-2.464-16.548-9.02-16.4-11.08.517-7.152 1.924-14.041-1.215-25.938C8.86 68.627 1.118 60.331.239 53.17c-1.202-9.786 4.226-17.99 4.245-26.764.018-8.774.764-22.948 4.339-24.85 3.574-1.903 31.92-2.242 41.751 4.648z"/>
        <linearGradient id="M" x1="43.303%" x2="59.327%" y1="105.911%" y2="33.418%">
            <stop offset="0%" stop-color="#1B4A7A"/>
            <stop offset="100%" stop-color="#0041AE"/>
        </linearGradient>
        <linearGradient id="O" x1="45.584%" x2="56.15%" y1="105.911%" y2="33.418%">
            <stop offset="0%" stop-color="#1B4A7A"/>
            <stop offset="100%" stop-color="#0041AE"/>
        </linearGradient>
        <linearGradient id="P" x1="40.918%" x2="47.349%" y1="83.478%" y2="8.312%">
            <stop offset="0%" stop-color="#056461" stop-opacity="0"/>
            <stop offset="100%" stop-color="#144269"/>
        </linearGradient>
        <linearGradient id="R" x1="50%" x2="61.989%" y1="7.446%" y2="91.806%">
            <stop offset="0%" stop-color="#FAFCFF"/>
            <stop offset="100%" stop-color="#EEF5FF"/>
        </linearGradient>
        <path id="Q" d="M30.488 5.268c.517 9.707-2.195 17.246-8.135 22.618-8.91 8.058-11.78 12.544-13.191 12.09-1.412-.455-3.473-18.459-4.27-24.96-.797-6.501 3.466-13.42 9.23-14.129 3.841-.472 9.297.988 16.366 4.381z"/>
        <linearGradient id="T" x1="104.216%" x2="8.122%" y1="-2.968%" y2="104.016%">
            <stop offset="0%" stop-color="#FCCBCB"/>
            <stop offset="100%" stop-color="#E77575"/>
        </linearGradient>
        <path id="U" d="M21.771.403c-.764 6.044-.856 10.4-.275 13.071.581 2.671 1.744 4.774 3.488 6.309-1.821 3.46-3.321 5.741-4.5 6.844-4.483 4.195-9.434 5.577-12.653 6.28C1.098 34.374.377 24.832.503 21.343c2.555-.739 3.613-4.168 3.173-10.288L21.771.403z"/>
        <linearGradient id="V" x1="99.337%" x2="11.891%" y1="-8.65%" y2="109.811%">
            <stop offset="0%" stop-color="#FCCBCB"/>
            <stop offset="100%" stop-color="#E77575"/>
        </linearGradient>
        <linearGradient id="X" x1="104.216%" x2="8.122%" y1="32.716%" y2="67.626%">
            <stop offset="0%" stop-color="#FCCBCB"/>
            <stop offset="100%" stop-color="#E77575"/>
        </linearGradient>
        <linearGradient id="Y" x1="45.529%" x2="62.69%" y1="46.174%" y2="39.656%">
            <stop offset="0%" stop-color="#FAFCFF"/>
            <stop offset="100%" stop-color="#C7D5EF"/>
        </linearGradient>
        <linearGradient id="Z" x1="50%" x2="60.613%" y1="7.446%" y2="91.806%">
            <stop offset="0%" stop-color="#FAFCFF"/>
            <stop offset="100%" stop-color="#EEF5FF"/>
        </linearGradient>
        <linearGradient id="aa" x1="50%" x2="51.508%" y1="7.446%" y2="91.806%">
            <stop offset="0%" stop-color="#FAFCFF"/>
            <stop offset="100%" stop-color="#EEF5FF"/>
        </linearGradient>
        <path id="ab" d="M2.283 11.567c-.855 2.875-1.525 8.18-2.01 15.912-.256 4.088.087 9.258 0 12.364-.16 5.706 1.885 8.852 2.886 9.376 3.882 2.034 7.255.807 13.872-1.322 6.618-2.13 8.195-4.643 9.572-7.209 1.377-2.565 2.26-3.32 4.683-8.56 2.422-5.241 8.41-13.2 6.935-19.79C36.746 5.745 30.522-.538 19.911.38 12.839.992 6.962 4.72 2.284 11.567z"/>
        <path id="ad" d="M.195 8.678C3.177 3.968 6.385 1.21 9.82.407c5.154-1.205 12.47 1.924 13.658 11.396.792 6.315-3.436 9.906-12.684 10.773L.195 8.678z"/>
        <path id="af" d="M9.958 21.073c-7.902-.787-10.92-4.529-9.41-9.757C2.055 6.086 9.604-.292 22.607.09 35.608.475 42 4.038 41.615 15.523c-.384 11.486-10.317 28.824-6.694 14.793-2.592 2.613-4.991 1.014-6.024 0-2.17-2.131-2.671-8.948-5.346-9.9-3.122-1.113-9.338 1.082-13.594.657z"/>
        <path id="ah" d="M.195 8.678C3.177 3.968 6.385 1.21 9.82.407c5.154-1.205 12.47 1.924 13.658 11.396.792 6.315-3.436 9.906-12.684 10.773L.195 8.678z"/>
        <linearGradient id="aj" x1="43.984%" x2="78.302%" y1="12.238%" y2="0%">
            <stop offset="0%" stop-color="#FCCBCB"/>
            <stop offset="100%" stop-color="#E77575"/>
        </linearGradient>
        <path id="ak" d="M0 33.44l11.396 6.49c3.876-6.02 11.519-12.15 22.928-18.393 9.27-5.071 17.149-9.61 23.637-13.615A9 9 0 0 0 62.234.264V0L8.915 24.12 0 33.44z"/>
        <path id="am" d="M0 31.934c0 5.463 6.378 6.65 15.114 4.434 8.735-2.217 44.225-23.434 50.048-27.434C70.986 4.934 62.611 0 55.377 0S0 26.471 0 31.934z"/>
        <linearGradient id="ap" x1="49.276%" x2="50.863%" y1="79.929%" y2="5.51%">
            <stop offset="0%" stop-color="#6E72CC"/>
            <stop offset="100%" stop-color="#7E9EEF"/>
        </linearGradient>
        <path id="ao" d="M0 1.73l2.72 142.437c0 2.363 1.748 3.544 5.245 3.544 3.496 0 5.129-1.181 4.897-3.544L19.403 0 0 1.73z"/>
        <linearGradient id="aq" x1="49.276%" x2="50.863%" y1="79.929%" y2="5.51%">
            <stop offset="0%" stop-color="#CED0FF"/>
            <stop offset="100%" stop-color="#FFF"/>
        </linearGradient>
        <path id="as" d="M0 4.775L27.24.52l1.356 1.851L3.373 13.103z"/>
        <linearGradient id="at" x1="8.019%" y1="52.132%" y2="46.831%">
            <stop offset="0%" stop-color="#CED0FF"/>
            <stop offset="100%" stop-color="#FFF"/>
        </linearGradient>
        <path id="av" d="M6.446 11.992c2.576-1.147 3.344-3.42 1.703-7.104-1.64-3.685-3.19-4.857-5.56-3.802C.22 2.141-.014 4.631 1 7.5c1.015 2.869 2.87 5.639 5.446 4.492z"/>
        <path id="ax" d="M34.567.207H.471L0 2.137l33.714 7.537z"/>
        <linearGradient id="ay" x1="8.019%" y1="50.141%" y2="49.79%">
            <stop offset="0%" stop-color="#CED0FF"/>
            <stop offset="100%" stop-color="#FFF"/>
        </linearGradient>
        <linearGradient id="aA" x1="8.019%" y1="57.936%" y2="38.203%">
            <stop offset="0%" stop-color="#6E72CC"/>
            <stop offset="100%" stop-color="#7E9EEF"/>
        </linearGradient>
        <path id="aB" d="M0 8.328l12.988 36.82 2.92-.655L12.26 8.328 12.081 0c-.614 1.838-2.588 2.757-5.921 2.757C2.826 2.757.773 1.837 0 0v8.328z"/>
        <linearGradient id="aC" x1="44.969%" x2="55.992%" y1="79.929%" y2="5.51%">
            <stop offset="0%" stop-color="#CED0FF"/>
            <stop offset="100%" stop-color="#FFF"/>
        </linearGradient>
        <linearGradient id="aE" x1="51.234%" x2="50.663%" y1="15.694%" y2="120.645%">
            <stop offset="0%" stop-color="#3C44A0"/>
            <stop offset="100%" stop-color="#7077D0"/>
        </linearGradient>
        <linearGradient id="aF" x1="49.12%" x2="51.048%" y1="79.929%" y2="5.51%">
            <stop offset="0%" stop-color="#6E72CC"/>
            <stop offset="100%" stop-color="#7E9EEF"/>
        </linearGradient>
        <linearGradient id="aH" x1="50%" x2="81.904%" y1="47.668%" y2="67.375%">
            <stop offset="0%" stop-color="#D5E3FF"/>
            <stop offset="100%" stop-color="#B8CDFF"/>
        </linearGradient>
        <path id="aG" d="M30 0l232 134v9l-109.305 64.5L0 26z"/>
        <linearGradient id="aJ" x1="81.554%" x2="81.554%" y1="32.571%" y2="98.172%">
            <stop offset="0%" stop-color="#E0E9FF"/>
            <stop offset="100%" stop-color="#E9EFFF"/>
        </linearGradient>
        <linearGradient id="aL" x1="15.179%" x2="102.463%" y1="50%" y2="34.94%">
            <stop offset="0%" stop-color="#FCFCFD"/>
            <stop offset="100%" stop-color="#E4ECFF"/>
        </linearGradient>
        <path id="aK" d="M110 0l232 134-109.305 64.5-232-134z"/>
        <linearGradient id="aO" x1="50%" x2="81.904%" y1="49.426%" y2="54.275%">
            <stop offset="0%" stop-color="#D5E3FF"/>
            <stop offset="100%" stop-color="#B8CDFF"/>
        </linearGradient>
        <ellipse id="aN" cx="16" cy="11.5" rx="14" ry="5.5"/>
        <linearGradient id="aR" x1="8.019%" y1="54.619%" y2="43.134%">
            <stop offset="0%" stop-color="#6E72CC"/>
            <stop offset="100%" stop-color="#7E9EEF"/>
        </linearGradient>
        <ellipse id="aQ" cx="16" cy="11.5" rx="14" ry="5.5"/>
        <linearGradient id="aS" x1="57.501%" x2="54.034%" y1="15.694%" y2="120.645%">
            <stop offset="0%" stop-color="#3C44A0"/>
            <stop offset="100%" stop-color="#7077D0"/>
        </linearGradient>
        <linearGradient id="aU" x1="30.198%" x2="96.541%" y1="29.35%" y2="78.813%">
            <stop offset="0%" stop-color="#CED0FF"/>
            <stop offset="100%" stop-color="#FFF"/>
        </linearGradient>
        <filter id="aV" width="114.5%" height="126.4%" x="-7.3%" y="-13.2%" filterUnits="objectBoundingBox">
            <feGaussianBlur in="SourceGraphic" stdDeviation="2"/>
        </filter>
        <linearGradient id="aW" x1="8.019%" y1="54.593%" y2="43.172%">
            <stop offset="0%" stop-color="#CED0FF"/>
            <stop offset="100%" stop-color="#FFF"/>
        </linearGradient>
        <filter id="aX" width="104.9%" height="112.4%" x="-2.4%" y="-6.2%" filterUnits="objectBoundingBox">
            <feGaussianBlur in="SourceGraphic" stdDeviation="2"/>
        </filter>
        <linearGradient id="aY" x1="23.684%" x2="46.031%" y1="170.285%" y2="8.312%">
            <stop offset="0%" stop-color="#056461" stop-opacity="0"/>
            <stop offset="100%" stop-color="#144269"/>
        </linearGradient>
        <linearGradient id="ba" x1="50%" x2="77.784%" y1="38.039%" y2="61.751%">
            <stop offset="0%" stop-color="#3ED380"/>
            <stop offset="100%" stop-color="#0F9F4D"/>
        </linearGradient>
        <path id="aZ" d="M117.228 57.035C110.61 72.544 51.5 51.64 39.756 45.79 32.683 42.267 19.431 32.573 0 16.71c3.013-1.198 5.105-3.273 6.277-6.225 1.17-2.952.835-6.317-1.009-10.096l43.138 26.829c32.167 9.097 51.706 14.693 58.618 16.786 8.584 2.6 11.233 10.619 10.204 13.03z"/>
        <linearGradient id="bb" x1="20.444%" x2="41.373%" y1="70.889%" y2="23.989%">
            <stop offset="0%" stop-color="#056461" stop-opacity="0"/>
            <stop offset="100%" stop-color="#144269"/>
        </linearGradient>
        <linearGradient id="bd" x1="67.773%" x2="26.332%" y1="36.05%" y2="63.171%">
            <stop offset="0%" stop-color="#20A548"/>
            <stop offset="100%" stop-color="#1EA449"/>
        </linearGradient>
        <linearGradient id="bf" x1="29.631%" x2="74.259%" y1="79.929%" y2="5.51%">
            <stop offset="0%" stop-color="#6E72CC"/>
            <stop offset="100%" stop-color="#7E9EEF"/>
        </linearGradient>
        <path id="be" d="M2.998 1.725l94.995 54.676A6 6 0 0 1 101 61.6v79.882a2 2 0 0 1-3.023 1.718L2.932 86.643A6 6 0 0 1 0 81.487V3.459a2 2 0 0 1 2.998-1.734z"/>
        <linearGradient id="bg" x1="29.678%" x2="74.203%" y1="79.929%" y2="5.51%">
            <stop offset="0%" stop-color="#6E72CC"/>
            <stop offset="100%" stop-color="#5D85E8"/>
        </linearGradient>
        <linearGradient id="bi" x1="8.019%" y1="57.291%" y2="39.162%">
            <stop offset="0%" stop-color="#6E72CC"/>
            <stop offset="100%" stop-color="#7E9EEF"/>
        </linearGradient>
        <linearGradient id="bj" x1="33.852%" x2="69.233%" y1="79.929%" y2="5.51%">
            <stop offset="0%" stop-color="#6E72CC"/>
            <stop offset="100%" stop-color="#7E9EEF"/>
        </linearGradient>
        <linearGradient id="bk" x1="13.282%" x2="72.538%" y1="-17.61%" y2="76.248%">
            <stop offset="0%" stop-color="#B8FF76"/>
            <stop offset="100%" stop-color="#3ED380"/>
        </linearGradient>
        <linearGradient id="bl" x1="50%" x2="62.524%" y1="7.446%" y2="91.806%">
            <stop offset="0%" stop-color="#3ED380"/>
            <stop offset="100%" stop-color="#0F9F4D"/>
        </linearGradient>
        <linearGradient id="bm" x1="49.455%" x2="50.14%" y1="-29.076%" y2="91.806%">
            <stop offset="0%" stop-color="#3ED380"/>
            <stop offset="100%" stop-color="#0F9F4D"/>
        </linearGradient>
        <linearGradient id="bn" x1="50.665%" x2="8.424%" y1="17.409%" y2="129.166%">
            <stop offset="0%" stop-color="#E6E9FF"/>
            <stop offset="100%" stop-color="#D4D8FF"/>
        </linearGradient>
        <linearGradient id="bo" x1="49.294%" x2="50.181%" y1="-29.076%" y2="91.806%">
            <stop offset="0%" stop-color="#3ED380"/>
            <stop offset="100%" stop-color="#0F9F4D"/>
        </linearGradient>
        <linearGradient id="bp" x1="34.941%" x2="63.866%" y1="84.832%" y2="-40.551%">
            <stop offset="0%" stop-color="#5E6BFE"/>
            <stop offset="100%" stop-color="#7E89FE"/>
        </linearGradient>
        <linearGradient id="bq" x1="-31.458%" y1="13.158%" y2="64.303%">
            <stop offset="0%" stop-color="#B8FF76"/>
            <stop offset="100%" stop-color="#3ED380"/>
        </linearGradient>
        <linearGradient id="br" x1="50%" x2="77.784%" y1="28.914%" y2="70.716%">
            <stop offset="0%" stop-color="#3ED380"/>
            <stop offset="100%" stop-color="#0F9F4D"/>
        </linearGradient>
        <linearGradient id="bs" x1="20.011%" x2="68.408%" y1="-17.61%" y2="76.248%">
            <stop offset="0%" stop-color="#B8FF76"/>
            <stop offset="100%" stop-color="#3ED380"/>
        </linearGradient>
        <linearGradient id="bt" x1="50%" x2="59.385%" y1="7.446%" y2="91.806%">
            <stop offset="0%" stop-color="#3ED380"/>
            <stop offset="100%" stop-color="#0F9F4D"/>
        </linearGradient>
        <linearGradient id="bu" x1="88.153%" x2="60.388%" y1="64.772%" y2="91.806%">
            <stop offset="0%" stop-color="#3ED380"/>
            <stop offset="100%" stop-color="#0F9F4D"/>
        </linearGradient>
        <linearGradient id="bv" x1="68.804%" x2="60.113%" y1="29.333%" y2="92.559%">
            <stop offset="0%" stop-color="#3C44A0"/>
            <stop offset="100%" stop-color="#7077D0"/>
        </linearGradient>
        <linearGradient id="bw" x1="81.554%" x2="81.554%" y1="32.571%" y2="98.172%">
            <stop offset="0%" stop-color="#E0E9FF"/>
            <stop offset="100%" stop-color="#E9EFFF"/>
        </linearGradient>
        <linearGradient id="bx" x1="100%" x2="3.286%" y1="43.361%" y2="79.52%">
            <stop offset="0%" stop-color="#3ED380"/>
            <stop offset="100%" stop-color="#0F9F4D"/>
        </linearGradient>
        <linearGradient id="by" x1="100%" x2="3.286%" y1="8.634%" y2="233.937%">
            <stop offset="0%" stop-color="#3ED380"/>
            <stop offset="100%" stop-color="#0F9F4D"/>
        </linearGradient>
        <linearGradient id="bz" x1="65.01%" x2="50%" y1="7.247%" y2="97.828%">
            <stop offset="0%" stop-color="#1B2D63"/>
            <stop offset="100%" stop-color="#5D70C2"/>
        </linearGradient>
    </defs>
    <g fill="none" fill-rule="evenodd">
        <path fill="#F2F5FE" d="M515.54 236.416c115.624 71.364 108.827 187.233-15.183 258.8-124.01 71.568-318.271 71.733-433.896.368-115.625-71.364-108.828-187.233 15.182-258.8 124.01-71.568 318.271-71.733 433.896-.368z"/>
        <path fill="url(#a)" d="M340.679 477.913c49.526 30.613 46.615 80.316-6.503 111.016-53.118 30.7-136.328 30.77-185.855.158-49.526-30.613-46.615-80.316 6.503-111.016 53.118-30.7 136.328-30.77 185.855-.158z" opacity=".8" transform="translate(-16)"/>
        <path fill="#FFF" stroke="#6E81E7" stroke-width=".54" d="M540.898 141.642l-150.46 85.184.317-140.034a1.53 1.53 0 0 1 .77-1.324L539.844.53a.63.63 0 0 1 .943.546l.11 140.565z" opacity=".6"/>
        <path fill="url(#b)" d="M0 0l17.962 9.85V12.2L0 2.432z" opacity=".5" transform="matrix(-1 0 0 1 439.96 82)"/>
        <path fill="url(#c)" d="M7 9l10.962 5.85V17.2L7 11.432z" opacity=".3" transform="matrix(-1 0 0 1 439.96 82)"/>
        <path fill="url(#d)" d="M21.211 11.225l7.644 4.702a.27.27 0 0 1 .128.23L29 25.198l-8-4.865.006-8.994a.135.135 0 0 1 .205-.115z" opacity=".3" transform="matrix(-1 0 0 1 439.96 82)"/>
        <path fill="url(#e)" d="M130.04 179c-3.766-6.464-13.875-42.925-32.196-50.88-18.32-7.957-27.563 6.396-43.743-5.529-16.18-11.925.165-52.555-40.116-82.788v89.163l116.056 65.232V179z" opacity=".2" transform="matrix(-1 0 0 1 542 0)"/>
        <path fill="url(#f)" d="M116 186.306l-2-1.124v-40.973a91.048 91.048 0 0 1 2 3.383v38.714zm-20-11.241l-2-1.125v-47.217c.655.19 1.321.41 2 .658v47.684zm-20-11.242l-2-1.124v-35.667c.664-.103 1.33-.215 2-.329v37.12zm-20-11.241l-2-1.124v-28.942l.101.075c.644.474 1.276.907 1.899 1.301v28.69zM36 141.34l-2-1.124V62.053a68.485 68.485 0 0 1 2 3.777v75.51zM16 130.1l-2-1.124v-89.16c.683.512 1.35 1.028 2 1.546V130.1z" opacity=".2" transform="matrix(-1 0 0 1 542 0)"/>
        <path stroke="url(#g)" stroke-linecap="round" stroke-linejoin="round" stroke-width="4" d="M130.04 179c-3.766-6.464-13.875-42.925-32.196-50.88-18.32-7.957-27.563 6.396-43.743-5.529-16.18-11.925.165-52.555-40.116-82.788" transform="matrix(-1 0 0 1 542 0)"/>
        <g>
            <path fill="url(#h)" d="M266.188 336.905L347.233 334l-22.398 40.343 36.791 22.506-116.85 73.236L0 321.043l27.925-18.026L137.91 260z" filter="url(#i)" opacity=".211" transform="matrix(-1 0 0 1 541.156 56)"/>
            <path fill="url(#j)" d="M30.442 175v142.204l82.182 48.009V223.426z" transform="matrix(-1 0 0 1 541.156 56)"/>
            <path fill="url(#k)" d="M112.646 365.213l88.59-51.712.853-75.307 1.544-62.964-90.987 48.7z" transform="matrix(-1 0 0 1 541.156 56)"/>
            <g transform="matrix(-1 0 0 1 275.156 135)">
                <mask id="o" fill="#fff">
                    <use xlink:href="#l"/>
                </mask>
                <use fill="url(#m)" xlink:href="#l"/>
                <path fill="url(#n)" d="M25.5-4c33.566 15.824 51.246 28.565 53.041 38.22 2.693 14.485 2.693 91.263 2.693 101.19 0 9.927-4.045 27.864-34.221 35.863C26.895 176.606 6.224 167.96-15 145.337L25.5-4z" mask="url(#o)"/>
            </g>
            <path fill="#B59272" d="M369.46 440.195c.394 2.031-1.432 7.358-13.785 6.593-7.824-.484-16.704-3.63-26.638-9.44-1.047-.612-1.628-1.213-1.743-1.803l-.58-2.98c18.384-1.628 29.962-1.624 34.735.01 3.75 1.284 6.906 1.941 7.262 3.774l.748 3.846z"/>
            <path fill="#471E0D" d="M368.711 436.349c.395 2.03-1.43 7.358-13.784 6.593-8.235-.51-17.64-3.969-28.212-10.378l.178-1.107-1.234-6.348c-.19-.98 1.05-3.246 2.969-3.619 1.918-.373 5.993 1.392 9.243 1.245 3.251-.147 4.968-2.542 7.892-1.534 2.924 1.008 7.78 5.076 14.939 7.527 7.16 2.452 7.615 5.59 8.01 7.62z"/>
            <path fill="#884E36" d="M354.597 442.019c-8.727-.54-17.961-4.061-27.704-10.562l-1.234-6.348c-.19-.98 1.05-3.246 2.969-3.619 1.918-.373 5.993 1.392 9.243 1.245 3.251-.147 4.968-2.542 7.892-1.534 2.924 1.008 7.78 5.076 14.939 7.527 5.807 1.989 7.203 4.429 7.734 6.363.421 1.532-.748 7.738-13.839 6.928z"/>
            <path stroke="#471E0D" stroke-linecap="round" stroke-linejoin="round" stroke-width="1.1" d="M343.23 423.174c3.987 3.307 8.107 5.875 12.359 7.702"/>
            <g transform="scale(-1 1) rotate(11 -2211.463 -1561.443)">
                <mask id="r" fill="#fff">
                    <use xlink:href="#p"/>
                </mask>
                <use fill="#FCCBCB" xlink:href="#p"/>
                <path fill="url(#q)" d="M16.681 21.602c-2.392 5.168-9.78 6.641-22.163 4.42-12.383-2.222-11.027-8.81 4.07-19.766l27.672 7.065-9.579 8.281z" mask="url(#r)"/>
            </g>
            <path stroke="#B59272" stroke-linecap="round" stroke-linejoin="round" stroke-width="1.1" d="M354.999 422.832c-1.575 1.361-5.841 2.388-8.029 1.184-1.458-.803-2.676-1.16-3.652-1.07a17.481 17.481 0 0 0-7.419-.157c-1.732.337-3.576 2.097-2.7 4.572.852 2.411 3.995 3.303 5.434 1.52 2.708-3.354 2.42-4.839 5.066-5.779 2.647-.94 4.6.508 7.41-1.142 2.812-1.65 2.774-6.028.543-7.355-2.23-1.327-6.08.102-7.075 3.996-.996 3.893-1.996 4.896-1.669 6.581.328 1.685 3.525 7.12-.804 8.809"/>
            <g transform="matrix(-1 0 0 1 342.222 248.233)">
                <mask id="t" fill="#fff">
                    <use xlink:href="#s"/>
                </mask>
                <use fill="#103A86" xlink:href="#s"/>
                <path fill="#083263" d="M44.066 94.725L19.415 170.49l43.88-65.433z" mask="url(#t)"/>
            </g>
            <g transform="matrix(-1 0 0 1 313.156 211)">
                <mask id="w" fill="#fff">
                    <use xlink:href="#u"/>
                </mask>
                <use fill="url(#v)" xlink:href="#u"/>
                <path fill="#ABC1DF" fill-rule="nonzero" d="M-3 32.44l11.396 6.49c3.876-6.02 11.519-12.15 22.928-18.393 9.27-5.071 17.149-9.61 23.637-13.615a9 9 0 0 0 4.273-7.658V-1L5.915 23.12-3 32.44z" mask="url(#w)" opacity=".517"/>
            </g>
            <g transform="matrix(-1 0 0 1 313.156 202)">
                <mask id="A" fill="#fff">
                    <use xlink:href="#x"/>
                </mask>
                <use fill="url(#y)" xlink:href="#x"/>
                <path fill="url(#z)" d="M15.902 32C2.085 33.858 2.787 30.341 1.543 21.88c-4.631 3.417-5.361 22.733 1.693 22.9 23.737.561 73.488-27.195 77.348-29.846 5.823-4-2.552-8.934-9.786-8.934-7.233 0-41.08 24.142-54.896 26z" mask="url(#A)"/>
            </g>
            <g>
                <path fill="#B59272" d="M396.992 413.344c.43 2.025-1.302 7.382-13.666 6.833-7.832-.347-16.765-3.339-26.8-8.973-1.057-.594-1.648-1.185-1.773-1.773l-.632-2.97c18.353-1.948 29.93-2.146 34.73-.596 3.771 1.218 6.939 1.82 7.327 3.647l.814 3.832z"/>
                <path fill="#471E0D" d="M396.178 409.512c.43 2.024-1.303 7.381-13.667 6.833-8.243-.366-17.706-3.661-28.39-9.884l.16-1.11-1.345-6.326c-.208-.976.994-3.264 2.905-3.67 1.912-.406 6.016 1.287 9.264 1.084 3.248-.204 4.923-2.629 7.864-1.672 2.941.957 7.866 4.94 15.067 7.265 7.201 2.326 7.712 5.456 8.142 7.48z"/>
                <path fill="#884E36" d="M382.165 415.427c-8.735-.388-18.03-3.746-27.885-10.076l-1.344-6.326c-.208-.976.994-3.264 2.905-3.67 1.912-.406 6.016 1.287 9.264 1.084 3.248-.204 4.923-2.629 7.864-1.672 2.941.957 7.866 4.94 15.067 7.265 5.841 1.887 7.28 4.302 7.845 6.227.447 1.525-.614 7.75-13.716 7.168z"/>
                <path stroke="#471E0D" stroke-linecap="round" stroke-linejoin="round" stroke-width="1.1" d="M370.47 396.784c4.044 3.237 8.208 5.732 12.491 7.485"/>
                <g transform="scale(-1 1) rotate(12 -1947.826 -1555.785)">
                    <mask id="D" fill="#fff">
                        <use xlink:href="#B"/>
                    </mask>
                    <use fill="#FCCBCB" xlink:href="#B"/>
                    <path fill="url(#C)" d="M20.954 18.937c-8.17 3.903-15.624 3.07-22.36-2.5-6.735-5.57-4.216-12.11 7.558-19.618l14.802 22.118z" mask="url(#D)"/>
                </g>
                <path stroke="#B59272" stroke-linecap="round" stroke-linejoin="round" stroke-width="1.1" d="M382.232 396.236c-1.551 1.389-5.799 2.49-8.007 1.324-1.473-.777-2.696-1.112-3.67-1.005a17.481 17.481 0 0 0-7.421-.028c-1.726.367-3.54 2.16-2.62 4.619.894 2.395 4.051 3.232 5.46 1.425 2.649-3.401 2.334-4.881 4.964-5.867 2.63-.986 4.608.427 7.39-1.272 2.781-1.699 2.667-6.075.414-7.363-2.253-1.288-6.077.208-7.005 4.119-.927 3.91-1.91 4.93-1.553 6.61.357 1.678 3.648 7.057-.65 8.82"/>
                <g transform="matrix(-1 0 0 1 385.057 210.833)">
                    <mask id="F" fill="#fff">
                        <use xlink:href="#E"/>
                    </mask>
                    <use fill="#103A86" transform="rotate(23 80.515 101.972)" xlink:href="#E"/>
                    <path fill="#083263" d="M26.51 98.965L-16 160.396l53.883-54.344z" mask="url(#F)"/>
                </g>
                <g>
                    <g transform="scale(-1 1) rotate(7 -1253.613 -2654.386)">
                        <mask id="J" fill="#fff">
                            <use xlink:href="#G"/>
                        </mask>
                        <use fill="url(#H)" xlink:href="#G"/>
                        <path fill="url(#I)" d="M62.832 76.193c-6.139 3.503-9.135 4.892-8.988 4.168 2.23-10.967-2.056-13.108-2.693-24.976-1.069-19.912 10.739-38.85 10.739-44.914 0-4.043 6.64-2.8 19.921 3.729L62.832 76.193z" mask="url(#J)" opacity=".5"/>
                    </g>
                    <g transform="scale(-1 1) rotate(7 -1270.553 -2203.725)">
                        <mask id="N" fill="#fff">
                            <use xlink:href="#K"/>
                        </mask>
                        <use fill="url(#L)" xlink:href="#K"/>
                        <path fill="url(#M)" fill-opacity=".2" d="M35.705 22.682c2.715-.939 9.912-1.884 13.74-6.066 2.553-2.789 2.888-6.245 1.005-10.37.646.088 1.099.394 1.36.916.39.784 4.887 9.446-.775 17.824-3.776 5.585-7.835 9.473-12.178 11.665a82.481 82.481 0 0 1-2.72-7.568c-1.163-3.813.668-4.826-.432-6.4z" mask="url(#N)" opacity=".5"/>
                        <path fill="url(#O)" fill-opacity=".2" d="M28.772 25.405l-3.6 5.356-1.113-10.978 5.391-.131z" mask="url(#N)" opacity=".5"/>
                        <path fill="url(#P)" d="M69.954 33.68c-6.321 8.987-9.24 28.514-8.004 46.64.824 12.084 14.285 20.69 40.382 25.817C84.961 51.842 74.168 27.69 69.954 33.681z" mask="url(#N)" opacity=".5"/>
                        <g mask="url(#N)">
                            <g transform="translate(20.8 1.514)">
                                <path stroke="#F2F7FF" stroke-width=".8" d="M32.42 4.103c3.336 8.557 1.279 17.171-6.172 25.843-11.176 13.007-16.91 16.703-18.322 16.25-1.412-.455-6.814-16.02-7.267-29.79C.206 2.64 8.359 1.597 14.121.888c3.842-.472 9.942.6 18.3 3.216z" opacity=".2"/>
                                <mask id="S" fill="#fff">
                                    <use xlink:href="#Q"/>
                                </mask>
                                <use fill="url(#R)" xlink:href="#Q"/>
                                <path fill="#C6D5EF" d="M10.771 26.982c-.022 2.093-.415 7.593-1.18 16.5l-8.843-8.79L-.8 9.924l10.453-4.9c.767 12.546 1.14 19.865 1.117 21.958z" mask="url(#S)" opacity=".5"/>
                                <path fill="#C6D5EF" d="M10.771 26.982l-2.17-2.063-2.127 1.039-3.512-6.815L4.756 6.464l12.395 6.103z" mask="url(#S)"/>
                                <path fill="#C6D5EF" d="M14.006 26.021l3.485 7.399 15.707-14.168-5.642-5.271z" mask="url(#S)" opacity=".5"/>
                            </g>
                        </g>
                    </g>
                    <path fill="url(#T)" d="M86.92 38.619c10.612-3.718 16.853-7.332 18.722-10.843 1.868-3.51 1.12-7.242-2.246-11.196l-19.944 8.945c1.795 4.752 2.843 7.66 3.144 8.725.302 1.066.41 2.522.323 4.369z" transform="scale(-1 1) rotate(7 -1158.1 -2649.813)"/>
                    <g transform="scale(-1 1) rotate(2 -3963.81 -7161.096)">
                        <mask id="W" fill="#fff">
                            <use xlink:href="#U"/>
                        </mask>
                        <use fill="#FCCBCB" xlink:href="#U"/>
                        <path fill="url(#V)" d="M1.052 20.564c5.477-1.044 9.587-2.827 12.33-5.35 2.742-2.524 4.219-6.598 4.431-12.222L2.98 4.456 1.052 20.564z" mask="url(#W)"/>
                        <path fill="url(#X)" d="M28.478 18.017c-1.217 5.239-5.998 8.86-14.344 10.862-8.346 2.003-12.855-.076-13.527-6.236l.341 13.831 33.659-4.562-6.129-13.895z" mask="url(#W)"/>
                    </g>
                    <path fill="#C6D5EF" d="M250.172 170.61c-.583-2.922-1.79-4.663-3.62-5.226-2.745-.843-9.972-1.537-13.944-5.583-2.648-2.698-3.929-5.724-3.843-9.078-.547.38-.941.837-1.184 1.368-.363.797-.004 8.562 5.785 13.071 3.86 3.006 9.461 4.822 16.806 5.447z"/>
                    <path fill="url(#Y)" d="M8.436 36.475c.593-1.87.889-3.205.889-4.007 0-1.203-.088-2.496-2.445-5.122-1.571-1.75-1.611-4.873-.12-9.37l-2.117-.862c-2.075 2.673-3.33 6.438-3.762 11.294-.432 4.856-.432 7.958 0 9.306l4.474-9.052c.681 1.219 1.392 2.127 2.134 2.724.741.598 1.081 1.52 1.02 2.766l-.073 2.323z" transform="scale(-1 1) rotate(2 -3961.31 -7304.321)"/>
                    <path fill="url(#Z)" d="M11.874 31.19c2.714-.938 9.912-1.883 13.74-6.066 1.567-1.711 3.168-3.905 2.95-6.58-.108-.6-1.29-2.143-1.597-3.273a98.332 98.332 0 0 1-.553-2.178c2.264 1.38 3.637 2.7 4.118 3.962.482 1.262.803 2.766.964 4.513.22 3.821-1.165 8.177-4.153 13.068-2.987 4.89-6.332 8.305-10.034 10.243a82.481 82.481 0 0 1-2.72-7.568c-1.163-3.813-1.615-4.545-2.715-6.12z" transform="scale(-1 1) rotate(2 -3961.31 -7304.321)"/>
                    <path fill="url(#aa)" d="M5.616 16.892l-.754-1.701c-2.317 2.984-3.717 7.188-4.2 12.61-.483 5.422-.483 8.885 0 10.39l4.996-10.106c-.501-2.001-.751-3.582-.75-4.742 0-1.16.236-3.31.708-6.45z" transform="scale(-1 1) rotate(2 -3961.31 -7304.321)"/>
                    <g transform="matrix(-1 0 0 1 264.04 91)">
                        <g transform="translate(5 8.747)">
                            <mask id="ac" fill="#fff">
                                <use xlink:href="#ab"/>
                            </mask>
                            <use fill="#FCCBCB" xlink:href="#ab"/>
                            <path stroke="#E77575" stroke-linecap="round" stroke-width=".933" d="M6.114 25.555c-1.54 2.773-2.817 4.649-3.83 5.626-1.521 1.466-2.119 4.116 2.062 4.393" mask="url(#ac)"/>
                        </g>
                        <ellipse cx="17.954" cy="38.246" fill="#031120" rx="1" ry="1.127"/>
                        <ellipse cx="7.447" cy="35.316" fill="#031120" rx="1" ry="1.014"/>
                        <g transform="translate(28.04)">
                            <mask id="ae" fill="#fff">
                                <use xlink:href="#ad"/>
                            </mask>
                            <use fill="#0C3564" xlink:href="#ad"/>
                            <path fill="#031120" d="M17.556 22.865c.932-5.546-.088-10.217-3.062-14.012C11.521 5.058 6.671 3.56-.057 4.356l10.796 18.116 6.817.393z" mask="url(#ae)"/>
                        </g>
                        <g transform="translate(4 5)">
                            <mask id="ag" fill="#fff">
                                <use xlink:href="#af"/>
                            </mask>
                            <use fill="#0C3564" xlink:href="#af"/>
                            <g mask="url(#ag)">
                                <g transform="translate(41.04 -5)">
                                    <mask id="ai" fill="#fff">
                                        <use xlink:href="#ah"/>
                                    </mask>
                                    <use fill="#0C3564" xlink:href="#ah"/>
                                    <path fill="#031120" d="M17.556 22.865c.932-5.546-.088-10.217-3.062-14.012C11.521 5.058 6.671 3.56-.057 4.356l10.796 18.116 6.817.393z" mask="url(#ai)"/>
                                </g>
                            </g>
                            <path fill="#031120" d="M36.88 11.449l-10.56 6.47c2.688-1.109 5.042-2.187 7.062-3.235 2.02-1.049 3.186-2.127 3.497-3.235zM21.003 15.787c-8.06 2.388-13.732 1.289-17.017-3.297 4.058 3.619 9.73 4.718 17.017 3.297z" mask="url(#ag)"/>
                        </g>
                        <path fill="#FCCBCB" d="M34.978 35.181c.35-.973 1.243-1.682 2.676-2.127 2.15-.668 3.743 2.802 2.042 5.974-1.05 1.96-1.901 3.313-3.461 4.378-.259.176-.625.176-1.1 0-.253.562-.454.998-.604 1.306-.057-.518-1.945-1.12-1.588-1.36 1.524-1.027 1.524-3.522 1.588-4.324.119-1.468.268-2.75.447-3.847z"/>
                        <path fill="url(#aj)" d="M35.729 7.691c.811-.721 1.504-.964 2.079-.73.862.352 1.185 2.349-.18 4.034-.91 1.123-1.605 1.71-2.083 1.762l.184-5.066z" transform="translate(.44 28.165)"/>
                        <g transform="translate(.714 29.163)">
                            <circle cx="35.327" cy="13.837" r="2" fill="#0C3564"/>
                            <path stroke="#031120" stroke-linecap="round" stroke-width=".933" d="M4.401 10.837C.572 10.17-.759 7.034.41 1.427l8.364 3.086-.14 1.977c1.796-.901 3.394-.412 4.795 1.466"/>
                            <path stroke="#031120" stroke-linecap="round" stroke-width=".933" d="M17.728 15.246c-3.829-.667-5.16-3.803-3.992-9.41L25.12 8.819c-1.098 4.952-3.562 7.094-7.39 6.428zM25.12 9.083l9.532-3.726M.752 1.428L5.172 0"/>
                        </g>
                        <path stroke="#031120" stroke-linecap="round" stroke-width=".933" d="M16.427 33.387c2.09.28 3.959 1.035 5.604 2.266M9.346 31.591c-1.342-.632-2.71-.843-4.105-.632"/>
                        <path stroke="#E77575" stroke-linecap="round" stroke-width=".933" d="M7.736 48.59c.38.5 1.25.958 2.61 1.377 1.361.418 2.96.418 4.796 0"/>
                    </g>
                </g>
            </g>
            <g transform="matrix(-1 0 0 1 241.156 251)">
                <mask id="al" fill="#fff">
                    <use xlink:href="#ak"/>
                </mask>
                <use fill="#FFF" xlink:href="#ak"/>
                <path fill="#ABC1DF" fill-rule="nonzero" d="M-2 33.44l11.396 6.49c3.876-6.02 11.519-12.15 22.928-18.393 9.27-5.071 17.149-9.61 23.637-13.615A9 9 0 0 0 60.234.264V0L6.915 24.12-2 33.44z" mask="url(#al)" opacity=".2"/>
            </g>
            <g transform="matrix(-1 0 0 1 241.156 242)">
                <mask id="an" fill="#fff">
                    <use xlink:href="#am"/>
                </mask>
                <use fill="url(#y)" xlink:href="#am"/>
                <path fill="url(#z)" d="M12.48 34C-1.335 35.858-.634 32.341-1.877 23.88-6.51 27.297-7.24 46.613-.186 46.78c23.737.561 73.489-27.195 77.348-29.846 5.824-4-2.551-8.934-9.785-8.934s-41.08 24.142-54.896 26z" mask="url(#an)"/>
            </g>
            <g>
                <g transform="matrix(-1 0 0 1 309.156 361)">
                    <mask id="ar" fill="#fff">
                        <use xlink:href="#ao"/>
                    </mask>
                    <use fill="url(#ap)" xlink:href="#ao"/>
                    <path fill="url(#aq)" d="M-5 4.73l2.72 142.437c0 2.363 1.748 3.544 5.245 3.544 3.496 0 5.129-1.181 4.897-3.544L14.403 3-5 4.73z" mask="url(#ar)" style="mix-blend-mode:multiply"/>
                </g>
                <g transform="matrix(-1 0 0 1 271.156 346)">
                    <path fill="#172E56" d="M5.76 46.497a4.5 4.5 0 1 0 0-9 4.5 4.5 0 0 0 0 9z"/>
                    <g transform="translate(40.627 32.468)">
                        <mask id="au" fill="#fff">
                            <use xlink:href="#as"/>
                        </mask>
                        <use fill="#103A86" xlink:href="#as"/>
                        <path fill="url(#at)" d="M2.453 6.573L32.813-2 .692 2.796z" mask="url(#au)" style="mix-blend-mode:multiply"/>
                    </g>
                    <g transform="scale(1 -1) rotate(24 236.708 54.24)">
                        <mask id="aw" fill="#fff">
                            <use xlink:href="#av"/>
                        </mask>
                        <use fill="#103A86" xlink:href="#av"/>
                        <path fill="#083263" d="M3.736 12.536c2.412-.193 3-2.822 1.885-5.813C4.506 3.733 3.663 1.41 1.177 1.41c-2.485 0-3.431 3.624-2.15 6.501 1.281 2.878 2.297 4.818 4.71 4.625z" mask="url(#aw)"/>
                    </g>
                    <g transform="translate(3.514 36.905)">
                        <mask id="az" fill="#fff">
                            <use xlink:href="#ax"/>
                        </mask>
                        <use fill="#103A86" xlink:href="#ax"/>
                        <path fill="url(#ay)" d="M0 .592l30.486.503V-1z" mask="url(#az)" style="mix-blend-mode:multiply"/>
                    </g>
                    <path fill="url(#aA)" d="M39 40.224c3.314 0 5.927-1.29 5.927-3.112C44.927 35.289 42.314 34 39 34c-3.314 0-6.16 1.129-6.16 2.992s2.846 3.232 6.16 3.232z"/>
                    <g transform="translate(32.84 37.243)">
                        <mask id="aD" fill="#fff">
                            <use xlink:href="#aB"/>
                        </mask>
                        <use fill="#103A86" xlink:href="#aB"/>
                        <path fill="url(#aC)" d="M0 8.328c1.434 1.708 3.807 2.277 7.119 1.708l5.893 35.881L0 8.328z" mask="url(#aD)" style="mix-blend-mode:multiply"/>
                    </g>
                    <path fill="url(#aE)" d="M34 0v36.597c.657 1.63 2.323 2.444 5 2.444s4.343-.815 5-2.444V0H34z"/>
                    <path fill="#FFF" d="M42.52 85.243c.276 0 .5-.672.5-1.5 0-.829-.224-1.5-.5-1.5s-.5.671-.5 1.5c0 .828.224 1.5.5 1.5z"/>
                    <circle cx="4.5" cy="42.5" r="4.5" fill="#103A86"/>
                    <circle cx="4.5" cy="42.5" r="1.5" fill="#FFF"/>
                </g>
                <path fill="#103A86" d="M247.856 306.793l-8.087 56.598c-2.015 1.808-5.02 2.712-9.017 2.712-3.996 0-6.423-.904-7.28-2.712L220 299.5l27.856 7.293z"/>
                <path fill="url(#aF)" d="M321.522 136.99l2.58 128.735c0 2.362 1.748 3.544 5.245 3.544s5.13-1.182 4.897-3.544l6.681-130.465-19.403 1.73z" transform="scale(-1 1) rotate(-6 1772.407 5378.373)"/>
                <g transform="matrix(-1 0 0 1 453.156 179)">
                    <mask id="aI" fill="#fff">
                        <use xlink:href="#aG"/>
                    </mask>
                    <use fill="url(#aH)" xlink:href="#aG"/>
                    <path stroke="#FFF" d="M238.256 319.241c-10.715-21.877-17.715-13.013-7.715-53.574s2.876-47.033-6-14.308-.784 17.772-6.369 55.983c-5.584 38.212-11.91 26.162-7.035 1.838 4.876-24.324-1.283-46.868 11.06-70.601 12.344-23.734 36.918-93.644 20.344-75.894-16.573 17.75-11.116 40.51-22.363 66.388-11.246 25.877-10.557 37.71-17.75 67.115-7.191 29.405-42.824 83.866-25.008 36.992 17.817-46.874 22.396-86.02 42.758-120 20.363-33.98 18.61-25.345 4.363-13.172-14.246 12.172-11.725 4.006-4.363-29.042 7.363-33.048.823-58.49-4.53-16.267s-8.035 76.4-20.776 101.597c-12.742 25.198-18.781 45.7-31.33 47.536-12.55 1.836 18.628-34.324 29.736-62.028 11.107-27.705 11.82-54.273 13.433-87.742 1.613-33.47 8.937-41.597 8.937-43.24 0-1.642-15.837-46.204-18.307-3.073-2.47 43.13 7.471 54.918 1.704 83.708s-9.942 51.326-35.504 58.723c-25.562 7.398 20.415-19.206 24.067-40.083 3.652-20.877-10.188-4.244-10.188-28.546 0-24.301 4.518 19.087 10.188-.45 5.67-19.536-3.39-34.843-3.39-35.382 0-.539-22.556 30.461-14.677 48.461 7.88 18 6 21.84-3 26.067-6 2.818-16.847 10.84-32.541 24.064" mask="url(#aI)" opacity=".4"/>
                </g>
                <path fill="url(#aJ)" d="M.695 64.5l232.238 128.182-.238 14.819-232-134z" transform="matrix(-1 0 0 1 533.156 179)"/>
                <g transform="matrix(-1 0 0 1 533.156 179)">
                    <mask id="aM" fill="#fff">
                        <use xlink:href="#aK"/>
                    </mask>
                    <use fill="url(#aL)" xlink:href="#aK"/>
                    <g mask="url(#aM)">
                        <g transform="translate(87.013 92.401)">
                            <mask id="aP" fill="#fff">
                                <use xlink:href="#aN"/>
                            </mask>
                            <use fill="url(#aO)" transform="rotate(25 16 11.5)" xlink:href="#aN"/>
                            <g mask="url(#aP)">
                                <g transform="translate(1 7)">
                                    <mask id="aT" fill="#fff">
                                        <use xlink:href="#aQ"/>
                                    </mask>
                                    <use fill="url(#aR)" transform="rotate(25 16 11.5)" xlink:href="#aQ"/>
                                    <path fill="url(#aS)" d="M17 2h12v19H17z" mask="url(#aT)"/>
                                </g>
                            </g>
                        </g>
                    </g>
                    <path fill="url(#aU)" d="M208.13 169.186l6.562-.556 4.96 2.884 7.315-3.93 21.2-1.679 3.083-12.186 9.892-5.757-7.39-4.572.358-1.521-28.302-15.846-47.142 26.43z" filter="url(#aV)" mask="url(#aM)" style="mix-blend-mode:multiply" transform="matrix(-1 0 0 1 439.808 0)"/>
                    <path stroke="#C5D6FF" d="M316.113 163.22c-5-3.168-18.827-10.956-43.273-8.418-24.446 2.539-81.153 18.487-47.84 18.487s50.794-13.86 64.039-8.744c13.245 5.117 76.092 2.446 40.203-9.999-35.889-12.444-53.538-17.671-85.266-8.743-21.132 5.946-76.829 31.603-108.007 34.289-15.634 1.347-25.186-13.663-20.956-18.578 12.666-14.717 110.825-31.925 105.237-62.06-5.588-30.136-171.475-36.859-93.292-28.25 78.184 8.607 92.609 3.962 114.634 21.063 22.025 17.102-83.208 75.127-126.023 77.529-48.619 2.727-22.184-59.416 33.695-64.673 55.878-5.258 46.804-10.741-16.05-11.593-24.54-.333-71.624 6.204-94.214.97-35.275-8.173-35.92-29.046 9.409-26.613 74.359 3.99 136.349 7.62 169.345 4.525 32.996-3.094 69.677-12.553-12.612-14.196-82.288-1.643-126.103.286-146.525-2.79-20.421-3.076-47.621-19.915.714-14.691 48.335 5.224 43.313 15.796 75.55 7.75 32.239-8.046 45.676-24.645 36.742-27.812-8.934-3.168-21.68 13.388-44.757 14.782-23.077 1.395-3.47-17.16-7.789-35.358-4.32-18.2-11.303-35.694-12.265-6.119-.642 19.717-22.979 16.446-67.011-9.813-1.822.215 10.195 9.454 36.05 27.716 38.784 27.392 39.434 31.78 61.285 27.798 21.851-3.983-7.677 15.883-53.309-.611C53.407 28.07 30.02 20.273 13.67 15.67c-21.236-44.19-.508-57.658 62.183-40.402C169.888 1.152 250.16 6.673 210.43 24.896c-39.729 18.224-61.55 22.336-47.178 23.589 9.58.835 31.127-.953 64.639-5.365 45.822 26.377 61.863 44.372 48.121 53.986-20.612 14.42-2.793 16.491 27.595 17.064C333.996 114.743 445 145.201 355 137s-95.243-17.661-174.567 20.524c-52.882 25.457-80.778 40.584-83.686 45.38C157.573 192.969 202.657 187 232 185c29.342-2 49.895-3.636 61.658-4.908-30.096 71.565-78.227 86.767-144.394 45.607-99.25-61.74-65.499-63.357-17.165-84.327 48.334-20.97 64.295-41.886 8.012-18.97-37.523 15.276-65.753 16.81-84.692 4.598" mask="url(#aM)" opacity=".4"/>
                    <path fill="url(#aW)" d="M293.658 107.156c-19.448 12.428-35.538 18.643-48.272 18.643-12.733 0-31.679-8.266-56.836-24.799l-35.394 20.649L46.569 63.532 106.85 29l70.654 7.719 116.155 70.437z" filter="url(#aX)" mask="url(#aM)" opacity=".6" style="mix-blend-mode:multiply"/>
                </g>
            </g>
            <g>
                <path fill="#6779D7" d="M271.811 292.578l24.242 14.401a3 3 0 0 0 3.053.007l59.699-35.115-25.62-15.549a3 3 0 0 0-3.029-.05l-58.305 32.844a2 2 0 0 0-.04 3.462z"/>
                <path fill="#FFF" d="M271.811 290.578l24.242 14.401a3 3 0 0 0 3.053.007l59.699-35.115-25.62-15.549a3 3 0 0 0-3.029-.05l-58.305 32.844a2 2 0 0 0-.04 3.462z"/>
                <path fill="#ABC1DF" fill-rule="nonzero" d="M351.167 270.726l-5.85-3.253L294.935 297l5.85 3.253zM343.156 266.253l-5.85-3.253-50.382 29.527 5.85 3.253zM335.156 261.253l-5.85-3.253-50.382 29.527 5.85 3.253z" opacity=".2"/>
                <path stroke="#FFF" d="M349.222 274.39l-26-15.023M343.156 277.023l-26-15.023M338.156 281.023l-26-15.023M330.156 285.023l-26-15.023M324.156 289.023l-26-15.023M316.156 294.023l-26-15.023M308.156 298.023l-26-15.023M302.156 302.023l-26-15.023"/>
            </g>
            <g>
                <path fill="#FAC2C2" d="M290.86 273.556c4.098 1.453 11.382 4.91 13.069 5.484 1.687.574.62 3.475-3.642 2.573-2.843-.6-7.283-2.516-13.322-5.746-.136-2.509 1.162-3.28 3.894-2.31z"/>
                <path fill="url(#aY)" d="M32.664 10.817c-1.664.146-3.123 1.799-4.378 4.956-1.883 4.737.437 12.947 3.702 13.651 3.265.704 7.585-3.368 8.249-7.144.442-2.518-2.082-6.339-7.573-11.463z" opacity=".5" transform="scale(-1 1) rotate(-64 78.802 397.772)"/>
                <path fill="#FCCBCB" d="M253.419 240.974c12.464 11.265 20.56 18.74 24.288 22.422 5.591 5.525 15.883 11.648 18.083 13.835 2.2 2.187 6.1 6.623 6.836 8.085.736 1.462.41 9.24.411 11.077.001 1.837-3.055 3.115-3.475.157-.42-2.957-.565-8.75-1.014-9.492-.3-.495-1.684-2.146-4.153-4.954 1.687 3.154 2.69 5.138 3.008 5.952.476 1.22.908 8.135 1.006 9.97.098 1.834-3.228 3.31-3.738-.532-.51-3.841-1.042-6.969-1.36-8.124-.213-.77-1.26-2.548-3.139-5.334 1.15 2.911 1.854 4.826 2.11 5.743.384 1.376.484 4.873.523 6.947.038 2.073-3.335 2.814-3.596-.214-.26-3.029-1.615-7.195-1.83-8.047-.145-.568-.902-1.725-2.274-3.47.746 1.816 1.258 3.17 1.537 4.064.419 1.34.737 5.357.78 6.193.043.836-2.328 2.701-2.903-.556-.576-3.257-1.56-5.761-2.024-6.527-.464-.767-6.145-7.338-7.07-9.244-.616-1.272-10.57-9.716-29.864-25.334l7.858-12.617z"/>
                <g transform="scale(-1 1) rotate(-75 34.482 326.075)">
                    <mask id="bc" fill="#fff">
                        <use xlink:href="#aZ"/>
                    </mask>
                    <use fill="url(#ba)" xlink:href="#aZ"/>
                    <path fill="url(#bb)" d="M-10.906 74.615c.127 6.144 8.274 5.486 24.44-1.974 48.612-24.187 72.7-36.679 72.262-37.477-.594-1.083 26.03-39.308 19.415-48.943-3.8 18.642-31.075 38.095-41.908 49.533C43.92 56.222-11.097 65.4-10.906 74.615z" mask="url(#bc)" opacity=".5" transform="rotate(59 47.68 32.499)"/>
                </g>
            </g>
            <path fill="#FCCBCB" d="M337.523 222.909l15.2 9.207-5.926 10.038-20.905-11.19z"/>
            <path fill="url(#bd)" d="M203.767 164.71l-8.23 5.441c3.56.829 6.043 2.445 7.45 4.849 1.407 2.404 2.22 4.738 2.438 7.003l18.73-10.713-20.388-6.58z" transform="matrix(-1 0 0 1 541.156 56)"/>
            <g>
                <path fill="#FFF" d="M441.622 134.264l-95.444 54.573a6 6 0 0 0-3.022 5.209v80.466a2 2 0 0 0 1.127 1.8l3.366 1.633a2 2 0 0 0 1.951-.115l91.95-58.831a6 6 0 0 0 2.759-4.758l3.693-74.678a4.702 4.702 0 0 0-2.657-4.468l-1.862-.897a2 2 0 0 0-1.86.066z"/>
                <g transform="matrix(-1 0 0 1 448.156 134.433)">
                    <mask id="bh" fill="#fff">
                        <use xlink:href="#be"/>
                    </mask>
                    <use fill="url(#bf)" xlink:href="#be"/>
                    <path fill="url(#bg)" d="M15.242 6.567C2.733 30.475 1.582 53.875 11.789 76.764c7.512 16.846 29.295 32.282 57.82 42.035 11.752 4.018 22.382 1.917 31.891-6.302l-.5 37.143L-5 90.682l1.176-94.115 19.066 10z" mask="url(#bh)"/>
                    <path fill="#DFDFF2" d="M57.43 86.879v38.92l-22.553-15.877V77.305z" mask="url(#bh)" style="mix-blend-mode:multiply"/>
                </g>
                <g>
                    <path fill="url(#bi)" d="M85.851 213.066l23.15-9.252L83.607 188.6l-24.18 4.471z" transform="matrix(-1 0 0 1 487.546 56.933)"/>
                    <path fill="#FFF" d="M411.679 210.683l-20.953 9.025v2.63c2.503.839 4.733 4.127 6.69 9.864 1.802 5.286 3.67 16.45 5.603 33.492a2.76 2.76 0 0 1-3.724 2.89l-20.6-7.841-1.767.987 21.62 8.34a7.36 7.36 0 0 0 8.43-2.314c2.514-3.191 4.08-5.529 4.7-7.013 10.418-24.94 10.481-38.073 8.109-42.22-2.668-4.667-5.371-7.28-8.108-7.84zm-.393 30.638c-2.27 0-4.112-3.078-4.112-6.875s1.841-6.875 4.112-6.875 4.112 3.078 4.112 6.875-1.84 6.875-4.112 6.875z"/>
                    <path fill="url(#bj)" d="M75.868 151l20.952 11.774c-2.721 1.304-5.324 4.967-7.81 10.991-2.308 5.597-4.44 17.631-6.395 36.104a3.37 3.37 0 0 0 3.861 3.685 13.85 13.85 0 0 1-8.022-1.898l-18.196-10.77a4.6 4.6 0 0 1-2.17-4.845c3.912-19.929 7.136-32.21 9.671-36.846 2.669-4.878 5.372-7.61 8.109-8.195zm-.821 33.794c2.254-.277 3.732-3.354 3.302-6.871-.43-3.518-2.607-6.144-4.861-5.866-2.254.277-3.732 3.354-3.302 6.871.43 3.518 2.607 6.144 4.861 5.866z" transform="matrix(-1 0 0 1 487.546 56.933)"/>
                    <path fill="#FFF" stroke="#6E72CC" stroke-width="4" d="M480.546 78.433c-3.866 3.038-7 1.023-7-4.5 0-5.522 3.134-12.462 7-15.5 3.866-3.037 7-1.022 7 4.5 0 5.523-3.134 12.463-7 15.5z"/>
                </g>
            </g>
            <path stroke="#FFF" stroke-linecap="round" stroke-width=".92" d="M409.621 234.446c9.455 3.036 18.522 23.32 18.91 55.455"/>
        </g>
        <g>
            <path fill="url(#bk)" d="M2.52 8.516l22.296-6.414 22.86 33.033-.045 33.577a.585.585 0 0 1-.883.503l-43.725-25.9a1.025 1.025 0 0 1-.503-.882V8.516z" transform="rotate(120 87.094 259.927)"/>
            <path fill="#959EF6" d="M347.057 310.292l-39.571 2.877-6.124 22.828-28.99-16.737a.585.585 0 0 1 .006-1.017l44.291-24.916a1.025 1.025 0 0 1 1.015.006l29.373 16.959z"/>
            <path fill="url(#bl)" d="M1.804 8.88l22.295-6.413L46.959 35.5l-.044 33.705a.512.512 0 0 1-.774.44L2.306 43.679a1.025 1.025 0 0 1-.502-.882V8.88z" transform="rotate(120 87.094 259.927)"/>
            <path fill="url(#bm)" d="M.012 9.974L2.52 8.516v34.206a.512.512 0 0 1-.254.443l-1 .581a.835.835 0 0 1-1.254-.721V9.975z" transform="rotate(120 87.094 259.927)"/>
            <path fill="#727CE0" d="M354.073 317.36l-41.06 23.054-26.873-15.515 41.28-22.234 26.958 13.909z"/>
            <path fill="url(#bn)" d="M0 .129L40.496 24.16v31.03L0 31.159z" transform="rotate(120 85.84 260.651)"/>
            <path stroke="#FFF" stroke-linecap="round" stroke-linejoin="round" d="M315 330.52l22.233-13.19M308 326.52l22.233-13.19"/>
            <path fill="url(#bo)" d="M47.675 35.135l-2.554 1.56v33.407l-.327.685.44-.243 2.083-1.272c.15-.089.246-.174.285-.255.04-.081.065-.24.073-.475V35.135z" transform="rotate(120 87.094 259.927)"/>
            <path fill="#B3BAFB" d="M347.1 309.489l-39.572 2.877-6.124 22.828-29.1-16.8a.512.512 0 0 1 .005-.891l44.403-24.979a1.025 1.025 0 0 1 1.015.006l29.373 16.959z"/>
            <path fill="url(#bp)" d="M.012 9.974L22.29 42.805l22.831-6.11v33.602a.512.512 0 0 1-.773.441L.514 44.773a1.025 1.025 0 0 1-.502-.882V9.974z" transform="rotate(120 87.094 259.927)"/>
            <path fill="#B4BBFE" d="M310.52 314.92l-36.613 3.59a.512.512 0 0 1-.301-.957l41.346-23.26a1.025 1.025 0 0 1 1.483 1.192l-5.915 19.436z"/>
            <path fill="url(#bq)" d="M23.006 38.937l20.805 30.347a.512.512 0 0 1-.684.73L2.184 45.763a1.025 1.025 0 0 1 .283-1.878l20.54-4.947z" transform="rotate(120 87.094 259.927)"/>
            <path fill="url(#br)" d="M22.29 39.302l22.378 31.26.123.229-.089.021a.364.364 0 0 1-.197-.007l-.092-.03L.793 44.939a.364.364 0 0 1 .103-.668l21.394-4.968z" transform="rotate(120 87.094 259.927)"/>
            <path fill="url(#bs)" d="M.888 44.074a1.04 1.04 0 0 1-.16-.554L.013 9.974l.717-.413 20.224 29.853-20.065 4.66z" transform="rotate(120 87.094 259.927)"/>
            <path fill="url(#bt)" d="M.171 44.439a1.04 1.04 0 0 1-.16-.554V9.975l20.225 29.804-20.065 4.66z" transform="rotate(120 87.094 259.927)"/>
            <path fill="url(#bu)" d="M24.29 42.097l20.857-5.412v33.798c0 .195-.356.31-.36.312l-.646-.97-19.85-27.728z" transform="rotate(120 87.094 259.927)"/>
            <g>
                <path fill="url(#bv)" d="M67.84.214l-46.928 39.73-4.26-15.035z" transform="rotate(-15 751.937 -1794.151)"/>
                <path fill="url(#bw)" d="M67.84.214L41.351 39.251 24.92 29.715l-4.008 10.229-4.26-15.035L.068 15.456z" transform="rotate(-15 751.937 -1794.151)"/>
                <path fill="url(#bx)" d="M67.84.214L16.651 24.909.068 15.456z" transform="rotate(-15 751.937 -1794.151)"/>
                <path fill="url(#by)" d="M67.84.214L41.351 39.251 24.92 29.715z" transform="rotate(-15 751.937 -1794.151)"/>
            </g>
            <path stroke="url(#bz)" stroke-dasharray="8" stroke-width="2" d="M248.863 53.853C212 119.446 137.608 134.974 145.398 187.023c3.826 25.56 31.983 27.709 50.095 16.313 18.77-11.81 22.723-35.78-13.493-40.69-71.164-9.646-65.04 57.576-100.833 55.156" transform="translate(270 115)"/>
        </g>
    </g>
</svg>
