<svg xmlns="http://www.w3.org/2000/svg" xmlns:xlink="http://www.w3.org/1999/xlink" width="1440" height="86" viewBox="0 0 1440 86">
    <defs>
        <linearGradient id="b" x1="2.318%" x2="100.78%" y1="50.033%" y2="49.822%">
            <stop offset="0%" stop-color="#5F62E6"/>
            <stop offset="100%" stop-color="#9C7AF2"/>
        </linearGradient>
        <path id="a" d="M0 0h1440v86H0z"/>
        <linearGradient id="c" x1="100.78%" x2="2.554%" y1="32.323%" y2="58.286%">
            <stop offset="0%" stop-color="#7D8DFF"/>
            <stop offset="100%" stop-color="#CA89FF" stop-opacity="0"/>
        </linearGradient>
        <linearGradient id="e" x1="100.78%" x2="2.554%" y1="32.237%" y2="58.326%">
            <stop offset="0%" stop-color="#7D8DFF"/>
            <stop offset="100%" stop-color="#CA89FF" stop-opacity="0"/>
        </linearGradient>
    </defs>
    <g fill="none" fill-rule="evenodd">
        <mask id="d" fill="#fff">
            <use xlink:href="#a"/>
        </mask>
        <use fill="url(#b)" xlink:href="#a"/>
        <path fill="url(#c)" d="M610.309 106.108c69.676 42.896 65.58 112.544-9.15 155.563-74.728 43.019-191.791 43.118-261.468.221-69.676-42.896-65.58-112.544 9.15-155.563 74.728-43.019 191.791-43.118 261.468-.221z" mask="url(#d)" opacity=".4"/>
        <path fill="url(#e)" d="M1533.915 107.589c133.326 82.283 125.488 215.88-17.506 298.398-142.995 82.518-366.997 82.708-500.324.424-133.326-82.283-125.488-215.88 17.506-298.398 142.995-82.518 366.997-82.708 500.324-.424z" mask="url(#d)" opacity=".5" transform="matrix(-1 0 0 1 2550 0)"/>
        <path fill="url(#e)" d="M407.915-62.411c133.326 82.283 125.488 215.88-17.506 298.398-142.995 82.518-366.997 82.708-500.324.424-133.326-82.283-125.488-215.88 17.506-298.398 142.995-82.518 366.997-82.708 500.324-.424z" mask="url(#d)" opacity=".5"/>
    </g>
</svg>
