<svg xmlns="http://www.w3.org/2000/svg" xmlns:xlink="http://www.w3.org/1999/xlink" width="75" height="76" viewBox="0 0 75 76">
    <defs>
        <linearGradient id="a" x1="83.054%" x2="10.184%" y1="11.871%" y2="82.338%">
            <stop offset="0%" stop-color="#FAFBFF"/>
            <stop offset="100%" stop-color="#ECF1FB"/>
        </linearGradient>
        <rect id="c" width="22" height="42.994" rx="4"/>
        <filter id="b" width="545.5%" height="279.1%" x="-272.7%" y="-93%" filterUnits="objectBoundingBox">
            <feMorphology in="SourceAlpha" radius="10" result="shadowSpreadOuter1"/>
            <feOffset dy="20" in="shadowSpreadOuter1" result="shadowOffsetOuter1"/>
            <feGaussianBlur in="shadowOffsetOuter1" result="shadowBlurOuter1" stdDeviation="20"/>
            <feColorMatrix in="shadowBlurOuter1" values="0 0 0 0 0.450980392 0 0 0 0 0.752941176 0 0 0 0 0.17254902 0 0 0 1 0"/>
        </filter>
        <path id="d" d="M5.035 17.737A8.967 8.967 0 0 0 11 19.997a8.967 8.967 0 0 0 5.965-2.26c-.293-1.052-2.396-1.74-5.965-1.74-3.57 0-5.672.688-5.965 1.74zm-1.434-1.615c1.125-1.486 3.77-2.124 7.399-2.124 3.63 0 6.274.638 7.4 2.124A9 9 0 0 0 11 2a9 9 0 0 0-7.4 14.123zM11 21.997c-6.075 0-11-4.924-11-10.999C0 4.924 4.925 0 11 0s11 4.924 11 10.998c0 6.075-4.925 10.999-11 10.999zM7 8.999c0-2.244 1.58-4 4-4 2.414 0 4 1.922 4 4.2 0 3.279-1.782 4.799-4 4.799-2.24 0-4-1.572-4-5zm2 0c0 2.269.818 3 2 3 1.178 0 2-.702 2-2.8 0-1.25-.784-2.2-2-2.2-1.266 0-2 .816-2 2z"/>
    </defs>
    <g fill="none" fill-rule="evenodd" transform="translate(0 .898)">
        <ellipse cx="37.5" cy="37.495" fill="url(#a)" rx="37.5" ry="37.495"/>
        <g transform="translate(21 15.998)">
            <use fill="#000" filter="url(#b)" xlink:href="#c"/>
            <use fill="#3DD280" xlink:href="#c"/>
        </g>
        <g transform="translate(32 26.996)">
            <mask id="e" fill="#fff">
                <use xlink:href="#d"/>
            </mask>
            <use fill="#FFF" xlink:href="#d"/>
            <path fill="#6E72CC" d="M11-3h15v31.995H11z" mask="url(#e)"/>
        </g>
    </g>
</svg>
