<svg xmlns="http://www.w3.org/2000/svg" width="40" height="40" viewBox="0 0 40 40">
    <g fill="none" fill-rule="nonzero">
        <ellipse cx="19.858" cy="20.034" fill="#DC4E41" rx="19.858" ry="19.684"/>
        <path fill="#DC4E41" d="M6.914 20.915c-.07 3.387 2.282 6.619 5.52 7.673 3.049 1.015 6.798.256 8.827-2.333 1.481-1.814 1.818-4.231 1.658-6.49-2.612-.024-5.223-.016-7.83-.012-.005.922 0 1.84.003 2.763 1.564.043 3.128.023 4.691.054-.394 1.34-1.293 2.589-2.658 3.073-2.635 1.15-5.997-.353-6.826-3.092-1-2.624.638-5.79 3.343-6.553 1.677-.585 3.405.074 4.84.938a36.853 36.853 0 0 0 2.076-2.124c-1.63-1.352-3.726-2.181-5.88-1.999-4.226.05-7.925 3.917-7.764 8.102zM28 17.427c-.007.772-.015 1.547-.02 2.318-.781.007-1.559.011-2.337.015v2.31c.778.003 1.56.007 2.338.015.008.771.008 1.542.015 2.317.775 0 1.553-.003 2.33 0 .005-.775.008-1.546.016-2.32l2.338-.012v-2.31c-.778-.004-1.56-.007-2.338-.015-.004-.771-.011-1.546-.016-2.317h-2.325z"/>
        <g fill="#FFF">
            <path d="M6.914 20.915c-.16-4.185 3.537-8.052 7.764-8.102 2.154-.182 4.25.647 5.88 1.999a36.973 36.973 0 0 1-2.077 2.123c-1.435-.864-3.162-1.522-4.84-.937-2.705.763-4.343 3.929-3.342 6.552.83 2.74 4.19 4.243 6.826 3.092 1.364-.484 2.263-1.731 2.658-3.072-1.564-.031-3.127-.012-4.691-.055-.004-.922-.008-1.84-.004-2.762 2.608-.004 5.219-.012 7.83.011.16 2.26-.176 4.677-1.657 6.49-2.03 2.59-5.778 3.349-8.828 2.333-3.236-1.053-5.59-4.285-5.52-7.672zM28 17.427h2.326c.005.772.012 1.547.016 2.318.778.007 1.56.011 2.338.015v2.31l-2.338.011c-.007.775-.011 1.546-.016 2.321-.777-.004-1.556 0-2.33 0-.007-.775-.007-1.546-.015-2.317-.778-.008-1.56-.012-2.338-.016v-2.31a474.87 474.87 0 0 0 2.338-.015c.004-.77.012-1.545.02-2.317z"/>
        </g>
    </g>
</svg>
