<svg xmlns="http://www.w3.org/2000/svg" width="40" height="40" viewBox="0 0 40 40">
    <g fill="none" fill-rule="nonzero">
        <ellipse cx="19.858" cy="20.034" fill="#007AB9" rx="19.858" ry="19.684"/>
        <path fill="#F1F2F2" d="M31.722 21.618v8.115h-4.746v-7.571c0-1.901-.685-3.2-2.404-3.2-1.311 0-2.09.874-2.435 1.72-.125.303-.157.723-.157 1.147v7.904h-4.747s.064-12.824 0-14.15h4.748v2.004c-.01.016-.023.032-.032.047h.032v-.047c.63-.962 1.755-2.337 4.277-2.337 3.123 0 5.464 2.022 5.464 6.368zM12.268 8.76c-1.624 0-2.686 1.057-2.686 2.445 0 1.358 1.031 2.445 2.623 2.445h.031c1.656 0 2.685-1.087 2.685-2.445-.031-1.388-1.03-2.445-2.653-2.445zM9.864 29.733h4.745v-14.15H9.864v14.15z"/>
    </g>
</svg>
