<svg xmlns="http://www.w3.org/2000/svg" xmlns:xlink="http://www.w3.org/1999/xlink" width="75" height="75" viewBox="0 0 75 75">
    <defs>
        <linearGradient id="a" x1="35.666%" x2="90.613%" y1="18.749%" y2="78.356%">
            <stop offset="0%" stop-color="#FAFBFF"/>
            <stop offset="100%" stop-color="#F2F5FE"/>
        </linearGradient>
        <path id="c" d="M14 0h18a4 4 0 0 1 4 4v34a4 4 0 0 1-4 4H14a4 4 0 0 1-4-4V4a4 4 0 0 1 4-4z"/>
        <filter id="b" width="461.5%" height="285.7%" x="-230.8%" y="-95.2%" filterUnits="objectBoundingBox">
            <feMorphology in="SourceAlpha" radius="10" result="shadowSpreadOuter1"/>
            <feOffset dy="20" in="shadowSpreadOuter1" result="shadowOffsetOuter1"/>
            <feGaussianBlur in="shadowOffsetOuter1" result="shadowBlurOuter1" stdDeviation="20"/>
            <feColorMatrix in="shadowBlurOuter1" values="0 0 0 0 0.243137255 0 0 0 0 0.82745098 0 0 0 0 0.501960784 0 0 0 1 0"/>
        </filter>
        <path id="d" d="M18.482 3.578v-.26a3.287 3.287 0 0 0-1.05-2.375 3.523 3.523 0 0 0-2.492-.94c-2.821 0-3.603.873-4.073 1.717a4.505 4.505 0 0 1-.311-.278 4.595 4.595 0 0 0-3.5-1.44 3.546 3.546 0 0 0-2.503.966 3.308 3.308 0 0 0-1.039 2.404v.236C1.955 4.143.746 5.354.248 6.878a4.957 4.957 0 0 0 .732 4.49 4.969 4.969 0 0 0-.736 4.499c.498 1.528 1.709 2.742 3.27 3.28v.259c-.03 1.931 1.545 3.53 3.542 3.594a3.61 3.61 0 0 0 2.095-.88c.104-.07.232-.165.312-.218h3.053c.085.053.214.148.311.219.58.507 1.316.817 2.095.879 1.964-.063 3.527-1.612 3.542-3.511v-.307c2.102-.746 3.505-2.675 3.518-4.84a4.983 4.983 0 0 0-.977-2.95c.65-.873.998-1.922.995-2.998.007-2.165-1.404-4.097-3.518-4.816zM9.301 19.91c-.47.052-.907.255-1.244.577a2.27 2.27 0 0 1-.96.513c-.945-.084-1.666-.859-1.659-1.783.001-.197.04-.393.113-.576v-.047a.835.835 0 0 0 .03-.115V18.329c0-.023 0-.063.035-.092.314-.266 1.38-.34 2.186-.237a.892.892 0 0 0 1.004-.753.877.877 0 0 0-.773-.978c-.409-.051-2.512-.27-3.59.652-.117.103-.22.22-.308.347a3.27 3.27 0 0 1-2.026-2.276 3.182 3.182 0 0 1 .77-2.917c.498-.19 2.109-.698 3.134.306a.906.906 0 0 0 1.234-.021.85.85 0 0 0 .022-1.202c-1.552-1.511-3.608-1.154-4.657-.825a3.154 3.154 0 0 1-.42-2.952 3.279 3.279 0 0 1 2.245-2.026c.812 1.044 2.63 1.465 3.01 1.54a.89.89 0 0 0 1.054-.67.867.867 0 0 0-.687-1.026c-.67-.139-1.777-.548-1.985-.929 0-.029-.367-.249-.367-1.113 0-.865.863-1.17 1.605-1.154.827-.038 1.74.25 2.234.758.495.508.699.847.699 1.174V19.91h-.7zm8.27-2.978c-1.08-.92-3.186-.702-3.595-.65a.894.894 0 0 0-.713.529.849.849 0 0 0 .116.863.91.91 0 0 0 .828.334c.683-.086 1.851-.052 2.19.236 0 0 .035.035.035.092v.052c0 .102.018.203.054.3.073.197.111.405.112.615.01.908-.725 1.66-1.661 1.697a2.282 2.282 0 0 1-.967-.512 2.146 2.146 0 0 0-1.246-.575H12V3.578c0-.563.967-1.576 2.937-1.576.772-.036 1.515.548 1.661.99.146.441.146.921-.403 1.311-.55.39-1.187.742-2.006.892a.875.875 0 0 0-.807.944.887.887 0 0 0 .974.782h.166c.385-.069 2.272-.466 3.085-1.536a3.304 3.304 0 0 1 2.209 2.048c.353.988.193 2.08-.429 2.934-1.05-.328-3.11-.684-4.664.823a.846.846 0 0 0-.255.845c.08.306.327.545.642.623a.908.908 0 0 0 .871-.248c1.027-.995 2.629-.5 3.133-.305.565.599.878 1.38.878 2.192-.018 1.317-.841 2.497-2.094 3.003a1.87 1.87 0 0 0-.327-.368z"/>
    </defs>
    <g fill="none" fill-rule="evenodd">
        <circle cx="37.5" cy="37.5" r="37.5" fill="url(#a)"/>
        <g transform="translate(20 17)">
            <use fill="#000" filter="url(#b)" xlink:href="#c"/>
            <use fill="#3DD280" xlink:href="#c"/>
        </g>
        <g transform="translate(20 26)">
            <mask id="e" fill="#fff">
                <use xlink:href="#d"/>
            </mask>
            <use fill="#6E72CC" xlink:href="#d"/>
            <path fill="#FFF" d="M10-1h15v27H10z" mask="url(#e)"/>
        </g>
    </g>
</svg>
